<?xml version="1.0" encoding="UTF-8"?>
<svg id="Layer_1" data-name="Layer 1" xmlns="http://www.w3.org/2000/svg" viewBox="0 0 100 100">
  <defs>
    <style>
      .cls-1 {
        fill: #fff;
      }

      .cls-1, .cls-2, .cls-3 {
        stroke: #231f20;
        stroke-miterlimit: 10;
      }

      .cls-2 {
        fill: none;
        stroke-width: 5px;
      }

      .cls-3 {
        fill: #231f20;
      }
    </style>
  </defs>
  <circle class="cls-2" cx="49.22" cy="49.22" r="38.83"/>
  <path class="cls-3" d="M25.53,35.69c.2-1.78,1.32-3.33,2.88-4.23,1.82-1.05,4.84-2.48,7.9-2.59,0,0,12.83-1.57,22.45-.06s11.39,3.75,11.39,3.75c0,0,2.89,0,3.21,30.15,0,0-.16,3.21,4.65-.8v2.89s-2.73,3.85-12.03,5.13c0,0-9.3,1.76-13.63-5.13,0,0-14.23,11.09-28.36,1.12-1.04-.74-1.76-1.86-1.98-3.12-.52-3-.55-8.74,5.3-12.69.89-.6,1.88-1.04,2.9-1.37,3.43-1.07,12.47-3.45,21.81-2.06l-.48-13.95s-.16-4.01-7.7-1.6c0,0,5.61,5.45,1.12,9.62,0,0-10.84,6.18-17.67-.26-1.23-1.16-1.91-2.76-1.79-4.44,0-.11.02-.23.03-.35Z"/>
  <path class="cls-1" d="M52.18,48.44h-4.81s-2.47-.74-3.21,4.81c-.28,2.1-.32,6.37.29,9.12.31,1.42,1.56,2.41,3.01,2.38,1.73-.04,3.97-.76,4.72-3.96v-12.35Z"/>
</svg>