<?xml version="1.0" encoding="UTF-8"?>
<svg id="Layer_1" xmlns="http://www.w3.org/2000/svg" version="1.1" viewBox="0 0 39.3 36.9">
  <!-- Generator: Adobe Illustrator 29.1.0, SVG Export Plug-In . SVG Version: 2.1.0 Build 142)  -->
  <defs>
    <style>
      .st0 {
        fill: #da793f;
      }

      .st1 {
        fill: #a75768;
      }

      .st2 {
        fill: #c76c52;
      }

      .st3 {
        fill: #5d4a91;
      }

      .st4 {
        fill: #b35f61;
      }

      .st5 {
        fill: #7e4980;
      }

      .st6 {
        fill: #4a479a;
      }

      .st7 {
        fill: #d27448;
      }

      .st8 {
        fill: #4f4598;
      }

      .st9 {
        fill: #974c71;
      }

      .st10 {
        fill: #7e4280;
      }

      .st11 {
        fill: #fff;
      }

      .st12 {
        fill: #7b4081;
      }

      .st13 {
        fill: #df7d39;
      }

      .st14 {
        fill: #5f4490;
      }

      .st15 {
        fill: #e38035;
      }

      .st16 {
        fill: #925273;
      }

      .st17 {
        fill: #a0526b;
      }

      .st18 {
        fill: #424b9d;
      }

      .st19 {
        fill: #68408b;
      }

      .st20 {
        fill: #874b7b;
      }

      .st21 {
        fill: #394ea1;
      }

      .st22 {
        fill: #e8832f;
      }

      .st23 {
        fill: #d47645;
      }

      .st24 {
        fill: #6f4b88;
      }

      .st25 {
        fill: #ce714c;
      }

      .st26 {
        fill: #ef8726;
      }

      .st27 {
        fill: #8c4578;
      }

      .st28 {
        fill: #734386;
      }

      .st29 {
        fill: #161617;
      }

      .st30 {
        fill: #fdfdfd;
      }

      .st31 {
        fill: #bf6758;
      }
    </style>
  </defs>
  <path class="st21" d="M4,18.4c-.3,0-.5.2-.8.2-.3,0-.6-.4-.4-.8.5-1.3,1.1-2.5,1.7-3.8.6-1.3,1.4-2.5,2.1-3.7.3-.4.7-.8,1-1.2.2-.3.4-.7.6-1,.1-.3.3-.5.5-.8,0,.1,0,.3,0,.4-.4.6-.2,1.4-.3,2,.2,0,.3,0,.4,0,0,.3,0,.5,0,.7,0,.2,0,.3,0,.5,0,.2,0,.3.1.5,0,.2.1.6.3.7.4.2.3.4.1.6,0,.2-.2.4-.1.5,0,.5.2.9.3,1.4,0,.5,0,.5.5.5,0,.1,0,.2,0,.3-.6,3.5,0,6.7,2.3,9.4-.2,0-.3.2-.5.3-.4.4-.7.7-.6,1.3,0,.2,0,.4,0,.6,0,.7-.1,1.4-.2,2.1,0,.2,0,.3,0,.5,0,0,0,.2,0,.3,0,0,0,0,0,0,.4-.3.6-.7.9-1.2.6-1,1-2.1,1.1-3.3,0,0,.2.2.2.3,0,0,0,.1,0,.2,0,.8,0,1.7,0,2.5,0,.3,0,.6,0,.9,0,0,.1,0,.2,0,.3-.1.3,0,.3.2,0,.1,0,.3,0,.4.1.4,0,.8-.1,1.2,0,.1,0,.3,0,.4,0,0,0,0,.1,0,.2-.2.4-.3.6-.5,0,.5,0,1,0,1.4,0,.3,0,.5,0,.8-.3.3-.7.5-1.2.5-.5,0-.6-.2-.4-.6,0-.2.2-.5.3-.8,0,0,0,0,0-.1,0,0,0,0,0,0-.4.2-.7.4-1.1.5-.3,0-.4-.2-.3-.5.1-.3.2-.6.4-.9,0-.1,0-.2,0-.3-.3,0-.6,0-.8,0-.2,0-.3-.4-.4-.6-.4,0-.6,0-.8-.5-.3-.7.2-1,.4-1.5,0-.2.1-.3.2-.5-.3,0-.5.1-.7.1-.4,0-.4-.3-.4-.6,0,0-.1,0-.2,0-.5.3-.8.3-1.1-.3-.1-.3-.3-.3-.5-.3-.6,0-1.1,0-1.7-.1-.3,0-.7-.2-.7-.6,0,0,0-.1-.2-.2-.5-.2-.5-.5-.4-.9.1-.3.2-.6.4-.9.1-.3.3-.5.4-.8-.2-.1-.4-.3-.5-.4,0,0,0-.2,0-.3.1-.2.2-.3.4-.5,0,0,.1-.1.3-.3-.2,0-.3,0-.4,0-.3,0-.7.2-1,.2-.2,0-.5-.1-.5-.3,0-.2,0-.4,0-.6.3-.5.6-1.1.9-1.6,0,0,0-.2.1-.3-.9,0-.9,0-.6-1,0,0,0,0,0-.1,0,0,0,0,0,0Z"/>
  <path class="st31" d="M30.7,27.2c-.3.3-.5.7-.8,1.1-.2,0-.4.1-.5.2,0,0,0-.1-.2-.2-.4.2-.4.2-.4-.2,0-.3,0-.6.1-.9.2-.2.4-.3.5-.4.2-.3.2-.6-.2-.7-.2,0-.3-.1-.5-.1-.2,0-.4,0-.7-.1,0-.4,0-.8-.3-1,0,0,0-.1,0-.2,0-.3,0-.6,0-.9,0-.2-.1-.4-.4-.3-.2,0-.3,0-.3-.2,0-.3,0-.7,0-1,0,0,0-.2-.1-.2-.3,0-.5-.2-.8,0,0,0,0-.2,0-.2,0-.4,0-.8.2-1.2.1-.5.3-.9.3-1.4,0-.2,0-.3.1-.5,0-.2.1-.4.2-.7.1-.4-.2-.7.1-1.1,0,0,0-.3.1-.3-.2-.2-.5-.3-.7-.5,0-.3.1-.5.2-.8,0,0,0-.1,0-.2,0,0,0,0,0-.1,0,0,0,0,0-.1,0,0,0,0,0,0,0,0,.2,0,.2,0,.3-.3.4-.6.4-1,0-.3.2-.7.4-.9.4-.5.3-.9-.3-1.1,0,0,0-.1,0-.2,0,0,0,0,0,0,.1-.1.3-.2.4-.4.1-.4.3-.8.8-1-.1,0-.3-.1-.3-.2,0-.3-.3-.3-.5-.3,0-.4,0-.6-.4-.8,0,0,0-.1,0-.2,0,0,.1,0,.2,0,0,0,0,0,0,0,0,0,0,.1-.1.2-.3,0-.5.1-.7.2-.2,0-.3,0-.5,0,0,0,0,0,0,0,0,0,0,0,0,0,0-.2,0-.4,0-.5.2-.2.2-.4,0-.6.3-.4.3-.8.1-1.3-.2-.4-.2-.4-.6-.2,0,0-.2.1-.4.2,0-.3,0-.5,0-.7,0-.4.4-.7.7-.6.5.2,1,.4,1.6.6,0,.3,0,.5-.3.6,0,0-.2.3-.1.3.4.2,0,.6.1.8,0,.1,0,.3.1.3.1,0,.3,0,.4,0,0,0,.2-.1.3-.2,0,.5,0,1,0,1.4.2-.1.3-.2.6-.3-.2.6.3.7.5,1-.2.3-.3.6-.5.8-.2.2-.5.3-.7.7.3,0,.5-.2.6.1,0,0,0,.2.1.3,0,0,0,.2,0,.2-.3.2-.4.4-.3.7,0,0,0,.1-.1.2-.1.3-.3.5-.4.8,0,.4-.2.7-.4,1.1-.3.4-.3,1,.1,1.2.4.2.3.3,0,.5,0,0-.1.3,0,.3.2.2.1.3,0,.5,0,.1-.2.3-.2.5-.2.9-.5,1.8-.6,2.8,0,.2,0,.4.3.4.4,0,.6.4.9.6,0,0,0,.1,0,.2,0,.2.1.5.3.7.1.2.3.5.7.2,0,0,0,.2,0,.2-.1.3-.2.5.1.6,0,0,0,0,0,.1,0,.3,0,.7,0,1,0,0,0,.2,0,.2.2.1.1.3,0,.5,0,.3-.1.6,0,.9.1,0,.2-.2.2-.2,0,0,.2,0,.3-.1,0,.1.1.2.1.3,0,.1,0,.3,0,.4,0,.2,0,.3.3.2,0,0,.1,0,.2,0,0,.2,0,.4,0,.5,0,0,.1.2.2.2Z"/>
  <path class="st9" d="M28.5,29.8c-.5.5-.9,1.1-1.5,1.6-.3.3-.6.6-.8,1-.3.4-.6.8-1.1.9-.3.1-.5,0-.7-.3-.2-.2-.2-.3,0-.6-.1,0-.2,0-.3,0-.2.2-.3.5-.5.8-.2.3-.4.4-.7.2-.5-.2-.7-.5-.5-1.1,0-.2,0-.4.2-.5.2-.3.5-.5.8-.8,0,.1.1.3.2.4,0,.1.2.2.3.3,0,0,.1,0,.1,0,0-.1,0-.3,0-.4-.2-.3-.1-.5,0-.8,0-.1.1-.3.1-.4,0-.4,0-.7.1-1.1,0-.1,0-.2,0-.4-.2.2-.3.3-.5.4-.3-.3-.3-.8-.1-1.2.1-.3,0-.7-.2-.8-.2.1-.3.2-.5.4,0-.3,0-.7-.4-.7,0,0,0,0,0-.1,0-.3,0-.7.2-1,.1-.4.3-.8.5-1.2.2-.4.1-.4-.3-.5,0,0,0-.2,0-.2,0,0,0,0,0,0,.2-.2.3-.3.4-.5,0,.2,0,.4,0,.6.2,1.1.4,2.1,1.3,2.9,0,0,0,.1,0,.2,0,.1,0,.3,0,.4,0,0,.3.1.4.1.2,0,.2.1.2.3,0,.3.1.6-.2.9,0,0,0,0,0,0,0,.4,0,.8,0,1.2,0,0,0,.2,0,.3h.6c0-.1,0-.2,0-.3,0-.3,0-.7.3-.9,0,0,.1,0,.2,0,0,0,0,.1,0,.2,0,.2-.1.4-.2.7.4.4.3,1,.5,1.6,0,0,0,0,0,0,.3-.4.5-.7.8-1.1.2-.2.3-.3.5-.5,0,.2.1.3.2.4Z"/>
  <path class="st22" d="M34.9,18.6s0,0,0,.1c0,0,0,0,0,.1,0,0,0,0,.1,0,0,0,0,0,.1,0,0,.7,0,1.4,0,2,0,.1,0,.2,0,.3-.3.5-.6.9-1,1.4,0-.5,0-.9-.1-1.4,0,0-.1,0-.2-.1,0,.2-.2.3-.3.4-.3-.3-.4-.5-.3-.9,0-.1,0-.4,0-.4-.3-.3-.2-.6,0-.9.1-.2.2-.5.1-.6-.2-.3,0-.5-.1-.7,0-.2-.1-.4-.1-.7,0-.3,0-.6,0-.9,0-.3.3-.3.5-.1,0,0,.1,0,.2,0,0,0,0-.1,0-.2,0-.2,0-.5-.3-.6,0,0,0,0-.1,0-.2-.2-.9-.1-1,0,0,0-.2.1-.3.2,0-.1-.1-.2-.1-.3,0-.4,0-.7,0-1.1-.6,0-.6-.1-.3-.5,0-.1.1-.3,0-.5,0-.4,0-.7.3-.9.3-.3.6-.5.7-1,0,0,.1-.1.2-.2.1-.1.3-.2.3-.3,0-.3.1-.6.2-.9.3,0,.3.3.3.6,0,0,0,0,.1.2,0,.4,0,.8.2,1.1,0,0,0,.2,0,.2,0,.3.1.6.1.9,0,.5.4.9.3,1.4,0,.2,0,.4,0,.6,0,.5,0,1,.2,1.5.1.6,0,1.3,0,1.9,0,.1,0,.2,0,.3Z"/>
  <path class="st2" d="M30.7,27.1c0,0-.2-.1-.2-.2,0-.2,0-.3,0-.5-.1,0-.2,0-.2,0-.2,0-.3,0-.3-.2,0-.1,0-.3,0-.4,0-.1,0-.2-.1-.3,0,0-.2,0-.3.1,0,0-.1.1-.2.2-.2-.3-.1-.6,0-.9,0-.2.2-.3,0-.5,0,0,0-.1,0-.2,0-.3,0-.7,0-1,0,0,0-.1,0-.1-.3-.2-.3-.4-.1-.6,0,0,0,0,0-.2-.3.3-.5,0-.7-.2-.1-.2-.2-.5-.3-.7,0,0,0-.1,0-.2-.3-.2-.4-.6-.9-.6-.2,0-.3-.1-.3-.4,0-1,.4-1.8.6-2.8,0-.2,0-.3.2-.5.1-.2.2-.3,0-.5,0,0,0-.3,0-.3.2-.2.4-.3,0-.5-.4-.2-.5-.8-.1-1.2.2-.3.4-.7.4-1.1,0-.3.3-.6.4-.8,0,0,.1-.1.1-.2,0-.3,0-.6.3-.7,0,0,0-.2,0-.2,0,0-.1-.2-.1-.3,0-.4-.3-.2-.6-.1.1-.4.5-.5.7-.7.2-.2.3-.5.5-.8-.2-.3-.7-.4-.5-1-.2.1-.4.2-.6.3,0-.5,0-.9,0-1.4-.2.1-.2.2-.3.2-.1,0-.3,0-.4,0,0,0-.1-.2-.1-.3,0-.3.2-.6-.1-.8,0,0,0-.3.1-.3.3-.1.3-.4.3-.6.2,0,.3.1.5.1.5,0,.7-.2.6-.7,0-.1,0-.3-.1-.4.2,0,.4-.1.5,0,.1,0,.2.3.2.5,0,0,0,.2,0,.3,0,.6-.5,1.1-.3,1.7-.4.2-.3.4,0,.9.1,0,.2-.1.4-.2,0,.2,0,.4.2.5.3.5.2.8-.2,1.1-.3.4-.3,1-.4,1.5,0,0,.1,0,.2,0,.4.2.4.7,0,1-.3.3-.4.8-.5,1.2,0,0,0,0,0,.1,0,0,0,.1,0,.2-.1.3-.3.5-.5.8-.3.4-.3.8,0,1.2,0,0,.1.2,0,.3,0,.3-.1.5-.2.8,0,0,0,0,0,.1,0,0-.1.1-.2.2-.1.3-.3.7-.4,1,0,.3-.3.7-.2,1.1,0,.2,0,.5,0,.7,0,.1,0,.2,0,.4.1,0,.3,0,.4,0,.4-.2.5,0,.6.3,0,.4.2.7.3,1,0,.1.1.2.1.4,0,.2.1.2.3,0,.2-.2.3-.1.4,0,.1.2.2.5.3.6.2.2.2.4,0,.7,0,.3-.1.6.1.9.3.4.9.7.7,1.4,0,0,0,0,0,0,.1,0,.2,0,.4-.1v1.2c-.1.2-.3.4-.4.6Z"/>
  <path class="st6" d="M9.9,15.3c-.5,0-.4,0-.5-.5,0-.5-.2-.9-.3-1.4,0-.2,0-.4.1-.5.2-.3.3-.4-.1-.6-.2,0-.2-.5-.3-.7,0-.2,0-.3-.1-.5,0-.2,0-.3,0-.5,0-.2,0-.5,0-.7-.1,0-.3,0-.4,0,0-.7-.2-1.4.3-2,0-.1,0-.2,0-.4.3-.3.6-.7.9-1,.5-.4.8-.3,1.2.1,0,0,0,.1.1.2.3-.3.7-.3,1,0,.1,0,.2-.2.4-.3,0,.1-.1.3-.2.4,0,0,0,0,0,0-.1.1-.2.2-.3.3-.2.2-.4.4-.7.5-.5.2-.5.8-.8,1.1,0,0,0,.2,0,.2,0,.2,0,.4,0,.6,0,.2-.2.4.2.4,0,0,.1.2.1.3,0,.4,0,.7.3,1,0,.1,0,.5,0,.6-.2.3-.3.5-.1.9-.2.5-.4.9-.6,1.3-.2.4-.3.8-.5,1.2Z"/>
  <path class="st13" d="M33.5,21.5c0-.2.2-.3.3-.5,0,0,.1,0,.2.1,0,.5,0,.9,0,1.4-.3.4-.6.9-.9,1.3,0-.5,0-1-.1-1.4-.1,0-.2,0-.2.2,0,.2-.1.3-.2.5-.1-.1-.2-.3-.3-.5,0,0-.2,0-.3,0-.1-.2-.1-.4,0-.5.1-.1.2-.4.2-.6,0-.3,0-.6,0-.9,0-.1,0-.2,0-.4,0,0,0,0,0,0-.1.2-.2.3-.4.5,0,0,0,0-.1,0,0-.2-.1-.3-.2-.5,0-.3,0-.6-.1-.8,0-.2-.2-.3-.3-.4-.1-.2-.3-.3-.6-.2,0,0-.1,0-.2.1-.2-.2,0-.8,0-1,.1-.2.2-.3.2-.5,0-.2,0-.4.1-.5.2-.6-.1-1.1-.8-1.1,0,0-.2-.1-.2-.2,0-.2,0-.4.2-.5.3-.4.5-.6.2-1.1,0-.1,0-.3,0-.4h.4c.2-.3.2-.3,0-.6,0,0,0-.2,0-.2,0,0,.1-.2.1-.3,0-.8.2-.7.7-.8.4-.1.6-.5.4-.9,0-.1-.1-.3-.1-.5,0-.4,0-.9,0-1.3.2-.1.4-.2.6-.3,0,.4,0,.8,0,1.2,0,.2,0,.4.2.5.4.3.4.8-.1,1-.4.2-.8.4-.8.9,0,0,0,.1,0,.1-.3.3-.4.5-.3.9,0,0,0,.1,0,.2-.1.3-.3.6-.4,1,0,0,0,0,0,0,0,0-.3,0-.3,0,0,.1,0,.3,0,.4.1,0,.2,0,.3,0,.4-.1.6,0,.6.4,0,.3,0,.6,0,.8.1.3.2.6,0,.9,0,0,0,.3.1.5,0,0,.2,0,.3,0,0,0,.2,0,.3,0,.1.1.2.3.3.4.2.5.3,1,.4,1.4,0,0,0,.2,0,.3,0,.4-.4.8,0,1.2,0,0,0,0,0,0,0,.3,0,.7,0,1,0,.1-.1.3-.2.4.2,0,.4,0,.5,0,0,0,0,0,0,0,.2-.2.3-.5.5-.7M30.5,18.2s0,0,0,0c0,0,0,0,0,0,0,0,0,0,0,0Z"/>
  <path class="st0" d="M31.6,8.9c0,.4,0,.9,0,1.3,0,.2,0,.3.1.5.2.4,0,.8-.4.9-.5.1-.7,0-.7.8,0,0,0,.2-.1.3,0,0,0,.2,0,.2.1.3.1.3,0,.6h-.4c0,.1,0,.3,0,.4.3.5,0,.8-.2,1.1-.1.1-.2.4-.2.5,0,0,.1.2.2.2.7,0,1,.5.8,1.1,0,.2,0,.4-.1.5,0,.2-.1.4-.2.5-.1.2-.2.8,0,1,0,0,.1-.1.2-.1.2-.1.4,0,.6.2,0,.2.3.3.3.4,0,.3,0,.5.1.8,0,.2.1.3.2.5,0,0,0,0,.1,0,.1-.2.2-.3.4-.5,0,0,0,0,0,0,0,.1,0,.3,0,.4,0,.3,0,.6,0,.9,0,.2,0,.4-.2.6-.2.2-.2.3,0,.5,0,0,.2,0,.3,0,0,.2.2.3.3.5-.1.3-.2.5-.4.7,0,0,0,0,0,0,0-.2-.2-.4-.3-.6-.4,0-.5-.4,0-1.1-.4-.3,0-.6,0-1-.1,0-.2.1-.3.2-.1,0-.2-.2-.3-.2-.2,0-.3-.2-.2-.4.1-.5,0-.9-.5-1.1-.5.3-.5.3-.7-.3,0-.3,0-.6,0-.8.1-.5,0-.6-.4-.5-.4,0-.7-.2-.5-.6,0,0,0,0,0,0,.1-.8,0-1.6.6-2.3,0,0,0-.2,0-.3,0-.2,0-.5.2-.5.3-.1.3-.4.2-.5-.2-.4,0-.7.2-1.1,0,0,0,0,.1-.1,0-.1.1-.2.2-.4,0-.2,0-.4,0-.6,0-.2,0-.4.2-.5,0,0,.1-.2.1-.3,0,0-.1-.2-.1-.2-.4.1-.5-.1-.5-.4,0,0-.1-.1-.2-.2,0,0,0-.2,0-.3.4-.2.4-.2.2-.6-.2-.2-.1-.4.2-.4.2,0,.3-.2.3-.3,0-.2,0-.3,0-.5.1,0,.3.2.4.3.2.2.2.5,0,.7,0,0,0,.2,0,.3.2-.1.4-.3.6-.5M29.7,17c0,.1,0,.3-.2.5.2,0,.3,0,.4-.2.1-.1.2-.2.3-.4,0,0,0-.2,0-.2-.1,0-.3.1-.4.2Z"/>
  <path class="st15" d="M33.5,21.5c-.1.2-.3.5-.5.7,0,0,0,0,0,0-.2,0-.3,0-.5,0,0,0,.2-.2.2-.4,0-.3,0-.7,0-1,0,0,0,0,0,0-.5-.4,0-.8,0-1.2,0,0,0-.2,0-.3-.1-.5-.3-1-.4-1.4,0-.2-.2-.3-.3-.4,0,0-.2,0-.3,0-.1,0-.3,0-.3,0,0-.1-.2-.4-.1-.5.2-.3.2-.6,0-.9,0-.2,0-.5,0-.8,0-.4-.2-.6-.6-.4,0,0-.2,0-.3,0,0-.1,0-.3,0-.4,0,0,.2,0,.3,0,0,0,0,0,0,0,.1-.3.3-.7.4-1,0,0,0-.1,0-.2-.2-.4,0-.7.3-.9,0,0,0,0,0-.1,0-.5.4-.7.8-.9.5-.2.5-.7.1-1-.1-.1-.2-.3-.2-.5,0-.4,0-.8,0-1.2.3,0,.7,0,.8.3,0,.3,0,.6,0,.9,0,0,.2,0,.4,0,0,.3,0,.6-.2.9,0,.1-.2.2-.3.3,0,0-.2.1-.2.2,0,.4-.4.7-.7,1-.3.2-.4.6-.3.9,0,.2,0,.4,0,.5-.3.4-.3.5.3.5,0,.4,0,.7,0,1.1,0,.1,0,.2.1.3,0,0,.2-.1.3-.2.2-.2.8-.2,1,0,0,0,0,0,.1,0,.4,0,.3.3.3.6,0,0,0,.2,0,.2,0,0-.1,0-.2,0-.2-.2-.5-.2-.5.1,0,.3,0,.6,0,.9,0,.2.1.4.1.7,0,.2,0,.5.1.7,0,.1,0,.4-.1.6-.2.3-.3.6,0,.9,0,0,.1.3,0,.4-.1.4,0,.6.3.9Z"/>
  <path class="st6" d="M20.2,34.1c-.2.2-.4.5-.7.7-.2.2-.4.3-.7.2-.3-.1-.4-.3-.5-.7-.2.2-.3.5-.6.6-.2.2-.5.3-.8.3-.5,0-.7-.4-.5-1,.3-.2.7-.4,1-.6,0,0,.1-.1.2-.2.3-.4,0-.7,0-1.2-.3.3-.5.5-.8.7-.3.2-.5.7-1,.5,0,0-.2,0-.3.1,0,0,0,0,0,0,0-.3,0-.5,0-.8,0-.2,0-.4,0-.6,0,0,0,0,.1-.1,0,0,.2-.1.3-.2,0,.2.2.5,0,.6-.2.3,0,.4.1.7.1,0,.2-.2.4-.3.2-.2.5-.3.6-.6.2-.7.4-1.4.6-2.1.1.2.2.4.3.6.1,0,.2,0,.3-.1.4.4.6.5.8.2.2-.2.3-.4.5-.6,0,0,.2-.1.3-.2,0,.2.2.4.2.5,0,0,0,0,.1.1,0,0,0,.1,0,.2-.4.2-.6.5-.7.9,0,.1,0,.3-.2.3,0,0-.1.3,0,.4.3.3.1.6-.1.8,0,0,0,.1-.1.2,0,0,0,0,0,0,.4-.3.7-.6,1.1-1,0,.2,0,.3,0,.4,0,.3,0,.5,0,.8Z"/>
  <path class="st1" d="M24.3,3.5c.3.2.7.4,1,.7,0,.2,0,.4,0,.6-.2,0-.5,0-.7,0-.1,0-.3.2-.3.3,0,.5,0,1,0,1.6,0,0,.2.1.2.1.3-.2.4,0,.4.2.1,0,.2,0,.3,0,0,0,0,0,0,0,0,0-.2.2-.3.2-.1,0-.2.1,0,.3.2.2.2.3,0,.4-.2,0-.3.2-.2.5.3,0,.3,0,.4.4,0,0,0,.1.1.2-.1.6-.2,1.1-.4,1.6-.1,0-.3,0-.4,0,0,0-.2-.1-.2-.1,0-.3.1-.6.1-.9,0-.1,0-.3,0-.4-.1-.1-.3-.1-.4-.2,0,.1,0,.3,0,.4,0,0,0,0,0,0,0,0-.1.1-.2.2-.3.3-.4.4-.8.1,0,0-.2,0-.3,0-.2-.2-.3-.3-.5-.5,0,0,0-.1.2-.2.4-.3.4-.4.2-.9-.2,0-.3.3-.5,0,0-.1-.2-.3-.3-.4,0-.2.1-.4,0-.6,0,0-.4,0-.5,0,0,0,0,0-.1,0,0-.2,0-.3,0-.4,0-.2,0-.4.2-.5,0,.3,0,.5.1.7.2,0,.3-.1.4-.2.2-.1.3-.1.4.2,0,.2.2.4.3.7,0,0,0,0,.1,0,.2,0,.4,0,.6,0,0,0,0,0,0-.1-.2-.3-.1-.5,0-.8,0,0,0-.1,0-.2,0-.8,0-1.6.2-2.4.4,0,.7.1,1.1.2,0-.3-.2-.5-.2-.7,0-.1,0-.2-.1-.3Z"/>
  <path class="st26" d="M34.9,18.6c0-.1,0-.2,0-.3,0-.6,0-1.3,0-1.9-.1-.5-.2-1-.2-1.5,0-.2,0-.4,0-.6.1-.5-.3-.9-.3-1.4,0-.3,0-.6-.1-.9,0,0,0-.2,0-.2-.2-.3-.2-.7-.2-1.1.3,0,.7,0,1,0,.6.2.7.4.6,1,.6.4.6.7,0,1.2-.2.2-.5.5-.7.7.2.2.4.3.6.5,0,0,.2.1.3.1.4.1.5.5.2.8-.2.3-.4.6-.7.9.2,0,.3,0,.5,0,.3,0,.5,0,.7.3.1.3,0,.6-.2.8-.4.5-.8,1-1.2,1.4,0,0-.1.1-.2.2Z"/>
  <path class="st25" d="M32.1,23.8s0,0,0,0c0,.2,0,.5,0,.5-.2.1-.2.3-.2.5,0,.2,0,.5,0,.7,0,0,0,0,0,0,0,0,0,0,0,0-.2.3-.4.6-.6.9,0-.4,0-.7,0-1.2-.2,0-.3.1-.4.1,0,0,0,0,0,0,.1-.7-.5-.9-.7-1.4-.2-.3-.2-.6-.1-.9,0-.3.2-.5,0-.7-.2-.2-.2-.4-.3-.6-.1-.2-.2-.2-.4,0-.1.1-.2.1-.3,0,0-.1,0-.2-.1-.4-.1-.3-.3-.7-.3-1,0-.4-.2-.5-.6-.3-.1,0-.2,0-.4,0,0-.1,0-.2,0-.4,0-.2,0-.5,0-.7-.1-.4,0-.7.2-1.1,0-.3.2-.7.4-1,0,0,0-.1.2-.1,0,.2,0,.3,0,.5,0,.4-.3.9-.2,1.4,0,.3.3.6,0,.9,0,0,0,.1,0,.2,0,0,.1,0,.1,0,0,0,.1-.1.2-.2.2-.1.3-.2.4-.3,0,0,.3,0,.3,0,0,0,0,.2,0,.4,0,.5,0,.6.4.9,0,0,.1.2.1.3,0,.1,0,.2-.1.4.5-.4.7-.3.8.2,0,.1.1.3.2.4,0,.2.2.3.3.6,0,0,.1,0,.2,0,0,.3-.2.5-.2.7,0,.2.1.3.1.5,0,.3,0,.4.4.3,0,.2,0,.3,0,.4,0,0,0,.2.1.2,0,0,.2,0,.2-.1.2-.2.3-.4.5-.7Z"/>
  <path class="st6" d="M14.1,33.4c0-.2,0-.5,0-.7,0-.4,0-.9,0-1.4-.3.2-.4.4-.6.5,0,0,0,0-.1,0,0-.1,0-.3,0-.4.1-.4.3-.7.1-1.2,0-.1,0-.3,0-.4,0-.3,0-.3-.3-.2,0,0,0,0-.2,0,0-.3,0-.6,0-.9,0-.8,0-1.7,0-2.5,0,0,0,0,0-.1.2.1.4.3.6.4,0,.7,0,1.4,0,2,0,0,0,.2,0,.3,0,0,.2-.1.3-.2,0,0,0-.2.2-.3.1-.1.2-.3.4-.4.2,1,0,1.9-.1,2.7,0,0,0,0,0,0,.2-.2.5-.4.7-.7.2.6-.3,1-.3,1.5,0,0-.2,0-.2-.1-.2.4-.5.7-.3,1.1.1,0,.2-.2.4-.3,0,.2,0,.4.1.6-.2.2-.4.3-.5.5-.1,0-.2.2-.4.3Z"/>
  <path class="st4" d="M25.3,9c0,0-.1,0-.1-.2-.1-.3-.1-.4-.4-.4-.1-.3,0-.4.2-.5.2-.1.3-.2,0-.4-.2-.2,0-.2,0-.3,0,0,.2-.2.3-.2,0,0,0,0,0,0-.1,0-.2,0-.3,0,0-.3-.1-.4-.4-.2,0,0-.2,0-.2-.1,0-.5,0-1,0-1.6,0-.1.2-.3.3-.3.2,0,.5,0,.7,0,0-.2,0-.3,0-.5.4.2.7.5,1,.7.2,0,.5,0,.7,0,0,0,0,0,0,0,.1-.1.3-.3.4-.3.2,0,.3,0,.5,0,.1,0,.2,0,.4.1,0,.1.1.2.1.4.1.5-.1.8-.6.7-.2,0-.3-.1-.5-.2-.5-.2-1.1-.4-1.6-.6-.3-.1-.7.2-.7.6,0,.2,0,.4,0,.7.2,0,.3-.1.4-.2.4-.3.4-.3.6.2.2.4.2.8-.1,1.3.2.2.1.4,0,.6,0,0,0,.3,0,.5-.2.2-.5.3-.7.5Z"/>
  <path class="st7" d="M30.5,8.1c0,.2,0,.3,0,.5,0,.1,0,.3-.3.3-.3,0-.3.2-.2.4.2.3.2.4-.2.6,0,0,0,.2,0,.3,0,0,.2.1.2.2,0,.3,0,.6.5.4,0,0,.2.1.1.2,0,.1,0,.3-.1.3-.3,0-.3.2-.2.5,0,.2,0,.3,0,.6,0,.1-.1.3-.2.4,0,0,0,0-.1.1-.1,0-.2,0-.3,0,0-.3,0-.6.3-.8,0,0,0-.2,0-.2-.3-.4-.6-.8-.5-1.3,0,0,0,0,0,0-.3-.2-.1-.6-.2-.9.4-.3.5-.6.2-1.1,0-.1,0-.3-.2-.5-.1,0-.2.1-.4.2-.4-.5-.4-.7,0-.9-.2-.6.2-1.1.3-1.7,0,0,.2,0,.3,0,.1.1.3.3.3.4,0,.3,0,.6,0,.9,0,0,0,.2.1.2.2,0,.2.2.2.4,0,.1,0,.3,0,.4,0,0,0,.1-.1.2.1,0,.3.1.4.2Z"/>
  <path class="st4" d="M17.4,3.5c.2-.3.4-.6.8-.5.1,0,.2.2.4.4-.1.2-.2.5-.5.4,0,0-.2,0-.2,0,0,.2,0,.4,0,.6,0,0,.2.1.3.2-.1.1-.2.3-.4.5-.3.2-.6.3-.4.7,0,0,0,0,0,0-.2.1-.3.2-.5.3,0,0,0,0,0,.1.4-.2.4,0,.4.3,0,.2,0,.5,0,.8.1,0,.2,0,.3-.1,0,.1.2.2.2.3.3-.4.5-.5.6-.3-.1.3-.2.5-.3.7-.6,0-1.2.2-1.8.2.1-.3.2-.6.3-.8,0-.2-.2-.3-.2-.4,0-.1,0-.3-.2-.4-.1,0-.3,0-.4.1,0,0,0,0-.1,0,0,0,0,0,0,0,.1-.2.2-.4.4-.6.6-.4.8-.9.7-1.6,0-.3,0-.5.3-.7.2-.2.3-.3.2-.6Z"/>
  <path class="st1" d="M17.4,3.5c0,.2,0,.4-.2.6-.2.2-.4.4-.3.7.1.7,0,1.2-.7,1.6-.2.1-.3.4-.4.6,0,0,0,0,0,0,0,0,0,0,.1,0,.1,0,.3-.2.4-.1,0,0,.1.2.2.4,0,.1.1.2.2.4,0,.2-.2.5-.4.8-.3.1-.5.2-.8.3,0-.1,0-.3.2-.3.3-.2.4-.4.4-.8-.3,0-.6-.3-.9,0,0,0-.2,0-.4,0,.4-.5.7-.8,1-1.2,0-.1,0-.3,0-.5,0,0-.1-.1-.1-.1-.1,0-.3.1-.4.2,0,0-.1.1-.2.2,0,0,0,0,0-.1,0,0,0-.2-.1-.3,0,0-.2.1-.3.2-.2.1-.3.3-.4.4h0c0-.3.2-.5.3-.7,0-.3,0-.5.1-.9,0,0,0,0-.2,0,.2-.2.4-.4.7-.6,0,.4.1.7.2,1.1,0,0,0,0,.1,0,.3-.4.7-.7,1-1.1.3-.2.6-.5.8-.7Z"/>
  <path class="st9" d="M14.6,4.7c.1,0,.2,0,.2,0,0,.3,0,.6-.1.9,0,.2-.2.5-.3.7h0c.1,0,.3-.2.4-.3,0,0,.2-.1.3-.2,0,0,0,.2.1.3,0,0,0,0,0,.1,0,0,.1-.2.2-.2.1,0,.2-.2.4-.2,0,0,.1,0,.1.1,0,.2,0,.4,0,.5-.3.4-.6.8-1,1.2.2,0,.4,0,.4,0,.3-.4.6,0,.9,0,0,.3,0,.6-.4.8,0,0-.1.2-.2.3-.2.1-.3.2-.4.2,0,0,0,0,0,0,.2-.2.3-.4.5-.7,0,0,0-.2,0-.3,0,0,0,0,0,0-.2.2-.4.4-.7.6-.4-.4-.5-.6-.2-1.1.1-.3.1-.4,0-.6-.3.2-.5.4-.7.6-.3-.5-.1-1.4.4-1.8.2-.1.2-.3.2-.5,0,0,0,0,.1-.1Z"/>
  <path class="st27" d="M14.4,4.8c0,.2,0,.3-.2.4-.5.4-.7,1.4-.4,1.8.2-.2.5-.4.7-.6.2.2.2.4,0,.6-.3.5-.2.7.2,1.1.2-.2.4-.4.7-.6,0,0,0,0,0,0,0,0,0,.2,0,.3-.1.2-.3.4-.5.7,0,0,0,0,0,.1-.3.2-.7.4-1.1.6-.2,0-.5.2-.5-.2,0-.5,0-.9.1-1.4,0-.2,0-.4.1-.5-.2,0-.4-.2-.6-.2-.4,0-.4-.2-.4-.5,0-.2.2-.4.4-.5.2-.2.4-.4.3-.7,0,0,0,0,0,0,0,0,.1,0,.2-.1,0,0,.1-.1.2-.2,0,0,0,0,0,0,0,0,.1,0,.2-.1Z"/>
  <path class="st8" d="M20.2,34.1c0-.2,0-.5,0-.7,0-.1,0-.2,0-.4-.4.4-.8.7-1.1,1,0,0,0,0,0,0,0,0,0-.1.1-.2.2-.2.4-.5.1-.8,0,0,0-.3,0-.4.2,0,.2-.2.2-.3,0-.4.3-.8.7-.9.3.3.6.6.8.9,0,0,0,0,.1,0,0,0,.1,0,.2,0,0,0,.1,0,.2,0,.2,0,.4,0,.6-.1,0,0,0,.1,0,.2-.6.6-1.3,1.2-1.9,1.8Z"/>
  <path class="st1" d="M28.6,29.8c0,0-.1-.2-.2-.4-.2.2-.4.3-.6.5-.2-.5-.4-1-.2-1.5,0-.2-.2-.3-.2-.5,0-.2,0-.4,0-.7.5,0,1-.2,1.5-.2,0,.3-.1.6-.1.8,0,.4,0,.4.4.2,0,0,.1.2.2.2.2,0,.3-.1.5-.2-.4.5-.8,1-1.3,1.5Z"/>
  <path class="st12" d="M13.6,5.4c0,.3,0,.5-.3.7-.2.1-.3.3-.4.5,0,.3,0,.5.4.5.2,0,.4.1.6.2,0,.1,0,.3-.1.5,0,.5,0,.9-.1,1.4,0,.4.3.1.4.2-.3.3-.7.5-1,.7-.1,0-.2-.1-.3-.2,0-.2,0-.4.1-.6,0-.3.2-.6.2-.8,0-.2,0-.3,0-.6-.4.3-.6.3-.7,0,0-.3-.2-.3-.4-.3,0-.3,0-.5,0-.8,0,0,0,0,0,0,0,0,.2,0,.2,0,.3-.3.6-.7.9-1,0,0,0,0,0,0,0,0,.2-.1.2-.2Z"/>
  <path class="st0" d="M30.2,7.8c0-.1,0-.3,0-.4,0-.2,0-.3-.2-.4,0,0-.1-.2-.1-.2,0-.3,0-.6,0-.9,0-.1-.2-.3-.3-.4.3-.3.6-.5,1-.2.3.2.4.4.4.7,0,.1,0,.2,0,.3.2.3.2.5,0,.8-.2.3-.5.6-.7.9Z"/>
  <path class="st26" d="M35.1,21.2c0-.1,0-.2,0-.3,0-.7,0-1.3,0-2,.1,0,.3,0,.4-.1.3,0,.6,0,.7.3.2.3.1.6,0,.9-.3.4-.6.8-1,1.3Z"/>
  <path class="st15" d="M18.9,3.4l.7.4s0,0,0,0c.1,0,.3,0,.3,0,.3.2.4,0,.7,0,.3-.1.6-.2.9-.3,0,0,0,0,0,0,0,.1-.1.3-.2.4-.4.3-.8.5-1.2.8,0,0,0,0,0,0-.2,0-.5,0-.6.1-.1-.2-.3-.4-.4-.6,0,0,0-.1,0-.2,0-.3,0-.5,0-.8Z"/>
  <path class="st21" d="M15.5,33.8c0,0,.2-.2.3-.2.5.1.7-.3,1-.5.3-.2.5-.5.8-.7,0,.4.3.8,0,1.2,0,0-.1.1-.2.2-.3.2-.6.4-.9.6-.1,0-.3,0-.4,0-.4,0-.5,0-.6-.6Z"/>
  <path class="st7" d="M18.9,3.4c0,.3,0,.5,0,.8,0,0,0,.1,0,.2.1.2.3.4.4.6.2,0,.4,0,.6-.1-.4.4-.8.7-1.2,1.1-.2.2-.3.3-.5.5,0-.2,0-.4-.1-.5-.3-.3-.1-.4,0-.6.2-.3.3-.6.5-.9,0,0,0,0,0,0,0,0-.1,0-.2,0,0-.3,0-.6,0-.9,0,0,.1,0,.2,0Z"/>
  <path class="st2" d="M18.7,3.4c0,.3,0,.6,0,.9,0,0,0,0,.2,0,0,0,0,0,0,0-.2.3-.3.6-.5.9-.2.2-.3.3,0,.6,0,0,0,.3.1.5,0,0,0,0,0,0,0,0,0,0,0,0-.1.1-.3.3-.4.4,0-.1,0-.2,0-.2,0-.2,0-.5-.3-.5,0,0,0-.2-.1-.2,0,0,0,0,0,0,.3-.2.4-.4.4-.7.1-.2.3-.3.4-.5-.2,0-.3-.1-.3-.2,0-.2,0-.4,0-.6,0,0,.1,0,.2,0,.3.2.4-.1.5-.3,0,0,0,0,0,0Z"/>
  <path class="st23" d="M31.9,25.5c0-.2,0-.5,0-.7,0-.2,0-.4.2-.5,0,0,0-.3,0-.5.1-.3.2-.5.4-.7,0-.2.1-.3.2-.5,0,0,0-.1.2-.2,0,.5,0,.9.1,1.4-.4.6-.8,1.1-1.2,1.7Z"/>
  <path class="st4" d="M16.5,4.2c-.3.4-.6.7-1,1.1,0,0,0,0-.1,0,0-.4,0-.7-.2-1.1.2-.2.4-.4.6-.6.3-.3.5-.2.6.2,0,.1,0,.3,0,.5Z"/>
  <path class="st10" d="M22.2,32.2c0-.1,0-.2,0-.2-.2,0-.4,0-.6,0,0-.1.1-.2.2-.3.5-.5,1.1-1,1.6-1.5.1-.1.3-.1.4-.2,0,0,0,0,0,0-.2.3-.3.6-.5.9-.3.3-.5.5-.8.8,0,.1,0,.3-.2.5,0,0-.2,0-.3-.1Z"/>
  <path class="st26" d="M22,2.9c.1-.3.2-.6.3-.8,0-.2.2-.4.5-.4.3,0,.4.3.5.5,0,.3,0,.5,0,.8,0,0,0,0,0,0-.5-.3-.9-.2-1.4,0,0,0,0,0,0,0Z"/>
  <path class="st17" d="M24.3,3.5c0,.1,0,.3.1.4,0,.2.1.4.2.7-.4,0-.8-.1-1.1-.2,0-.5,0-.9,0-1.3,0,0,0,0,0,0,.3.1.5.3.8.4Z"/>
  <path class="st21" d="M14.4,33.2c.2-.2.3-.3.5-.5.2-.1.3-.2.5-.3,0,.2,0,.4,0,.6,0,.2,0,.5,0,.8,0,0-.2,0-.2,0-.5.1-.8,0-.8-.6Z"/>
  <path class="st19" d="M13.3,5.6s0,0,0,0c-.3.3-.6.7-.9,1,0,0-.1,0-.2,0,0-.1.1-.3.2-.4.3-.3.6-.5,1-.8Z"/>
  <path class="st12" d="M21.6,3.6c0-.2,0-.5.4-.6,0,0,0,0,0,0-.1.2-.3.4-.4.6,0,0,0,0,0,0Z"/>
  <path class="st12" d="M13.9,5.2s0,0-.2.1c0,0,0,0,.2-.1Z"/>
  <path class="st26" d="M23.5,3s0,0,0,0c0,0,0,0,0,0,0,0,0,0,0,0,0,0,0,0,0,0Z"/>
  <path class="st12" d="M22,3s0,0,0,0c0,0,0,0,0,0,0,0,0,0,0,0,0,0,0,0,0,0Z"/>
  <path class="st12" d="M14.2,4.9s0,0,0,0c0,0,0,0,0,0Z"/>
  <path class="st23" d="M31.8,25.7s0,0,0,0c0,0,0,0,0,0Z"/>
  <path class="st29" d="M13.1,10.1c.3-.2.7-.5,1-.7.4-.2.7-.4,1.1-.6.2,0,.3-.1.4-.2.3-.1.5-.2.8-.3.6,0,1.2-.2,1.8-.3.2,0,.4,0,.6,0,.4,0,.8.1,1.1.2.8.2,1.5.7,2.1,1.2.2.2.3.3.5.5.2.3.5.5.7.8.2.3.4.5.6.8.2.4.4.8.7,1.3.1-.6.2-1.2.3-1.7,0-.1,0-.2,0-.3.1-.5.2-1.1.3-1.6.2-.2.5-.3.7-.5,0,0,0,0,0,0,0,0,0,0,0,0,.2,0,.3,0,.5,0,.3,0,.5,0,.7,0,.4.1.5.4.4.8-.1.7-.2,1.3-.3,1.9,0,0,0,0,0,.1-.2,1.1-.5,2.2-.7,3.3,0,0,0,0,0,0,0,0,0,0,0,.1,0,0,0,0,0,.1,0,0,0,.2,0,.2,0,.2-.1.5-.2.8-.2.6-.4,1.1-.5,1.7,0,.1,0,.3,0,.5,0,1,.1,1.9.2,2.9,0,.2,0,.5,0,.7,0,0,0,.1,0,.2.1.8.2,1.6.4,2.4.2.8.7,1.4,1.6,1.6.2,0,.4,0,.7,0,.2,0,.4,0,.5.1.3.2.4.4.2.7-.1.2-.3.3-.5.4-.5,0-1,.2-1.6.2-.9,0-1.7-.3-2.4-.7,0,0,0-.1,0-.2-.8-.8-1.1-1.8-1.3-2.9,0-.2,0-.4,0-.6-.1.2-.3.4-.4.5.1-.3.3-.6.5-1,0,.6.1,1,.2,1.5.3,1.8,1.2,2.8,2.9,3.1.7.1,1.5.2,2.2-.2.2-.1.5-.4.4-.6,0-.3-.4-.4-.7-.4-1.2,0-2-.7-2.3-1.8-.2-.8-.3-1.6-.4-2.4-.1-1.2-.2-2.5-.2-3.7,0-.2,0-.5,0-.7.9-2.7,1.5-5.4,1.9-8.1,0-.4,0-.6-.4-.6-.6,0-1.1,0-1.6.4-.2.1-.3.3-.3.5-.1.6-.2,1.1-.3,1.7-.1.7-.3,1.3-.4,2.1-.5-1.2-1.1-2.1-1.8-3-1.8-1.9-4-2.6-6.5-1.7-2,.7-3.5,1.9-4.7,3.6-1.6,2.3-2.1,5-1.6,7.8.4,2.1,1.2,4,2.8,5.5,1.6,1.6,3.5,2.1,5.8,1.5,1.9-.5,3.2-1.6,4.3-3.2,0-.1.2-.2.3-.3,0,0,0,.2,0,.3-.2.3-.4.6-.7.9-.3.3-.6.6-.9.9-.1.1-.3.2-.4.3-.6.4-1.2.7-1.8,1,0,0-.1,0-.2,0-1.3.4-2.6.5-3.9.1-.5-.2-1-.5-1.4-.7-.2-.1-.4-.3-.6-.4,0,0-.2-.1-.3-.2-.2-.2-.4-.4-.6-.6-2.3-2.8-3-5.9-2.3-9.4,0,0,0-.2,0-.3.2-.4.3-.9.5-1.3.2-.4.4-.9.6-1.4.3-.4.5-.7.7-1.1,0,0,0,0,0,0,0,0,0,0,0,0,.3-.3.5-.6.8-.9.2-.2.3-.4.5-.6Z"/>
  <path class="st3" d="M12.2,25.1c.2.2.4.4.6.6,0,1.2-.4,2.3-1.1,3.3,0-.1-.2-.2-.2-.3,0-.1,0-.2,0-.3,0-.4,0-.8,0-1.2,0-.6,0-1.1,0-1.7.1,0,.3-.2.5-.3Z"/>
  <path class="st8" d="M11.7,25.4c0,.6,0,1.1,0,1.7,0,.4,0,.8,0,1.2,0,.1,0,.2,0,.3,0,.1,0,.2.2.4-.2.4-.4.9-.8,1.2,0,0,0,0,0,0,0,0,0-.2,0-.3,0-.2,0-.3,0-.5,0-.7.1-1.4.2-2.1,0-.2,0-.4,0-.6,0-.5.2-.9.6-1.3Z"/>
  <path class="st11" d="M4,18.4s0,0,0,0c0,0,0,0,0,0,0,0,0,0,0,0Z"/>
  <path class="st11" d="M12.7,32.5s0,0,0,0c0,0,0,0,0,0,0,0,0,0,0,0Z"/>
  <path class="st4" d="M28.1,25.7c-.9-.2-1.4-.8-1.6-1.5-.2-.8-.3-1.6-.4-2.4.3-.2.5,0,.8,0,0,0,.1.2.1.2,0,.3,0,.7,0,1,0,.2,0,.3.3.2.3,0,.4.1.4.3,0,.3,0,.6,0,.9,0,0,0,.2,0,.2.3.3.3.6.3,1Z"/>
  <path class="st4" d="M26.1,21.4c0-.2,0-.4,0-.7,0-1-.1-1.9-.2-2.9,0-.2,0-.3,0-.5.2-.5.3-1.1.5-1.7.2.1.4.3.7.5,0,0,0,.2-.1.3-.3.3,0,.7-.1,1.1,0,.2-.1.4-.2.7,0,.2-.1.3-.1.5,0,.5-.1,1-.3,1.4,0,.4-.1.8-.2,1.2Z"/>
  <path class="st4" d="M26.7,14.5c.2-1.1.4-2.2.7-3.3,0,0,0,.2,0,.2.6.2.6.6.3,1.1-.2.2-.3.6-.4.9,0,.4,0,.8-.4,1,0,0-.1,0-.2,0Z"/>
  <path class="st4" d="M27.5,11.1c0-.6.2-1.2.3-1.9.2,0,.4,0,.5.3,0,0,.2.2.3.2-.5.2-.6.6-.8,1,0,.1-.2.3-.4.4Z"/>
  <path class="st4" d="M27.4,8.4c-.2,0-.4,0-.7,0,.2,0,.4-.1.7-.2,0,0,0,0,0,0,0,0,0,.1,0,.2Z"/>
  <path class="st4" d="M27.4,8.2c0,0,0-.1.1-.2,0,0,0,0,0,0,0,0,0,0-.2,0,0,0,0,0,0,0Z"/>
  <path class="st4" d="M26.6,15c0,0,0-.1,0-.2,0,0,0,.1,0,.2Z"/>
  <path class="st4" d="M26.7,14.7s0,0,0-.1c0,0,0,0,0,.1Z"/>
  <path class="st4" d="M26.1,8.5s0,0,0,0c0,0,0,0,0,0Z"/>
  <path class="st27" d="M22.3,24.7c.2-.3.4-.6.6-.8.4,0,.5.1.3.5-.2.4-.4.8-.5,1.2-.1.3-.1.7-.2,1,0,0,0,.1,0,.1.4,0,.3.4.4.7.2-.1.4-.2.5-.4.2.2.3.5.2.8-.2.4-.1.8.1,1.2.1-.1.3-.2.5-.4,0,.2,0,.3,0,.4,0,.4,0,.7-.1,1.1,0,.1,0,.3-.1.4-.2.3-.3.5,0,.8,0,0,0,.2,0,.4,0,0-.1,0-.1,0,0,0-.2-.2-.3-.3,0-.1-.1-.2-.2-.4.1-.3.3-.6.5-.9,0,0,0,0,0,0-.1,0-.3.1-.4.2-.5.5-1.1,1-1.6,1.5,0,0-.2.2-.3.3,0,0-.1,0-.2,0,0-.1,0-.2,0-.3.1,0,.3-.2.4-.3.2-.2.3-.4.5-.5.5-.2.5-.7.5-1.1,0-.2,0-.4,0-.6,0-.2-.1-.4,0-.6,0,0,0-.2,0-.2-.3-.3-.5-.3-.8,0,0,0,0,0,0,0-.1-.1-.2-.3-.3-.4,0,0-.1-.2-.1-.2,0-.2,0-.5.1-.7.2-.4.5-.8.7-1.3.2-.4.3-.8.5-1.1-.2,0-.2-.1-.3-.2Z"/>
  <path class="st17" d="M24.9,26.6c.7.4,1.5.6,2.4.7,0,.2,0,.4,0,.7,0,.1.1.3.2.5-.1.5,0,1,.2,1.5-.2.4-.5.7-.7,1.1,0,0,0,0,0,0-.2-.6,0-1.2-.5-1.6,0-.3.1-.5.2-.7,0,0,0-.2,0-.2,0,0-.1,0-.2,0-.3.2-.3.6-.3.9,0,0,0,.2,0,.3h-.6c0,0,0-.2,0-.3,0-.4,0-.8,0-1.2,0,0,0,0,0,0,.3-.2.1-.6.2-.9,0-.2,0-.3-.2-.3-.1,0-.3,0-.4-.1,0,0,0-.2,0-.4Z"/>
  <path class="st11" d="M34.8,18.8s0,0,0,0c0,0,0,0,0,0,0,0,0,0,0,0Z"/>
  <path class="st25" d="M29.3,9.5c0,.3-.1.6.2.9,0,0,0,0,0,0-.1.5.1.9.5,1.3,0,0,0,.2,0,.2-.3.1-.3.4-.3.8,0,0,0,0,0,0-.3.2-.3.5-.4.8,0,0-.1,0-.2.1-.2.3-.4.5-.6.8,0,0,0,.2.1.3,0,.2.2.5.2.7,0,.3-.1.5-.2.8,0,0,0,0,0,0-.1,0-.3.1-.4.2,0-.3.2-.5.2-.8,0,0,0-.2,0-.3-.4-.4-.3-.8,0-1.2.2-.2.3-.5.5-.8,0,0,0-.1,0-.2,0,0,0,0,0-.1.1-.4.1-.9.5-1.2.3-.3.3-.8,0-1,0,0-.1,0-.2,0,.2-.5,0-1,.4-1.5Z"/>
  <path class="st7" d="M28.1,16.6c.1,0,.2-.2.4-.2,0,.6-.3,1.2-.3,1.7,0,.4.2.8,0,1.3,0,0,0,0,0,0,0,0-.1.1-.2.2,0,0-.1,0-.1,0,0,0,0-.1,0-.2.3-.3,0-.6,0-.9,0-.5,0-.9.2-1.4,0-.2,0-.3,0-.5,0,0,0,0,0-.1Z"/>
  <path class="st14" d="M11.7,11.7c-.2.4-.5.7-.7,1.1-.2-.3-.2-.5,0-.8.1-.1.1-.5,0-.6-.2-.3-.3-.6-.3-1,0-.1,0-.3-.1-.3-.3,0-.2-.2-.2-.4,0-.2,0-.4,0-.6,0,0,0-.2,0-.2.3-.3.3-.9.8-1.1.2-.1.4-.3.7-.5,0,.2-.1.3-.2.4,0,.1-.2.2-.2.3,0,.4-.1.8-.2,1.2.3,0,.6,0,1,0-.1.2-.2.2-.3.3-.2.2-.2.7,0,.8.3.3.3.5,0,.8-.1.2-.1.4-.2.6,0,0,0,0,0,0,0,0,0,0,0,0Z"/>
  <path class="st19" d="M11.8,11.5c0-.2,0-.4.1-.6.2-.4.2-.5,0-.8-.2-.1-.1-.5,0-.8,0,0,.2-.2.3-.3-.4,0-.7,0-1,0,0-.4.1-.8.2-1.2,0-.1.1-.2.2-.3,0-.1.1-.3.2-.4,0-.1.2-.2.3-.4,0,.2,0,.5,0,.8.2,0,.3,0,.4.3,0,.3.2.4.7,0,0,.2,0,.4,0,.6,0,.3-.2.6-.2.8,0,.2,0,.4-.1.6.1,0,.2.1.3.2-.2.2-.3.4-.5.6-.3.3-.5.6-.8.9Z"/>
  <path class="st0" d="M30.5,18.3s0,0,0,0c0,0,0,0,0,0,0,0,0,0,0,0Z"/>
  <path class="st23" d="M28.3,19.5s0,0,0,0c.2-.4,0-.8,0-1.3,0-.6.2-1.1.3-1.7,0,0,0,0,0,0,.2-.4.5-.9.4-1.2-.2-.5,0-1,0-1.5,0,0,.1,0,.2-.1.2-.3.3-.5.4-.8,0,0,0,0,0,0,0,0,.2,0,.3,0-.3.3-.4.6-.2,1,0,.2.1.4-.2.5-.1,0-.1.3-.2.5,0,0,0,.2,0,.3-.5.7-.5,1.5-.6,2.3,0,0,0,0,0,0-.1.4,0,.7.5.6.5,0,.6,0,.4.5,0,.3-.1.6,0,.8.1.5.2.5.7.3.5.2.7.6.5,1.1,0,.2,0,.4.2.4.1,0,.2.1.3.2,0,0,.2-.1.3-.2,0,.4-.4.7,0,1-.4.6-.4,1.1,0,1.1,0,.2.2.4.3.6-.1.2-.3.5-.4.7,0,0-.1,0-.2.1,0,0-.1-.2-.1-.2,0-.1,0-.2,0-.4-.3,0-.4,0-.4-.3,0-.2-.1-.3-.1-.5,0-.2.1-.5.2-.7,0,0-.2,0-.2,0-.1-.2-.2-.4-.3-.6,0-.1-.2-.3-.2-.4-.1-.5-.4-.6-.8-.2,0-.2.1-.3.1-.4,0-.1,0-.3-.1-.3-.4-.3-.5-.4-.4-.9,0-.1,0-.3,0-.4,0,0-.2,0-.3,0-.1,0-.3.2-.4.3Z"/>
  <path class="st23" d="M29.8,17c.2,0,.3-.1.4-.2,0,0,.1.1,0,.2,0,.1-.2.3-.3.4,0,0-.2,0-.4.2,0-.2.1-.4.2-.5Z"/>
  <path class="st23" d="M30.1,12.7c0-.1,0-.2.2-.3,0,.1,0,.2-.2.3Z"/>
  <path class="st24" d="M15.1,27.1c1.3.4,2.6.3,3.9,0-.1.3-.4.6-.5.9-.2.9-.3,1.8-.9,2.5-.2.7-.3,1.4-.6,2.1,0,.2-.4.4-.6.5,0-.2-.1-.5,0-.7.2-.3,0-.5-.1-.7-.1.1-.3.2-.4.3,0,0-.2.1-.3.2,0-.1,0-.3,0-.3.3-.3.4-.6.3-1,0-.3,0-.6.2-.8.4-.4.5-.9.4-1.4,0,0,0-.1-.1-.2,0,0-.2,0-.2.2-.1.2-.2.4-.3.7-.2.3-.4.4-.8.2,0-.1,0-.3.1-.4.2-.2.2-.4.1-.6,0-.4-.2-.8-.2-1.3Z"/>
  <path class="st14" d="M17.6,30.4c.6-.7.7-1.6.9-2.5,0-.3.3-.6.5-.9,0,0,.1,0,.2,0,.1.3.2.5.3.7.2,0,.5,0,.7,0h0c0,.2-.2.3-.2.5,0,.2-.2.5-.2.7,0,.2,0,.5-.2.6-.1.2,0,.4.1.5.2,0,.4,0,.6.2.3,0,.6.2.8.3,0,.2-.2.3-.2.4-.2.4-.3.8,0,1.2,0,0,0,.1,0,.2-.3-.3-.5-.6-.8-.9,0,0,0-.1,0-.2,0,0,0,0,0-.1,0-.2-.2-.3-.3-.5-.1,0-.2.1-.3.2-.2.2-.3.4-.5.6-.2.2-.4.2-.8-.2-.1,0-.2,0-.3.1,0-.2-.2-.4-.3-.6Z"/>
  <path class="st3" d="M15.1,27.1c0,.4.2.9.3,1.3,0,.2,0,.4-.1.6,0,.1,0,.3-.1.4.4.2.6,0,.8-.2.1-.2.2-.4.3-.7,0,0,.1-.1.2-.2,0,0,.1.1.1.2,0,.5,0,1.1-.4,1.4-.3.2-.3.5-.2.8,0,.4,0,.7-.3,1,0,0,0,.2,0,.3,0,0,0,0-.1.1-.2.1-.3.2-.5.3,0-.2,0-.3-.1-.6-.1.1-.2.2-.4.3-.2-.5.1-.8.3-1.1,0,0,.1,0,.2.1,0-.5.5-.9.3-1.5-.3.2-.5.5-.7.7,0,0,0,0,0,0,0-.9.3-1.7.1-2.7-.2.2-.3.3-.4.4,0,0,0,.2-.2.3,0,0-.2.1-.3.2,0,0,0-.2,0-.3,0-.7,0-1.3,0-2,.5.2,1,.4,1.4.6Z"/>
  <path class="st14" d="M15.9,32c.1-.1.2-.2.4-.4.1.2.4.4.1.7-.1.1,0,.4,0,.7,0,.1-.2.2-.3.3,0-.3-.3-.4-.1-.7,0-.1,0-.4,0-.6Z"/>
  <path class="st8" d="M19.5,30.6c0,0,.1-.2.2-.2,0,0-.1.1-.2.2Z"/>
  <path class="st8" d="M20,30.9s0,0,0,.1c0,0,0,0,0-.1Z"/>
  <path class="st4" d="M19.9,8.2c-.4,0-.7-.1-1.1-.2.2-.2.5-.4.7-.5,0,0,.2-.2.2-.3,0-.3.2-.4.5-.2.1-.2.2-.3.3-.4.3-.2.2-.5,0-.7-.2-.3-.3-.7-.5-1,.4-.3.8-.5,1.2-.8.1,0,.2-.2.2-.4.1-.2.3-.4.4-.6,0,0,0,0,0,0,.5-.1.9-.2,1.4,0,0,0,0,0,0,0,0,.4,0,.9,0,1.3,0,.8,0,1.6-.1,2.4,0,0,0,.1,0,.2-.2.3-.3.5,0,.8,0,0,0,0,0,.1-.2,0-.4,0-.6,0,0,0-.1,0-.1,0-.1-.2-.3-.4-.3-.7,0-.3-.2-.3-.4-.2-.1,0-.2.1-.4.2,0-.3,0-.5-.1-.7-.2.1-.3.3-.2.5,0,.1,0,.3,0,.4-.3.2-.5.5-.8.6-.2,0-.4,0-.4.4Z"/>
  <path class="st17" d="M20,8.3c0-.3.2-.3.4-.4.3-.1.5-.4.8-.6,0,0,0,0,.1,0,.2,0,.5,0,.5,0,0,.2,0,.4,0,.6,0,.1.2.3.3.4.2.3.3,0,.5,0,.2.5.1.6-.2.9,0,0-.1.1-.2.2-.6-.5-1.3-.9-2.1-1.2Z"/>
  <path class="st17" d="M23.8,11.4c-.2-.2-.4-.5-.5-.8.2,0,.4,0,.6,0,0,0,.2,0,.2-.2,0-.2,0-.4,0-.5,0-.4,0-.4-.3-.5,0,0,0,0,0,0,0-.1,0-.3,0-.4.1,0,.3,0,.4.2,0,0,.1.3,0,.4,0,.3,0,.6-.1.9,0,0,.1.1.2.1.1,0,.2,0,.4,0,0,.1,0,.2,0,.3-.4,0-.7,0-1,0,0,.2,0,.3,0,.4Z"/>
  <path class="st9" d="M23.8,9.6c.4,0,.4,0,.3.4,0,.2,0,.4,0,.5,0,.1-.1.2-.2.2-.2,0-.4,0-.6-.1-.2-.2-.4-.5-.7-.7,0,0,.2,0,.2,0,.4.2.5.2.8-.1,0,0,0-.1.2-.2Z"/>
  <path class="st31" d="M20.1,4.8c.2.3.3.7.5,1,.1.3.3.5,0,.7-.1,0-.2.3-.3.4-.3-.2-.4-.1-.5.2,0,0-.1.2-.2.3-.2.2-.5.3-.8.5-.2,0-.3,0-.5,0,0-.2.2-.5.3-.7-.1-.1-.4,0-.6.3,0-.1-.2-.2-.2-.3,0,0-.2,0-.3.1,0-.3,0-.5,0-.8,0-.3,0-.5-.4-.3,0,0,0,0,0-.1.1-.1.3-.2.5-.3,0,0,.1.2.2.2.4,0,.3.3.3.5,0,0,0,.1,0,.2.1-.1.3-.2.4-.4,0,0,0,0,0,0,0,0,0,0,0,0,.2-.2.3-.4.5-.5.4-.4.8-.7,1.2-1.1,0,0,0,0,0,0Z"/>
  <path class="st31" d="M17.8,5.2c0,.3,0,.6-.4.7-.2-.4,0-.6.4-.7Z"/>
  <path class="st28" d="M21,32.2c0,0,0-.1,0-.2-.4-.4-.3-.8,0-1.2,0-.1.1-.3.2-.4-.3-.1-.6-.2-.8-.3-.2,0-.4,0-.6-.2-.2-.1-.2-.3-.1-.5,0-.2.1-.4.2-.6,0-.2.2-.5.2-.7,0-.1.2-.2.2-.4h0c-.2,0-.5,0-.7,0,0-.2-.2-.4-.3-.7.6-.4,1.2-.7,1.8-1.1.1,0,.2-.2.4-.3,0,.2.1.4.2.6,0,0,0,.3,0,.3-.4.3-.5.7-.8,1.1-.2.4-.5.7-.6,1.1,0,.3,0,.7,0,1,0,0,0,.1.1.1.4,0,.8,0,1.1,0,0,.7,0,1.3-.1,2,0,.1-.1.3-.2.4,0,0,0,0-.1,0Z"/>
  <path class="st10" d="M21.1,32.2c0-.1,0-.3.2-.4,0,0,0,.2,0,.3,0,0-.1,0-.2,0Z"/>
  <path class="st7" d="M18.3,6.4s0,0,0,0c0,0,0,0,0,0Z"/>
  <path class="st30" d="M23,23.5c0,0-.2.2-.3.3-1.1,1.5-2.4,2.7-4.3,3.2-2.2.6-4.1,0-5.8-1.5-1.6-1.5-2.4-3.4-2.8-5.5-.5-2.8,0-5.4,1.6-7.8,1.2-1.7,2.7-2.9,4.7-3.6,2.5-.9,4.7-.2,6.5,1.7.8.8,1.4,1.8,1.8,3,.1-.7.3-1.4.4-2.1.1-.6.2-1.1.3-1.7,0-.2.2-.4.3-.5.5-.3,1-.5,1.6-.4.4,0,.5.2.4.6-.4,2.8-1,5.5-1.9,8.1,0,.2,0,.5,0,.7,0,1.2,0,2.5.2,3.7,0,.8.2,1.6.4,2.4.3,1.1,1.1,1.8,2.3,1.8.3,0,.6,0,.7.4,0,.2-.2.5-.4.6-.7.4-1.4.3-2.2.2-1.7-.3-2.6-1.2-2.9-3.1,0-.5-.1-1-.2-1.5-.2.3-.4.6-.6,1,0,0,0,0,0,0M14.7,10.9s0,0-.1.1c-3.2,3.6-3,8.5-1,11.8.7,1.1,1.5,2.1,2.8,2.7,1.2.5,2.2.4,3.1-.4.3-.3.7-.6.9-1,1.3-1.8,2.1-3.9,2.9-6,0,0,0-.2,0-.3-.2-1.3-.4-2.5-.9-3.7-.6-1.7-1.6-3.1-3-4.2-1.4-1-3.5-.6-4.5.9,0,0,0,0,0,0Z"/>
  <path class="st10" d="M21.3,31.8c0-.6,0-1.3,0-2-.3,0-.7,0-1.1,0,0,0-.1,0-.1-.1,0-.3,0-.7,0-1,0-.5.3-.8.6-1.1.2-.4.4-.8.8-1.1,0,0,0-.2,0-.3,0-.2,0-.4-.1-.6.3-.3.5-.6.8-.9.1,0,.2,0,.4.2-.2.4-.3.8-.5,1.1-.2.4-.5.8-.7,1.3,0,.2-.1.5-.1.7,0,0,0,.2.1.2,0,.1.2.2.3.4,0,0,0,0,0,0,.2-.4.5-.3.8,0,0,0,0,.2,0,.2-.1.2,0,.4,0,.6,0,.2,0,.4,0,.6,0,.4,0,.8-.5,1.1-.2,0-.3.4-.5.5-.1.1-.2.2-.4.3Z"/>
  <path class="st9" d="M23.8,11.5c0-.1,0-.2,0-.4.3,0,.6,0,1,0,0,.5-.2,1.1-.3,1.7-.3-.5-.5-.9-.7-1.3Z"/>
  <path class="st19" d="M11.7,11.6s0,0,0,0c0,0,0,0,0,0Z"/>
  <path class="st7" d="M29,13.7c0,.5-.2,1,0,1.5,0,.3-.2.8-.4,1.2,0-.3.2-.5.2-.8,0-.2-.1-.5-.2-.7,0-.1-.2-.3-.1-.3.2-.3.4-.5.6-.8Z"/>
  <path class="st7" d="M29.6,12.8c-.1.3-.2.6-.4.8,0-.3,0-.6.4-.8Z"/>
  <path class="st29" d="M14.8,10.9c1-1.5,3.1-1.9,4.5-.9,1.5,1.1,2.4,2.5,3,4.2.5,1.2.8,2.4.9,3.7,0,0,0,.2,0,.3-.7,2.1-1.6,4.2-2.9,6-.3.4-.6.7-.9,1-.9.8-1.9,1-3.1.4-1.2-.6-2.1-1.5-2.8-2.7-2-3.3-2.1-8.3,1-11.8,0,0,0,0,.2-.1,0,0,0,0,0,.1-.4.5-.8,1-1.1,1.6-.5.7-.8,1.5-1,2.4-.4,1.4-.4,2.9-.2,4.3,0,.3,0,.5.2.8.4,1.4,1,2.8,2,3.9.6.7,1.3,1.3,2.2,1.6.2,0,.3,0,.4.1.9.2,1.6-.1,2.2-.8.5-.5.9-1,1.3-1.6.2-.3.3-.6.5-.9.2-.3.3-.7.5-1,.5-1.1.9-2.1,1.3-3.2,0-.2,0-.4,0-.6-.2-1-.5-2-.7-3.1-.2-.4-.3-.8-.5-1.2-.4-.7-.8-1.3-1.2-2-.4-.4-.8-.9-1.3-1.3-1.2-.9-2.4-.9-3.6,0-.2.1-.3.3-.5.4-.1,0-.3.2-.4.2Z"/>
  <path class="st14" d="M12.6,15c.2-.8.5-1.6,1-2.3,0,.4.1.8.2,1.1,0,.3.1.4.4.3.1,0,.2,0,.3,0,.2,0,.4.2.6.3-.3.6-.1,1.2-.2,1.8,0,0,0,0,0,0,.1-.1.3-.3.4-.4.4.2,0,.6.3.9.2-.2.4-.3.5-.4.3-.3.5-.3.6.2,0,0,0,0,0,0,.1,0,.3,0,.4,0,0,0,.1.2.2.3.3-.3.3-.6,0-1-.3-.4-.3-.4.1-.6,0,.1,0,.2,0,.3,0,.1,0,.3.1.4.2-.2.2-.3.3-.4,0,0,0,0,.1,0,0,.2.2.3.2.5,0,.4-.2.7-.3,1.1-.2.5-.2.9.2,1.4.3-.4,0-1.1.6-1.3.2.2,0,.4,0,.6,0,.2-.1.4.2.5,0,0,.1.1.1.2,0,.4-.1.6-.3.9,0,.1-.2.4-.2.4.3.3.1.6,0,.9,0,.3-.1.5.2.6,0,0,0,0,.1.1.2.3,0,.6,0,.9,0,.3,0,.5-.3.7-.1.1-.1.3-.3.5,0,.1-.2.2-.3.2,0-.4-.1-.4-.5-.3,0-.3,0-.6,0-.9-.1-.4,0-.9-.2-1.3,0-.1,0-.4.1-.6.1-.2.3-.4.5-.6,0-.1,0-.3,0-.4,0,0-.2,0-.3,0,0,0,0,0-.1,0,0-.1,0-.3,0-.4-.4-.5-.8-1-.9-1.7,0,0,0,0,0,0-.3.2-.6.2-.8,0,0,0,0,0,0,0-.2.2-.5,0-.6,0-.2.2-.4.4-.7.6,0-.2,0-.4,0-.5,0-.1,0-.2,0-.4-.1,0-.2.1-.3.2-.1,0-.2.2-.4.2,0,0,0,0,0,0,0-.2,0-.3,0-.5,0-.3,0-.5,0-.8,0-.3,0-.5.3-.8,0,0,0-.2,0-.3-.1,0-.2,0-.3,0-.3.1-.5.3-.8.4,0,0-.2.2-.3.1,0,0-.1-.2-.2-.3,0,0,0-.2-.1-.3Z"/>
  <path class="st8" d="M12.6,15c0,0,0,.2.1.2,0,.1,0,.2.2.3,0,0,.2,0,.3-.1.3-.1.5-.3.8-.4,0,0,.2,0,.3,0,0,0,0,.2,0,.3-.2.2-.3.5-.3.8,0,.3,0,.5,0,.8,0,.2,0,.3,0,.5,0,0,0,0,0,0,.1,0,.2-.2.4-.2.1,0,.2-.1.3-.2,0,.1,0,.2,0,.4,0,.1,0,.3,0,.5.3-.2.5-.4.7-.6.2.2.4.3.6,0,0,0,0,0,0,0,.3.2.6.1.8,0,0,0,0,0,0,0,0,.7.5,1.2.9,1.7,0,.1,0,.3,0,.4,0,0,0,0,.1,0,.1,0,.3,0,.3,0,0,.1,0,.3,0,.4-.1.2-.4.4-.5.6,0,.2-.2.4-.1.6.3.4.1.9.2,1.3,0,.3,0,.6,0,.9,0,0,0,0,0,0-.3.2-.6.4-.9.6,0-.2,0-.3,0-.5,0-.6,0-.9-.6-.8-.1-.1-.2-.2-.4-.3,0,0,0,0,0-.1.2-.4,0-.9.2-1.3.1-.2,0-.6,0-.7-.1-.2-.2-.3-.2-.5,0-.3.1-.6.2-.9,0-.3.2-.6.2-1,0,0,0-.1,0-.2,0,0,0,0,0,0,0,0-.1.1-.2.2-.2.2-.3.4-.4.5-.2.3-.3.2-.4,0,0,0-.1-.2-.2-.2-.4,0-.8-.1-1,.3,0,0,0,.1-.1.2-.2.4-.7.5-1,.4-.4-.1-.5,0-.7.4-.3-1.4-.2-2.9.2-4.3Z"/>
  <path class="st18" d="M12.4,19.4c.1-.3.2-.5.7-.4.3.1.8,0,1-.4,0,0,0-.1.1-.2.2-.4.7-.3,1-.3,0,0,.1.1.2.2.1.3.2.4.4,0,.2-.2.3-.4.4-.5,0,0,.1-.1.2-.2,0,0,0,0,0,0,0,0,0,.1,0,.2,0,.3-.2.6-.2,1,0,.3-.1.6-.2.9,0,.2,0,.3.2.5.1.2.1.5,0,.7-.2.4,0,.9-.2,1.3,0,0,0,.1,0,.1.2,0,.3.2.4.3-.3.3-.5.5-.8.7,0,0,0,0-.1.1-.3.1-.7.3-1,.4-1-1.1-1.6-2.4-1.9-3.9,0-.2-.1-.5-.2-.8Z"/>
  <path class="st28" d="M17.9,23.4c.4-.1.5,0,.5.3,0,.1,0,.2,0,.3.5-.3,1.1-.5,1.2-1.2,0,0,.1-.1.1-.2.2-.3.4-.7.5-1,0-.3.2-.6-.1-.8-.2-.2-.4-.4-.4-.8,0-.4,0-.9.2-1.3,0-.2.2-.4.3-.6.2-.5,0-.7-.4-.7,0-.2,0-.3,0-.5,0-.3.2-.7,0-1,0,0,0-.3,0-.4,0-.4,0-.8.1-1.3-.4,0-.6.3-.8.6-.2,0-.4,0-.5,0-.1,0-.3,0-.4,0-.2.2-.4.2-.7,0,0,0,0,0,0-.1,0,0,0-.2-.1-.3,0,0-.2.1-.2.2,0,.2,0,.5-.1.7,0,0,0,.1,0,.2,0-.4-.3-.8,0-1.2.1-.1,0-.3-.1-.4.1-.2.2-.4.3-.4.4,0,.5-.3.6-.5,0,0,.1-.1.2-.1,0,0,.1,0,.2.1.1.2,0,.4-.1.5-.3.2-.1.6-.1.8,0,0,0,0,0,0,.2,0,.5,0,.6,0,.5-.4,1-.8,1.5-1.2,0,0,0,0,0,0,0,.2,0,.5,0,.7.3-.1.4,0,.4.4,0,.3,0,.6,0,.8,0,.5.3.9.6,1.4.2.3.2.8,0,1.1-.3.4-.5.8-.3,1.3,0,0,0,.2,0,.2q-.1.8.6,1.1s0,0,0,0c0,.6-.4,1.2-.8,1.7-.2.2-.2.5,0,.7,0,0,.3,0,.5,0,0,0,.1,0,.2,0-.1.3-.3.6-.4.8-.4.5-.8,1.1-1.3,1.6-.6.6-1.3.9-2.2.7,0-.2,0-.4.1-.6.2-.6.4-1.1.6-1.7,0,0,0,0,0,0Z"/>
  <path class="st24" d="M16.8,14c.2,0,.3.2.1.3-.4.4-.1.8,0,1.2,0,0,0-.1,0-.2,0-.2,0-.5.1-.7,0,0,.1-.1.2-.2,0,0,0,.2.1.3,0,0,0,0,0,.1.2.1.5,0,.7,0,0,0,.2,0,.4,0,.2,0,.3,0,.5.1-.2.3-.5.5-.8.8,0,0,0,0-.1,0,0-.1-.2-.2-.2-.3,0-.2-.2-.3-.3,0-.4.2-.4.3-.1.6.3.4.3.7,0,1,0-.1-.1-.2-.2-.3,0,0-.2,0-.4,0,0,0,0,0,0,0-.1-.4-.3-.5-.6-.2-.2.2-.4.3-.5.4-.3-.3,0-.7-.3-.9-.1.1-.3.3-.4.4,0,0,0,0,0,0,0-.6-.1-1.2.2-1.8-.2,0-.4-.2-.6-.3-.1,0-.2,0-.3,0-.3,0-.4,0-.4-.3,0-.4,0-.7-.1-1.2.4-.5.7-1.1,1.1-1.6.2.2.2.3,0,.5-.2.2,0,.5,0,.7,0,.1.3.2.4.4.1,0,.3-.2.4-.3,0,.4-.6.6-.2.9.4.4.5.3.8.4-.4.3-.1.6,0,1,.2-.2.3-.4.4-.5Z"/>
  <path class="st12" d="M21.2,22.5c0,0-.1,0-.2,0-.2,0-.4,0-.5,0-.1-.2-.2-.4,0-.7.4-.5.7-1,.8-1.7,0,0,0,0,0,0q-.7-.3-.6-1.1c0,0,0-.2,0-.2-.2-.5,0-.9.3-1.3.3-.3.3-.7,0-1.1-.3-.4-.5-.9-.6-1.4,0-.3,0-.5,0-.8,0-.4,0-.5-.4-.4,0-.2,0-.4,0-.7.1-.1.2-.2.3-.3.1,0,.3-.1.4-.2,0,.1,0,.3,0,.4,0,0,0,0,0,0,0,0,0,.1,0,.2,0,0,.2,0,.2,0,.2,0,.3-.1.5-.2,0,.2,0,.3,0,.5,0,0,0,0,0,0,.1-.1.2-.2.4-.3.2.4.3.7.4,1.1-.1.2-.2.4-.3.5-.1.3,0,.5.1.7.1.4,0,.9-.3,1.2-.2.2-.3.4-.3.7,0,.2,0,.3,0,.5,0,.1,0,.3.1.4,0,.2.1.4.1.6,0,0,0,.2,0,.2.3.2,0,.4,0,.5,0,.1-.2.2-.3.4-.3.4-.2.9,0,1.1-.2.3-.3.6-.5,1Z"/>
  <path class="st5" d="M16.8,14c-.1.2-.3.3-.4.6-.2-.4-.4-.7,0-1-.4,0-.4,0-.8-.4-.4-.3.2-.5.2-.9-.2.1-.3.2-.4.3-.1-.1-.3-.2-.4-.4-.1-.2-.3-.4,0-.7.1-.2.1-.3,0-.5,0,0,0,0,0-.1,0,0,0,0,0,0,.1,0,.2-.2.4-.2.2,0,.3,0,.4.1,0,.1-.2.2-.1.3,0,.1.1.3.2.3.2,0,.4,0,.5-.2.2-.4.2-.3.4,0,0,0,0,.1.2.2.3.2.3.3,0,.5-.1.1-.1.2,0,.4,0,0,.1.2,0,.3-.2.3,0,.4.1.6,0,0,.2,0,.2,0,.2-.2.5-.5.7-.7,0,0,0,0,.1,0,.2,0,.4,0,.6,0,.1,0,.3,0,.4.2,0,0,0,.2,0,.3,0,.1-.1.2-.2.3,0,0,0,0,.1,0,.3-.3.7-.7,1-1v.9c-.5.4-1,.8-1.5,1.2-.1.1-.4,0-.6,0,0,0,0,0,0,0,0-.3-.2-.6.1-.8.2-.1.3-.3.1-.5,0,0-.1-.1-.2-.1,0,0-.1,0-.2.1-.1.2-.2.6-.6.5,0,0-.2.2-.3.4Z"/>
  <path class="st16" d="M18.1,12.5s0,0-.1,0c0,0-.1,0-.2,0,0-.4,0-.8,0-1.1.1-.4,0-.7-.4-1-.1.3-.4.4-.7.3,0,0,0,0-.1,0-.2,0-.3.1-.5.2,0-.2,0-.3,0-.4-.2,0-.4-.1-.6-.2,1.2-.9,2.4-.9,3.6,0,.5.4.9.8,1.3,1.3-.2.1-.4.2-.6.3-.3.2-.6.3-.7,0-.3.2-.7.3-1,.4,0,0-.1.2-.2.3Z"/>
  <path class="st27" d="M21.7,21.5c-.3-.2-.3-.7,0-1.1,0-.1.2-.2.3-.4,0-.2.3-.3,0-.5,0,0,0-.1,0-.2,0-.2,0-.4-.1-.6,0-.1-.1-.3-.1-.4,0-.2,0-.3,0-.5,0-.3,0-.5.3-.7.4-.3.4-.8.3-1.2,0-.2-.2-.4-.1-.7,0-.2.2-.3.3-.5.3,1,.5,2,.8,3,0,.2,0,.4,0,.6-.4,1.1-.9,2.1-1.3,3.2Z"/>
  <path class="st3" d="M14.5,24c.3-.2.7-.3,1-.4,0,0,0,0,.1-.1.3-.2.5-.4.8-.7.6,0,.6.2.6.8,0,.1,0,.3,0,.5,0,.5-.2,1-.3,1.5-.9-.3-1.6-.9-2.2-1.6Z"/>
  <path class="st20" d="M18.1,12.5c0,0,0-.2.2-.3.3-.2.6-.3,1-.4.2.4.4.2.7,0,.2-.1.4-.2.6-.3.4.6.8,1.3,1.2,2-.1.1-.2.3-.4.4,0,0,0,0,0,0,0-.1,0-.3,0-.5-.2,0-.4.2-.5.2,0,0-.2,0-.2,0,0,0,0-.1,0-.2,0,0,0,0,0,0,0-.1,0-.3,0-.4-.1,0-.3,0-.4.2-.1,0-.2.2-.3.3,0,0,0,0,0,0,0-.3,0-.5,0-.9-.3.4-.7.7-1,1,0,0,0,0-.1,0,0-.1.1-.2.2-.3,0-.1.1-.3,0-.3,0,0-.2-.1-.4-.2-.2,0-.4,0-.6,0Z"/>
  <path class="st20" d="M15.7,10.2c.2,0,.4.1.6.2,0,.1,0,.3,0,.4.2,0,.3-.1.5-.2,0,0,0,0,.1,0,.3.1.5,0,.7-.3.5.3.5.6.4,1,0,.4,0,.8,0,1.1,0,0,0,0,.1,0-.2.2-.4.5-.6.7,0,0-.2,0-.2,0-.1-.2-.3-.4-.1-.6,0,0,0-.2,0-.3-.2-.1-.2-.2,0-.4.2-.2.2-.3,0-.5,0,0-.1,0-.2-.2-.2-.3-.3-.3-.4,0-.1.2-.3.3-.5.2-.1,0-.2-.2-.2-.3,0,0,0-.2.1-.3-.2,0-.3,0-.4-.1.1-.1.3-.3.5-.4Z"/>
  <path class="st14" d="M16.8,25.6c0-.5.2-1,.2-1.5.3-.2.6-.5.9-.7-.2.5-.4,1.1-.6,1.7,0,.2,0,.4-.2.6-.2,0-.3,0-.4,0Z"/>
  <path class="st19" d="M18.3,15.6c.2-.3.5-.5.8-.8.2-.3.4-.6.8-.7,0,.5,0,.9-.1,1.3,0,.1,0,.3,0,.4.3.3.1.6,0,1,0,.1,0,.3,0,.5.4,0,.6.2.4.7,0,.2-.3.4-.3.6,0,.4-.1.9-.2,1.3,0,.3.2.6.4.8.3.3.2.6.1.8-.1.4-.4.7-.5,1,0,0-.1.1-.1.2,0,.7-.7.9-1.2,1.2,0,0,0-.1,0-.2.1-.1.2-.2.3-.3.1-.1.1-.3.3-.5.2-.2.3-.5.3-.7,0-.3.1-.6,0-.9,0,0,0-.1-.1-.1-.4,0-.3-.3-.2-.6,0-.3.3-.6,0-.9,0,0,0-.3.2-.4.2-.3.4-.5.3-.9,0,0,0-.2-.1-.2-.3,0-.3-.3-.2-.5,0-.2.2-.4,0-.6-.6.3-.4.9-.6,1.3-.4-.4-.4-.9-.2-1.4.1-.3.2-.7.3-1.1,0-.1,0-.3-.2-.5Z"/>
  <path class="st19" d="M17.6,15.3c.1-.2.2-.2.3,0,0,.1.1.2.2.3,0,0-.1.2-.3.4,0-.2-.1-.3-.1-.4,0,0,0-.2,0-.3Z"/>
</svg>