<?xml version="1.0" encoding="UTF-8"?>
<svg id="Layer_1" data-name="Layer 1" xmlns="http://www.w3.org/2000/svg" viewBox="0 0 39.27 36.93">
  <defs>
    <style>
      .cls-1 {
        fill: #da793f;
      }

      .cls-2 {
        fill: #a75768;
      }

      .cls-3 {
        fill: #c76c52;
      }

      .cls-4 {
        fill: #5d4a91;
      }

      .cls-5 {
        fill: #b35f61;
      }

      .cls-6 {
        fill: #7e4980;
      }

      .cls-7 {
        fill: #4a479a;
      }

      .cls-8 {
        fill: #d27448;
      }

      .cls-9 {
        fill: #4f4598;
      }

      .cls-10 {
        fill: #974c71;
      }

      .cls-11 {
        fill: #7e4280;
      }

      .cls-12 {
        fill: #fff;
      }

      .cls-13 {
        fill: #7b4081;
      }

      .cls-14 {
        fill: #df7d39;
      }

      .cls-15 {
        fill: #5f4490;
      }

      .cls-16 {
        fill: #e38035;
      }

      .cls-17 {
        fill: #925273;
      }

      .cls-18 {
        fill: #a0526b;
      }

      .cls-19 {
        fill: #424b9d;
      }

      .cls-20 {
        fill: #68408b;
      }

      .cls-21 {
        fill: #874b7b;
      }

      .cls-22 {
        fill: #394ea1;
      }

      .cls-23 {
        fill: #e8832f;
      }

      .cls-24 {
        fill: #d47645;
      }

      .cls-25 {
        fill: #6f4b88;
      }

      .cls-26 {
        fill: #ce714c;
      }

      .cls-27 {
        fill: #ef8726;
      }

      .cls-28 {
        fill: #8c4578;
      }

      .cls-29 {
        fill: #734386;
      }

      .cls-30 {
        fill: #161617;
      }

      .cls-31 {
        fill: #fdfdfd;
      }

      .cls-32 {
        fill: #bf6758;
      }
    </style>
  </defs>
  <path class="cls-22" d="M4,18.38c-.26.08-.51.2-.77.24-.35.06-.6-.4-.44-.77.55-1.26,1.06-2.53,1.67-3.76.64-1.28,1.36-2.52,2.09-3.74.27-.45.7-.79,1.03-1.21.24-.31.43-.66.63-1,.15-.25.28-.51.46-.77,0,.13,0,.28-.06.38-.44.64-.21,1.36-.27,2.04.16.04.27.06.41.1-.01.26-.03.5-.03.74,0,.16.01.33.04.48.03.17.07.34.13.5.09.24.13.6.31.69.39.22.27.38.1.65-.1.15-.17.36-.15.54.06.46.21.91.26,1.38.05.46.01.47.47.5,0,.13,0,.23-.03.33-.63,3.49.07,6.66,2.32,9.43-.18.1-.32.19-.49.29-.37.37-.66.75-.59,1.29.02.19,0,.38,0,.57-.06.71-.12,1.43-.19,2.14-.01.15-.05.3-.08.45-.02.09-.03.18-.05.27.03.02.07.03.1.05.42-.28.59-.74.86-1.17.63-1.03,1-2.12,1.08-3.29.09.09.16.16.23.25-.02.07-.05.11-.05.15-.02.83-.06,1.67-.06,2.5,0,.3.06.61.09.94.08-.03.13-.04.18-.06.27-.12.34-.08.32.22-.01.14-.09.3-.05.42.13.42,0,.79-.15,1.17-.05.14-.05.29-.07.44.04.01.07.03.11.04.18-.16.37-.32.63-.54,0,.52,0,.95,0,1.38,0,.25.04.51.07.76-.34.27-.69.52-1.15.53-.45,0-.58-.2-.41-.63.1-.24.19-.48.3-.76.02-.06.03-.09.03-.12-.03.02-.06.04-.1.05-.37.17-.73.4-1.11.5-.3.08-.44-.16-.34-.47.11-.32.24-.63.36-.95.04-.11.05-.22.07-.32-.29-.02-.58.04-.79-.07-.18-.1-.27-.37-.41-.6-.45.09-.57-.09-.78-.52-.31-.65.22-1.01.37-1.5.06-.18.15-.35.21-.49-.26.04-.5.11-.74.11-.38,0-.35-.31-.36-.59-.07,0-.13,0-.17.01-.52.33-.85.28-1.14-.27-.14-.26-.3-.29-.54-.3-.55-.02-1.11-.05-1.65-.14-.3-.05-.66-.16-.66-.61,0-.06-.1-.15-.16-.17-.49-.16-.51-.52-.36-.89.12-.29.24-.59.37-.87.13-.28.27-.55.39-.78-.17-.14-.35-.26-.47-.42-.05-.07-.02-.25.04-.34.1-.17.25-.31.38-.46.06-.07.12-.13.26-.28-.17-.01-.27-.04-.37-.02-.33.07-.66.19-.99.2-.19,0-.46-.12-.55-.27-.09-.15-.05-.45.04-.62.28-.54.61-1.06.91-1.59.05-.09.08-.2.11-.3-.89-.01-.93-.08-.56-1,.03-.06.03-.09.03-.12-.03.02-.06.04-.1.05Z"/>
  <path class="cls-32" d="M30.69,27.15c-.27.34-.54.69-.84,1.05-.2.07-.36.13-.54.18-.04-.06-.1-.14-.15-.21-.38.19-.43.17-.41-.25.01-.28.08-.56.15-.86.18-.15.36-.27.49-.43.22-.27.15-.56-.16-.71-.16-.07-.33-.1-.51-.14-.22-.04-.44-.06-.65-.13,0-.39.06-.77-.29-1.03-.04-.03-.03-.12-.04-.19-.02-.3-.04-.6-.07-.89-.03-.21-.11-.39-.38-.32-.19.05-.29,0-.29-.23.01-.34.01-.68,0-1.02,0-.09-.09-.25-.14-.25-.27-.01-.53-.22-.81-.06,0-.09,0-.15,0-.25.05-.41.06-.8.15-1.17.13-.47.29-.92.26-1.43,0-.17.09-.34.14-.51.06-.22.12-.45.2-.66.12-.35-.16-.75.12-1.09.08-.1.09-.26.11-.33-.24-.17-.45-.32-.66-.5.07-.27.14-.51.23-.75.03-.07.03-.14.03-.23.01-.05.02-.08.05-.12.02-.05.03-.09.03-.13,0,0,0,0,.02,0,.1-.02.18-.04.23-.08.34-.26.36-.65.44-1.03.06-.32.18-.66.38-.91.38-.47.32-.87-.25-1.09-.04-.02-.05-.13-.08-.21,0-.04.01-.07.04-.09.14-.13.31-.23.36-.38.13-.42.29-.79.76-.97-.13-.09-.29-.15-.32-.25-.09-.27-.26-.3-.49-.31.05-.38-.06-.64-.41-.79,0-.08,0-.14.03-.19.07-.03.12-.06.17-.1-.03-.03-.05-.05-.08-.08-.04.06-.08.12-.14.18-.25.06-.48.12-.73.19-.18.03-.33.06-.5.09-.04.01-.06.03-.09.05-.03,0-.04,0-.05-.02-.01-.18-.09-.38-.02-.47.17-.21.19-.39.03-.58.3-.41.34-.82.13-1.25-.21-.44-.2-.44-.59-.17-.09.06-.19.1-.37.2-.02-.29-.05-.51-.06-.73,0-.35.39-.67.72-.56.53.18,1.04.38,1.56.6,0,.27.04.52-.27.64-.08.03-.17.3-.15.32.35.24.1.57.14.85.02.12.05.28.13.32.12.06.28.04.42.01.09-.02.17-.11.33-.22.03.52.06.96.09,1.45.19-.1.32-.17.57-.31-.22.59.31.68.46.96-.19.3-.34.58-.53.82-.18.23-.54.31-.67.7.26-.07.5-.23.56.14.02.09.1.17.13.27.02.08.03.22,0,.24-.35.16-.37.42-.28.74.01.05-.07.13-.11.2-.14.28-.35.54-.4.83-.07.4-.2.74-.44,1.06-.31.42-.27,1.02.14,1.22.42.2.26.3.03.5-.08.06-.13.3-.08.35.18.17.14.29,0,.46-.09.13-.15.3-.19.46-.21.91-.55,1.8-.56,2.75,0,.23.07.38.31.37.44-.02.56.41.86.58.03.02,0,.11.03.16.09.24.14.49.28.7.14.21.32.47.66.17.02.09.06.16.04.19-.14.26-.16.48.15.64.04.02.07.09.08.14.03.34.05.69.08,1.03,0,.06.01.16.05.18.24.12.12.29.07.46-.09.3-.12.61.04.94.11-.09.17-.15.24-.2.09-.06.19-.1.28-.14.04.11.1.21.11.32,0,.13-.04.26-.05.39-.02.19.03.32.26.22.06-.02.11-.04.23-.09.01.2,0,.37.04.52.02.09.13.15.2.22Z"/>
  <path class="cls-10" d="M28.55,29.77c-.48.53-.92,1.12-1.46,1.58-.34.3-.55.64-.79,1-.27.41-.58.78-1.07.94-.33.11-.55-.08-.75-.3-.15-.17-.21-.35-.09-.64-.1.03-.24.02-.29.09-.18.24-.35.5-.5.77-.17.29-.38.37-.68.25-.51-.21-.67-.53-.47-1.06.06-.21.05-.41.15-.53.23-.28.51-.51.8-.76.08.13.13.26.2.37.07.11.16.2.26.28.02.01.13-.04.13-.06,0-.12.02-.27-.04-.37-.19-.3-.11-.54.08-.8.08-.11.12-.25.14-.39.05-.36.08-.73.12-1.09.01-.11,0-.23,0-.4-.2.16-.34.27-.48.38-.27-.33-.32-.77-.13-1.17.14-.3.06-.67-.18-.84-.16.11-.31.21-.51.35-.03-.35.04-.67-.35-.74-.03,0-.07-.09-.06-.14.05-.35.07-.71.18-1.04.13-.41.35-.79.51-1.19.16-.37.11-.43-.31-.52.03-.1.05-.17.07-.25,0,0,0,0,.02,0,.15-.17.28-.34.43-.55.04.23.07.41.1.59.16,1.07.44,2.09,1.26,2.88.04.04.06.11.08.19-.02.14-.08.31-.02.37.09.09.25.13.39.15.21.03.25.12.22.32-.04.29.14.61-.17.85-.01,0,.01.06.01.1.01.39.03.79.04,1.18,0,.09.01.19.02.27h.63c0-.11,0-.21.02-.3.07-.31,0-.68.32-.91.06-.04.13-.07.2-.07.03,0,.09.11.08.16-.05.21-.11.41-.18.66.43.36.32,1.01.47,1.57.03,0,.06,0,.1.01.25-.36.51-.72.78-1.09.18-.17.34-.32.53-.5.08.16.14.27.19.38Z"/>
  <path class="cls-23" d="M34.85,18.57s-.02.08-.05.15c-.03.05-.04.08-.05.1.03-.02.07-.03.1-.05.03,0,.06,0,.11.03.02.7.02,1.37.02,2.04,0,.11.05.23.07.34-.32.46-.65.93-1,1.38-.06-.47-.09-.92-.11-1.37-.06-.04-.12-.08-.18-.13-.09.15-.17.3-.28.44-.27-.26-.38-.54-.26-.9.04-.13.02-.36-.06-.44-.33-.31-.2-.57-.03-.89.1-.19.22-.49.13-.62-.15-.25-.08-.48-.11-.72-.03-.23-.1-.45-.13-.67-.04-.31-.08-.64-.05-.95.02-.27.26-.31.48-.11.05.05.14.09.2.07.05-.01.1-.12.1-.18,0-.24.09-.55-.33-.55-.04,0-.07-.05-.11-.08-.18-.17-.86-.12-1.03.07-.08.09-.19.14-.29.21-.04-.12-.12-.23-.12-.35-.02-.36,0-.73,0-1.08-.56-.07-.57-.1-.3-.54.09-.14.12-.35.1-.51-.04-.38.07-.69.33-.94.3-.28.62-.53.71-.96.02-.08.13-.14.2-.21.12-.11.3-.2.34-.33.09-.29.12-.6.17-.91.29.08.35.29.33.56,0,.04.06.08.11.16.03.41-.03.79.2,1.14.04.06.02.15.03.23.05.29.11.59.14.88.05.47.44.86.33,1.37-.04.19-.06.4-.07.59,0,.51.05.99.17,1.5.15.6.07,1.26.1,1.89,0,.12.05.23.07.34Z"/>
  <path class="cls-3" d="M30.71,27.14c-.09-.06-.2-.13-.22-.21-.04-.15-.03-.32-.04-.52-.12.05-.17.07-.23.09-.23.1-.28-.03-.26-.22.01-.13.06-.26.05-.39,0-.11-.07-.22-.11-.32-.09.05-.19.09-.28.14-.07.05-.13.11-.24.2-.17-.33-.13-.64-.04-.94.05-.17.17-.33-.07-.46-.04-.02-.05-.12-.05-.18-.03-.34-.05-.69-.08-1.03,0-.05-.04-.12-.08-.14-.31-.16-.29-.38-.15-.64.02-.03-.02-.1-.04-.19-.33.3-.52.04-.66-.17-.14-.21-.19-.46-.28-.7-.02-.05,0-.14-.03-.16-.3-.17-.43-.6-.86-.58-.24.01-.32-.14-.31-.37.01-.95.36-1.84.56-2.75.04-.16.09-.33.19-.46.13-.17.17-.29,0-.46-.05-.05,0-.28.08-.35.24-.2.4-.3-.03-.5-.41-.2-.45-.8-.14-1.22.24-.32.37-.66.44-1.06.05-.29.26-.55.4-.83.03-.07.12-.15.11-.2-.09-.32-.06-.58.28-.74.03-.01.02-.16,0-.24-.03-.09-.11-.17-.13-.27-.06-.38-.3-.21-.56-.14.13-.39.49-.46.67-.7.19-.25.34-.53.53-.82-.15-.28-.68-.37-.46-.96-.25.13-.37.2-.57.31-.03-.49-.06-.92-.09-1.45-.16.11-.24.2-.33.22-.14.03-.3.04-.42-.01-.08-.04-.11-.21-.13-.32-.04-.28.21-.61-.14-.85-.02-.01.07-.29.15-.32.31-.12.28-.36.3-.63.18.04.33.11.49.14.47.09.74-.22.6-.68-.04-.13-.08-.25-.12-.38.18-.03.4-.14.53-.07.12.06.15.3.21.47.03.09.03.2.05.34-.03.62-.48,1.13-.27,1.75-.35.19-.33.43.08.92.12-.06.23-.12.36-.19.06.21.08.38.16.52.28.49.25.77-.19,1.11-.34.45-.26.99-.43,1.49.07.03.14.06.21.09.38.18.4.73.08,1.01-.34.29-.37.75-.49,1.16,0,.04.03.08.04.13,0,.05.02.12,0,.16-.15.26-.28.52-.46.75-.33.43-.33.81.02,1.22.06.07.1.2.08.28-.06.27-.15.54-.22.83,0,.05,0,.08-.03.12-.07.06-.14.1-.17.17-.13.34-.26.68-.35,1.02-.09.34-.27.67-.16,1.06.06.23-.01.49-.02.74,0,.12-.01.25-.02.37.12-.02.25-.02.36-.07.35-.18.51-.09.6.27.09.35.22.69.34,1.04.04.12.1.24.13.37.04.2.12.22.26.09.17-.16.32-.14.42.08.1.21.15.47.31.62.24.25.17.44.07.71-.1.28-.11.56.1.89.28.42.88.71.73,1.36,0,0,.03.03.06.05.1-.04.21-.08.38-.15v1.17c-.14.19-.28.39-.44.59Z"/>
  <path class="cls-7" d="M9.87,15.34c-.45,0-.42,0-.47-.47-.05-.46-.2-.91-.26-1.38-.02-.17.05-.38.15-.54.17-.26.29-.43-.1-.65-.18-.1-.22-.45-.31-.69-.06-.16-.1-.33-.13-.5-.03-.16-.04-.32-.04-.48,0-.24.02-.49.03-.74-.14-.03-.26-.06-.41-.1.06-.69-.17-1.4.27-2.04.07-.1.07-.25.08-.39.3-.34.59-.68.93-.97.46-.39.79-.34,1.19.12.05.06.09.12.14.19.34-.26.68-.3,1,0,.13-.1.24-.19.39-.26-.04.14-.11.26-.19.39,0,0,0,0-.02,0-.12.11-.22.22-.34.33-.23.17-.42.37-.65.49-.45.23-.47.75-.77,1.08-.03.03.04.15.06.24.03.2.09.41.07.61-.02.2-.16.39.18.43.06,0,.12.2.12.3.01.36.06.69.29,1,.1.13.06.48-.05.61-.25.29-.28.53-.1.86-.21.46-.43.9-.62,1.34-.17.4-.31.82-.47,1.23Z"/>
  <path class="cls-14" d="M33.5,21.52c.09-.15.17-.3.26-.45.06.04.12.08.18.13.03.45.05.9.09,1.38-.29.44-.59.86-.91,1.26-.06-.49-.09-.96-.12-1.43-.13.04-.19.1-.23.17-.08.16-.14.32-.23.48-.1-.15-.18-.29-.26-.45-.08.01-.17.03-.26.04-.14-.21-.12-.35.04-.54.11-.14.15-.37.16-.56.01-.3-.04-.6-.05-.9,0-.12,0-.25,0-.37-.03,0-.05,0-.08,0-.12.17-.24.35-.35.52-.04,0-.08,0-.12,0-.06-.16-.14-.32-.18-.49-.06-.27-.06-.56-.14-.81-.05-.16-.24-.27-.32-.42-.12-.23-.32-.31-.55-.18-.07.04-.14.1-.21.15-.16-.2-.1-.81.05-1.02.11-.15.17-.34.22-.52.05-.18.05-.37.11-.55.2-.63-.12-1.1-.78-1.15-.07,0-.19-.13-.18-.17.05-.19.09-.41.22-.55.34-.35.52-.65.25-1.11-.06-.11-.02-.29-.02-.43h.45c.16-.29.16-.28.05-.61-.02-.07.03-.16.06-.24.03-.09.11-.18.11-.27.03-.78.2-.69.72-.83.43-.12.58-.52.37-.9-.08-.14-.12-.3-.13-.46-.04-.44-.05-.88-.08-1.33.21-.11.42-.22.65-.29.02.43,0,.82.03,1.21.01.16.09.36.21.46.4.34.35.77-.12,1-.39.18-.78.37-.82.88,0,.04-.01.1-.04.13-.28.26-.45.54-.26.93.02.04-.03.13-.05.19-.13.32-.26.65-.4.98-.03,0-.06-.02-.09-.02-.1,0-.27-.03-.28,0-.05.14-.06.29-.08.44.11,0,.22,0,.32-.02.39-.14.58-.01.59.41,0,.27-.07.56.02.8.12.34.18.6-.06.91-.06.08.06.32.13.47.01.03.22-.04.33-.06.09-.01.22-.05.26,0,.12.13.24.28.29.44.16.48.29.96.42,1.44.02.08-.02.17-.02.26-.01.39-.44.79.03,1.17.01,0,0,.04,0,.07-.02.33-.03.67-.08,1-.02.13-.13.25-.18.35.2.03.37.06.54.09.01.03.03.06.04.1.16-.23.32-.46.48-.69M30.52,18.25s-.04-.04-.05-.06c0,0-.02.02-.02.02.02.02.04.04.08.04Z"/>
  <path class="cls-1" d="M31.6,8.9c.05.44.06.88.1,1.32.01.16.06.32.13.46.22.38.06.79-.37.9-.51.14-.69.05-.72.83,0,.09-.08.18-.11.27-.03.08-.08.17-.06.24.1.32.11.32-.05.61h-.45c0,.15-.04.32.02.43.27.47.09.76-.25,1.11-.13.13-.17.36-.22.55-.01.04.11.17.18.17.66.05.98.52.78,1.15-.06.18-.06.37-.11.55-.05.18-.11.37-.22.52-.15.21-.22.81-.05,1.02.07-.05.13-.1.21-.15.23-.13.43-.05.55.18.08.15.27.26.32.42.08.26.09.55.14.81.04.17.12.32.18.49.04,0,.08,0,.12,0,.12-.17.24-.35.35-.52.03,0,.05,0,.08,0,0,.12,0,.25,0,.37.02.3.06.6.05.9,0,.19-.05.42-.16.56-.16.19-.18.34-.04.54.09-.01.19-.03.26-.04.08.16.16.31.25.47-.11.26-.24.49-.38.72-.03,0-.04,0-.08,0-.1-.19-.17-.38-.25-.57-.43,0-.46-.41-.07-1.06-.43-.29.04-.63-.04-.98-.11.08-.21.14-.31.2-.11-.07-.19-.16-.29-.18-.25-.06-.26-.24-.22-.41.11-.51-.08-.85-.54-1.06-.47.26-.55.26-.67-.28-.06-.26,0-.57.07-.83.13-.46.03-.6-.44-.54-.45.06-.67-.2-.53-.62,0-.02.01-.04.02-.06.11-.77.09-1.57.57-2.25.04-.05-.03-.17,0-.25.04-.18.06-.46.17-.5.32-.12.26-.39.19-.55-.17-.42-.06-.74.24-1.06.05-.05.08-.09.14-.13.07-.11.13-.22.18-.36.01-.2.07-.39.03-.55-.05-.23-.05-.38.21-.47.08-.03.14-.19.14-.3,0-.07-.12-.23-.15-.22-.43.12-.45-.14-.46-.45,0-.07-.14-.12-.16-.2-.02-.08,0-.23.06-.25.36-.17.39-.23.15-.56-.16-.22-.12-.36.15-.39.22-.02.25-.16.28-.31.02-.16,0-.33.01-.5.15.09.31.16.44.27.23.2.22.45.03.69-.05.07-.07.16-.04.28.2-.15.39-.3.61-.45M29.74,16.99c-.05.15-.1.29-.17.5.19-.07.31-.08.39-.15.12-.11.23-.24.31-.38.02-.03-.08-.18-.09-.18-.14.05-.27.11-.44.21Z"/>
  <path class="cls-16" d="M33.48,21.5c-.14.24-.3.47-.46.7-.01-.03-.03-.06-.04-.1-.17-.03-.34-.05-.54-.09.05-.1.16-.22.18-.35.05-.33.05-.66.08-1,0-.02,0-.06,0-.07-.47-.38-.04-.78-.03-1.17,0-.09.04-.18.02-.26-.13-.48-.26-.97-.42-1.44-.05-.16-.18-.31-.29-.44-.04-.04-.17,0-.26,0-.12.02-.32.09-.33.06-.08-.15-.19-.39-.13-.47.24-.31.18-.58.06-.91-.09-.24-.02-.53-.02-.8,0-.42-.19-.55-.59-.41-.1.03-.21.02-.32.02.02-.15.03-.3.08-.44.01-.03.18,0,.28,0,.03,0,.06.01.09.02.13-.33.27-.65.4-.98.02-.06.07-.14.05-.19-.19-.39-.02-.67.26-.93.03-.03.04-.08.04-.13.04-.51.43-.7.82-.88.48-.23.52-.66.12-1-.12-.1-.2-.3-.21-.46-.03-.39,0-.78,0-1.2.34-.07.69-.06.78.34.06.27-.02.58-.03.89.08,0,.23.02.38.05-.04.33-.06.64-.15.93-.04.13-.22.22-.34.33-.07.07-.19.13-.2.21-.09.44-.41.68-.71.96-.26.24-.37.56-.33.94.02.17-.01.37-.1.51-.27.43-.26.47.3.54,0,.35-.01.72,0,1.08,0,.12.08.23.12.35.1-.07.21-.12.29-.21.17-.18.85-.23,1.03-.07.03.03.07.08.11.08.41,0,.33.31.33.55,0,.06-.05.16-.1.18-.06.02-.15-.03-.2-.07-.22-.2-.46-.16-.48.11-.03.31.02.63.05.95.03.23.1.45.13.67.03.24-.04.47.11.72.08.14-.03.44-.13.62-.17.32-.31.58.03.89.09.08.11.31.06.44-.12.36-.01.64.26.9Z"/>
  <path class="cls-7" d="M20.22,34.07c-.22.25-.44.5-.66.75-.18.21-.41.33-.68.22-.26-.1-.43-.31-.5-.68-.19.21-.35.47-.57.63-.21.15-.5.3-.75.29-.48-.02-.68-.43-.53-1,.34-.22.65-.39.96-.58.07-.04.13-.12.18-.19.28-.38.03-.73-.05-1.17-.29.26-.53.51-.8.71-.31.24-.52.69-1.05.55-.07-.02-.17.08-.26.13,0,0-.03,0-.05-.04,0-.28.01-.52.01-.77,0-.2-.02-.4-.02-.62.05-.05.09-.08.14-.13.1-.07.17-.13.27-.18.05.21.16.46.08.6-.17.28.02.44.1.71.13-.1.23-.17.36-.25.22-.2.53-.34.61-.57.24-.68.39-1.4.6-2.09.1.21.18.42.25.64.11-.05.23-.09.34-.14.36.42.55.48.8.24.17-.17.31-.37.48-.55.1-.07.17-.13.26-.19.1.18.17.35.23.53.02.05.05.09.1.14.03.07.04.13.02.19-.43.17-.62.52-.7.92-.03.15-.02.26-.22.31-.06.01-.13.29-.08.35.29.34.11.57-.12.8-.05.05-.07.11-.11.17.02.02.04.04.06.05.36-.31.72-.63,1.13-1,.03.2.05.32.06.45.03.25.05.5.07.76Z"/>
  <path class="cls-2" d="M24.31,3.52c.33.21.66.42.99.67.01.22.02.4.03.56-.25.02-.51,0-.74.06-.13.03-.32.19-.32.3-.01.52.02,1.04.06,1.57,0,.04.18.12.21.1.28-.2.4-.08.42.22.13,0,.23-.02.34-.03.02.02.03.05.05.07-.08.08-.16.17-.26.23-.14.08-.23.14-.07.29.18.17.15.3-.08.4-.21.09-.35.24-.24.49.34.07.33.07.44.42.02.06.1.11.14.19-.12.56-.23,1.1-.38,1.64-.15.02-.27.06-.39.05-.07,0-.18-.1-.18-.15.03-.29.1-.58.13-.88.01-.13-.01-.31-.09-.4-.1-.11-.28-.14-.43-.2-.03.13-.06.27-.09.4,0,.01,0,.02-.02.04-.07.07-.11.13-.16.19-.26.34-.44.36-.8.14-.06-.03-.16,0-.25,0-.18-.16-.35-.31-.51-.49.05-.08.1-.14.15-.19.37-.29.42-.44.25-.9-.15,0-.27.35-.46.05-.09-.14-.19-.28-.28-.42.07-.2.14-.44.07-.64-.02-.07-.35-.04-.54-.05-.04,0-.09.02-.13,0-.02-.16-.03-.29-.07-.42-.08-.23,0-.37.23-.49.04.25.08.48.12.75.18-.09.3-.14.42-.2.21-.11.33-.13.39.17.04.23.19.45.3.66.02.04.09.07.14.08.19.02.39.03.59.05,0-.04.03-.09.02-.1-.24-.28-.14-.54.04-.8.03-.04.04-.11.04-.16.05-.8.09-1.6.16-2.4.36.06.69.11,1.12.18-.09-.28-.16-.5-.23-.72-.04-.11-.07-.23-.1-.34Z"/>
  <path class="cls-27" d="M34.87,18.56c-.05-.11-.09-.22-.09-.33-.03-.63.05-1.29-.1-1.89-.12-.51-.17-.99-.17-1.5,0-.2.03-.4.07-.59.1-.51-.28-.9-.33-1.37-.03-.3-.09-.59-.14-.88-.01-.08.01-.17-.03-.23-.23-.34-.17-.73-.17-1.13.34,0,.68.01,1.01.1.58.16.69.38.57.98.55.42.57.66.08,1.16-.24.24-.47.5-.67.71.21.18.4.34.59.5.08.06.19.1.29.14.36.14.45.46.22.76-.21.28-.42.55-.65.85.19,0,.32,0,.46,0,.28,0,.53,0,.67.31.14.32-.01.55-.2.78-.41.48-.82.95-1.23,1.43-.06.07-.1.14-.17.22Z"/>
  <path class="cls-26" d="M32.1,23.8s.02,0,.06.02c0,.19.04.45-.04.5-.23.13-.22.3-.22.5,0,.24,0,.49,0,.73,0,0,0,.03-.02.05-.03.04-.04.06-.05.08-.21.28-.42.57-.65.86-.02-.36-.02-.74-.02-1.16-.18.07-.28.11-.38.15-.03-.02-.06-.04-.06-.05.15-.66-.46-.94-.73-1.36-.22-.33-.2-.61-.1-.89.1-.27.17-.47-.07-.71-.15-.16-.21-.41-.31-.62-.1-.22-.25-.24-.42-.08-.15.13-.22.11-.26-.09-.03-.13-.09-.24-.13-.37-.12-.34-.25-.68-.34-1.04-.09-.37-.25-.45-.6-.27-.1.05-.24.05-.36.07,0-.12.01-.25.02-.37.01-.25.09-.51.02-.74-.11-.39.06-.72.16-1.06.09-.35.23-.69.35-1.02.02-.06.09-.11.17-.14.02.18.02.34-.01.5-.08.45-.26.88-.18,1.36.05.3.29.63-.04.93-.02.02.03.12.07.16.02.02.11,0,.14-.03.07-.06.12-.13.19-.21.15-.11.27-.24.42-.31.1-.04.28-.04.34.02.07.08.08.24.06.36-.1.52-.05.63.36.92.08.06.12.21.12.33,0,.11-.06.22-.12.4.47-.42.68-.34.82.19.04.15.12.28.2.42.09.17.18.33.31.56.01,0,.1.02.18.04-.08.25-.18.49-.21.73-.02.15.12.32.11.48-.01.3.09.41.41.32,0,.15-.02.28,0,.39.02.09.08.17.12.25.07-.04.17-.06.21-.12.17-.22.31-.45.47-.67Z"/>
  <path class="cls-7" d="M14.07,33.39c-.04-.24-.08-.5-.09-.75-.01-.43,0-.86,0-1.38-.26.22-.44.38-.63.54-.04-.01-.07-.03-.11-.04.02-.15.02-.31.07-.44.14-.38.27-.75.15-1.17-.04-.12.04-.28.05-.42.02-.3-.05-.34-.32-.22-.05.02-.1.03-.18.06-.03-.33-.09-.63-.09-.94,0-.83.04-1.67.06-2.5,0-.04.03-.08.07-.15.22.12.4.25.59.43,0,.7,0,1.37,0,2.05,0,.1.06.2.09.29.1-.07.21-.13.29-.22.07-.08.09-.21.16-.29.11-.13.24-.25.43-.44.22,1-.05,1.87-.11,2.74.03.01.06.02.09.04.24-.22.48-.45.74-.69.2.6-.26.98-.31,1.47-.1-.04-.17-.08-.25-.11-.16.37-.51.67-.27,1.12.12-.1.22-.18.35-.29.05.24.08.41.11.6-.18.17-.36.31-.53.46-.12.08-.24.17-.38.26Z"/>
  <path class="cls-5" d="M25.28,9.04c-.05-.05-.13-.1-.15-.16-.11-.35-.11-.35-.44-.42-.11-.25.03-.4.24-.49.24-.1.26-.23.08-.4-.16-.15-.07-.21.07-.29.1-.05.17-.15.26-.23-.02-.02-.03-.05-.05-.07-.1,0-.21.02-.34.03-.02-.3-.13-.42-.42-.22-.03.02-.21-.06-.21-.1-.04-.52-.07-1.04-.06-1.57,0-.11.19-.27.32-.3.24-.06.49-.05.74-.06,0-.16-.02-.34-.02-.54.35.23.7.48,1,.7.24-.03.47-.06.69-.09,0,.03.01.06.02.1.15-.12.28-.27.44-.34.15-.06.35-.06.52-.05.12,0,.24.08.39.13.06.12.1.25.14.38.14.46-.13.77-.6.68-.16-.03-.31-.11-.49-.17-.54-.2-1.06-.41-1.59-.58-.33-.11-.72.21-.72.56,0,.22.03.44.06.73.18-.1.28-.14.37-.2.39-.26.39-.27.59.17.21.44.17.85-.13,1.25.16.19.14.36-.03.58-.07.09,0,.29,0,.48-.24.19-.47.34-.69.49Z"/>
  <path class="cls-8" d="M30.53,8.1c.02.17.04.34.01.51-.02.15-.06.28-.28.31-.27.03-.31.16-.15.39.23.33.21.39-.15.56-.05.02-.08.17-.06.25.02.07.16.13.16.2.01.31.04.57.46.45.03,0,.15.15.15.22,0,.11-.07.27-.14.3-.26.09-.26.24-.21.47.04.16-.02.35-.06.55-.07.14-.13.25-.18.36-.03.04-.07.08-.14.13-.12,0-.19,0-.26-.02,0-.32-.01-.61.33-.76.03-.01.04-.2,0-.25-.33-.37-.58-.76-.46-1.28,0-.03,0-.08-.02-.1-.31-.24-.14-.58-.18-.87.42-.33.45-.61.17-1.1-.08-.14-.1-.31-.16-.52-.12.07-.24.13-.36.19-.41-.49-.43-.73-.08-.92-.21-.61.24-1.12.28-1.73.08-.04.16-.06.26-.06.12.14.26.26.29.41.05.3.04.62.07.93,0,.08.06.23.11.24.24.04.21.21.23.38,0,.15.05.3.07.44-.04.05-.07.1-.13.18.14.05.27.11.43.16Z"/>
  <path class="cls-5" d="M17.4,3.46c.23-.26.43-.58.84-.45.14.04.25.22.36.38-.12.24-.17.52-.5.36-.04-.02-.16.03-.17.06-.03.22-.06.44-.04.65,0,.07.18.12.35.21-.11.15-.24.31-.39.49-.31.17-.55.34-.38.73,0,0,0,0-.02,0-.17.12-.32.23-.47.35,0,.04,0,.08.01.12.39-.16.42.04.41.31,0,.24,0,.48,0,.76.14-.05.24-.09.34-.12.08.12.16.22.24.33.26-.37.5-.45.61-.32-.12.26-.22.49-.35.72-.61.09-1.2.18-1.78.24.12-.3.25-.58.34-.79-.09-.15-.15-.26-.21-.38-.06-.12-.08-.32-.16-.35-.1-.04-.25.07-.38.12-.05.02-.09.05-.13.08-.03-.02-.06-.05-.09-.07.12-.19.21-.43.38-.56.57-.4.78-.93.65-1.6-.06-.3.1-.54.3-.69.22-.16.25-.34.23-.57Z"/>
  <path class="cls-2" d="M17.37,3.46c.04.23,0,.4-.21.57-.2.15-.36.39-.3.69.12.67-.08,1.19-.65,1.6-.17.12-.26.37-.38.56.03.02.06.05.09.07.04-.03.09-.06.13-.08.13-.05.28-.16.38-.12.09.03.11.23.16.35.05.11.12.22.21.38-.09.21-.22.49-.36.8-.28.12-.53.21-.78.27.06-.13.1-.27.19-.32.31-.17.37-.45.4-.77-.3,0-.6-.29-.88.07-.03.04-.19-.01-.39-.04.4-.46.74-.82,1.04-1.21.09-.12.09-.33.1-.5,0-.04-.12-.14-.14-.13-.13.06-.26.14-.37.22-.07.06-.12.14-.2.23-.04-.06-.06-.09-.07-.12-.05-.09-.1-.19-.15-.28-.09.07-.19.13-.27.2-.15.13-.3.26-.45.38l-.09-.05c.09-.23.21-.45.27-.69.07-.27.07-.55.11-.85-.01,0-.1-.01-.18-.02.21-.2.42-.39.67-.58.08.38.13.74.18,1.1.03.02.07.03.1.05.34-.35.67-.7,1.01-1.06.28-.24.55-.49.85-.73Z"/>
  <path class="cls-10" d="M14.56,4.68c.1,0,.18.01.2.02-.04.31-.05.58-.11.85-.06.24-.18.46-.27.69l.09.05c.15-.13.3-.26.45-.38.09-.07.18-.14.27-.2.05.09.1.19.15.28.01.03.03.05.07.12.08-.09.13-.17.2-.23.12-.09.24-.17.37-.22.03-.01.15.09.14.13-.01.17,0,.38-.1.5-.3.39-.64.75-1.04,1.21.2.02.36.08.39.04.28-.36.58-.06.88-.07-.03.33-.09.6-.4.77-.09.05-.13.19-.2.34-.15.1-.29.16-.45.21-.04-.04-.07-.09-.06-.1.15-.23.32-.44.47-.67.04-.07.04-.17.05-.26-.03-.02-.07-.05-.1-.07-.22.19-.44.38-.66.57-.42-.4-.48-.61-.23-1.09.13-.26.13-.45-.08-.63-.25.19-.5.38-.75.57-.27-.48-.13-1.41.41-1.83.16-.12.24-.25.2-.45.03-.04.06-.08.11-.12Z"/>
  <path class="cls-28" d="M14.42,4.8c.06.19-.02.33-.18.45-.55.43-.68,1.36-.41,1.83.25-.19.49-.38.75-.57.21.18.22.37.08.63-.25.49-.2.69.23,1.09.22-.19.44-.38.66-.57.03.02.07.05.1.07-.02.09,0,.19-.05.26-.15.23-.31.45-.47.67,0,.01.03.06.04.11-.34.22-.68.41-1.06.6-.17-.06-.47.23-.45-.18.02-.46.07-.92.12-1.37.02-.19.08-.37.11-.51-.23-.08-.43-.22-.62-.22-.38,0-.43-.22-.35-.47.06-.2.22-.41.38-.54.24-.19.39-.38.34-.7,0-.02.01-.04.07-.05.09-.05.15-.1.2-.15.05-.06.1-.12.19-.19.05-.02.07-.04.08-.06.07-.05.15-.1.24-.15Z"/>
  <path class="cls-9" d="M20.24,34.06c-.04-.24-.07-.5-.09-.75-.01-.12-.03-.25-.06-.45-.42.37-.78.68-1.13,1-.02-.02-.04-.04-.06-.05.04-.06.06-.13.11-.17.24-.24.42-.47.12-.8-.05-.06.02-.34.08-.35.19-.05.18-.16.22-.31.09-.4.27-.75.72-.91.3.32.55.62.83.92.05,0,.08,0,.13,0,.07-.02.13-.04.2-.06.08,0,.13,0,.2,0,.2-.03.38-.07.59-.11.01.05.03.14.05.24-.63.6-1.26,1.21-1.92,1.82Z"/>
  <path class="cls-2" d="M28.57,29.76c-.08-.1-.13-.21-.21-.37-.19.18-.35.33-.56.49-.25-.49-.39-.99-.25-1.45-.1-.19-.21-.32-.23-.46-.03-.21,0-.43.04-.65.53-.08,1.02-.16,1.52-.24-.05.28-.12.56-.13.84-.02.41.03.43.41.25.05.07.11.15.15.21.18-.06.34-.11.53-.16-.4.51-.83,1.02-1.28,1.54Z"/>
  <path class="cls-13" d="M13.62,5.4c.08.31-.07.51-.32.69-.17.13-.32.34-.38.54-.08.25-.02.47.35.47.2,0,.39.13.62.22-.03.14-.09.32-.11.51-.05.46-.09.91-.12,1.37-.02.41.28.12.44.2-.33.25-.66.48-1,.68-.11-.08-.21-.13-.33-.18.04-.19.08-.38.13-.57.07-.28.17-.56.22-.84.03-.16,0-.34-.01-.56-.44.3-.62.27-.67-.07-.03-.28-.16-.33-.35-.27.02-.27.05-.52.07-.77,0,0,0,0,.02,0,.09-.03.18-.04.23-.09.32-.34.63-.68.94-1.03.02-.02,0-.06.01-.1.08-.06.15-.13.25-.2Z"/>
  <path class="cls-1" d="M30.24,7.75c-.04-.14-.08-.28-.09-.43-.01-.17.01-.34-.23-.38-.05,0-.1-.15-.11-.24-.03-.31-.01-.62-.07-.93-.02-.14-.16-.27-.26-.42.3-.28.6-.48,1.04-.21.27.17.38.37.37.67,0,.1.02.23.08.31.23.29.24.47.01.76-.24.29-.48.57-.74.86Z"/>
  <path class="cls-27" d="M35.08,21.17c-.05-.1-.09-.22-.09-.33,0-.67,0-1.34,0-2.03.13-.06.26-.1.38-.11.29-.02.58.02.73.29.17.3.14.62-.07.9-.31.43-.62.85-.95,1.28Z"/>
  <path class="cls-16" d="M18.94,3.41l.74.41s-.03.04-.04.07c.12,0,.27-.05.35,0,.25.2.45.06.67-.03.27-.11.56-.18.87-.26.03,0,.04,0,.03.03-.08.15-.13.3-.24.38-.38.28-.78.53-1.19.8-.03,0-.04,0-.08,0-.24.05-.46.1-.62.13-.14-.19-.28-.37-.41-.56-.04-.06-.1-.14-.1-.21,0-.26.01-.51.02-.77Z"/>
  <path class="cls-22" d="M15.52,33.76c.08-.07.19-.17.26-.15.52.14.73-.31,1.05-.55.27-.2.51-.45.8-.71.09.44.34.79.05,1.17-.05.07-.11.14-.18.19-.31.19-.62.36-.95.55-.15.03-.27.07-.4.07-.4.01-.49-.07-.62-.57Z"/>
  <path class="cls-8" d="M18.92,3.4c.02.26,0,.52,0,.77,0,.07.05.15.1.21.13.18.27.36.41.56.16-.04.38-.09.61-.11-.39.37-.81.71-1.21,1.07-.18.16-.33.35-.5.5-.03-.18-.02-.38-.11-.46-.29-.25-.11-.37.06-.59.21-.27.33-.61.49-.92,0,0,0-.02,0-.04-.07-.03-.14-.07-.15-.07.02-.33.04-.62.05-.9.07,0,.14,0,.24,0Z"/>
  <path class="cls-3" d="M18.66,3.4c0,.29-.02.57-.04.91.01,0,.08.04.15.07,0,.02.01.03,0,.04-.16.31-.28.65-.49.92-.17.21-.35.33-.06.59.09.08.07.29.11.46,0,.03,0,.03-.01.03,0,.02,0,.04.01.09-.13.14-.26.26-.39.38-.04-.12-.02-.18-.02-.24,0-.23.09-.51-.31-.52-.05,0-.1-.16-.15-.25,0,0,0,0,.02-.01.33-.16.37-.43.38-.73.13-.16.25-.33.37-.48-.16-.1-.34-.14-.35-.21-.02-.21,0-.43.04-.65,0-.03.13-.08.17-.06.34.17.39-.12.51-.33,0-.02.04-.01.06,0Z"/>
  <path class="cls-24" d="M31.92,25.54c-.02-.23-.02-.48-.02-.72,0-.2-.01-.37.22-.5.08-.05.05-.31.06-.5.12-.26.24-.49.38-.74.08-.18.14-.34.22-.5.04-.07.1-.13.23-.17.03.47.07.94.1,1.44-.38.58-.77,1.13-1.18,1.7Z"/>
  <path class="cls-5" d="M16.5,4.18c-.31.36-.65.72-.98,1.07-.03-.02-.07-.03-.1-.05-.05-.36-.1-.73-.16-1.11.18-.2.38-.38.57-.56.32-.3.52-.24.61.18.03.15.02.31.06.48Z"/>
  <path class="cls-11" d="M22.18,32.25c-.04-.1-.06-.19-.07-.25-.21.04-.38.08-.58.09.06-.12.15-.22.24-.31.53-.5,1.05-.99,1.59-1.48.12-.1.28-.15.43-.22.02.03.04.06.06.09-.16.31-.32.62-.48.93-.26.25-.54.48-.77.76-.1.12-.09.32-.15.5-.1-.03-.17-.07-.27-.12Z"/>
  <path class="cls-27" d="M22.03,2.92c.11-.28.23-.56.34-.85.09-.23.2-.44.51-.43.32.01.43.25.49.49.06.25.06.52.08.82,0,.03-.01.04-.04.04-.46-.26-.91-.2-1.37-.08,0,0,0,0,0,0Z"/>
  <path class="cls-18" d="M24.3,3.5c.04.14.08.25.11.36.07.22.14.44.23.72-.44-.07-.76-.13-1.12-.21-.05-.45-.07-.87-.08-1.3.03,0,.04-.01.05-.02.26.14.52.28.79.45Z"/>
  <path class="cls-22" d="M14.44,33.16c.17-.17.35-.32.55-.49.17-.14.32-.24.46-.35.01.2.03.4.03.61,0,.25-.02.49-.03.77-.08.05-.16.08-.25.1-.5.12-.75-.09-.76-.63Z"/>
  <path class="cls-20" d="M13.35,5.6s.03.07,0,.09c-.31.35-.62.69-.94,1.03-.05.05-.13.06-.23.09.05-.13.13-.26.19-.39.3-.28.62-.55.97-.82Z"/>
  <path class="cls-13" d="M21.56,3.6c.04-.25.06-.5.38-.6.03,0,.03,0,.03.03-.13.21-.27.4-.4.58,0,0,0,0,0,0Z"/>
  <path class="cls-13" d="M13.88,5.2s-.08.09-.16.14c.03-.05.09-.09.16-.14Z"/>
  <path class="cls-27" d="M23.5,3.04s-.02.02-.05.01c-.02-.02-.03-.03-.03-.05,0,0,0,0,.01-.01.03,0,.05,0,.07.04Z"/>
  <path class="cls-13" d="M21.96,2.99s.02-.04.05-.06c.02,0,.02,0,.01.02-.02.04-.04.05-.06.05,0,0,0,0,0,0Z"/>
  <path class="cls-13" d="M14.16,4.95s0,.04-.04.05c0-.01.01-.03.04-.05Z"/>
  <path class="cls-24" d="M31.85,25.68s0-.03.02-.06c0,.01,0,.03-.02.06Z"/>
  <path class="cls-30" d="M13.11,10.11c.34-.23.67-.46,1.02-.7.36-.21.7-.4,1.07-.61.16-.07.3-.13.45-.21.27-.11.52-.2.79-.29.61-.1,1.19-.18,1.83-.27.22,0,.38,0,.56.02.39.07.75.14,1.14.22.81.24,1.48.69,2.13,1.18.16.15.33.3.52.49.24.26.45.5.67.75.19.27.37.52.56.79.23.42.45.82.7,1.29.12-.62.22-1.16.33-1.72.02-.12.03-.22.04-.32.11-.54.22-1.08.35-1.64.24-.17.46-.32.7-.49.03-.02.04-.02.09-.02.05-.02.07-.03.09-.05.15-.03.31-.06.51-.09.28,0,.5.02.72.02.35.12.46.38.4.79-.11.66-.22,1.27-.32,1.88,0,.02-.02.05-.03.11-.25,1.13-.49,2.21-.72,3.3,0,0,0,0-.01.01-.02.05-.02.09-.03.13,0,.03-.02.06-.04.12-.03.1-.03.16-.04.22-.07.24-.14.48-.22.77-.18.59-.36,1.13-.51,1.68-.04.15-.05.31-.04.46.06.96.12,1.91.19,2.87.02.23.03.46.05.69,0,.06,0,.13,0,.25.15.84.22,1.64.44,2.41.22.78.72,1.38,1.57,1.58.22.03.44.05.65.09.17.03.35.06.51.14.31.15.38.44.16.71-.13.16-.31.27-.49.43-.51.09-1.01.17-1.56.25-.9-.05-1.68-.29-2.41-.72-.03-.06-.05-.12-.09-.17-.82-.79-1.1-1.8-1.26-2.88-.03-.18-.06-.36-.1-.59-.15.2-.28.38-.43.52.15-.32.33-.62.54-.96.08.55.13,1.04.22,1.52.33,1.83,1.22,2.76,2.9,3.05.74.13,1.5.2,2.18-.22.2-.13.46-.4.45-.59-.01-.33-.39-.36-.66-.37-1.21-.03-1.98-.68-2.31-1.79-.23-.78-.35-1.61-.43-2.43-.11-1.23-.15-2.47-.21-3.71-.01-.23-.02-.47.05-.68.86-2.66,1.47-5.39,1.9-8.15.07-.42-.03-.55-.45-.61-.59-.08-1.14.05-1.62.39-.15.11-.27.33-.31.52-.12.56-.19,1.12-.3,1.68-.12.66-.26,1.31-.41,2.06-.49-1.15-1.06-2.13-1.85-2.97-1.8-1.92-3.95-2.57-6.48-1.72-1.97.66-3.52,1.91-4.71,3.61-1.64,2.35-2.1,4.97-1.62,7.76.37,2.12,1.2,4.02,2.77,5.54,1.63,1.57,3.55,2.12,5.76,1.54,1.86-.48,3.22-1.64,4.31-3.17.07-.1.17-.19.25-.28-.02.08-.04.15-.08.27-.24.31-.44.59-.67.88-.29.3-.57.59-.86.88-.14.11-.26.22-.39.3-.6.35-1.2.69-1.83,1.04-.07.02-.13.05-.21.07-1.3.42-2.57.49-3.89.1-.5-.24-.97-.46-1.45-.68-.19-.14-.38-.28-.59-.42-.1-.07-.17-.14-.27-.25-.22-.22-.4-.4-.59-.59-2.27-2.77-2.98-5.94-2.35-9.43.02-.1.02-.2.03-.33.15-.44.29-.85.46-1.26.19-.45.41-.88.64-1.36.26-.39.49-.74.74-1.1.03-.02.04-.04.05-.07,0,0,0-.03.03-.04.28-.3.54-.59.8-.87.17-.19.34-.37.51-.56Z"/>
  <path class="cls-4" d="M12.17,25.13c.22.18.4.37.61.57-.06,1.2-.43,2.3-1.08,3.31-.09-.12-.17-.23-.19-.35-.02-.1.04-.22.05-.33.02-.41.03-.81.05-1.22.03-.57.06-1.14.09-1.72.15-.09.3-.18.47-.28Z"/>
  <path class="cls-9" d="M11.67,25.42c0,.56-.04,1.13-.07,1.71-.02.41-.03.81-.05,1.22,0,.11-.07.22-.05.33.02.12.1.23.17.36-.22.42-.4.89-.82,1.17-.03-.02-.07-.03-.1-.05.02-.09.03-.18.05-.27.03-.15.07-.3.08-.45.07-.71.13-1.42.19-2.14.02-.19.03-.38,0-.57-.07-.55.21-.93.59-1.29Z"/>
  <path class="cls-12" d="M4.01,18.39s.05-.05.08-.07c0,.03,0,.06-.03.1-.03,0-.04,0-.05-.03Z"/>
  <path class="cls-12" d="M12.74,32.49s.05-.05.08-.07c0,.03,0,.06-.03.1-.03,0-.04,0-.06-.03Z"/>
  <path class="cls-5" d="M28.06,25.68c-.86-.17-1.36-.77-1.58-1.55-.22-.76-.3-1.57-.44-2.38.27-.21.54,0,.8,0,.05,0,.13.16.14.25.02.34.01.68,0,1.02,0,.22.09.28.29.23.28-.07.36.11.38.32.04.3.05.59.07.89,0,.06,0,.16.04.19.35.26.29.64.29,1.03Z"/>
  <path class="cls-5" d="M26.05,21.44c-.02-.2-.04-.43-.05-.66-.06-.96-.13-1.91-.19-2.87,0-.15,0-.31.04-.46.16-.55.33-1.09.51-1.65.22.13.43.28.67.45-.02.07-.03.23-.11.33-.28.34,0,.74-.12,1.09-.08.22-.13.44-.2.66-.05.17-.14.34-.14.51.03.5-.14.96-.26,1.43-.1.37-.1.76-.15,1.17Z"/>
  <path class="cls-5" d="M26.74,14.53c.21-1.09.45-2.17.7-3.28.04.04.05.15.1.17.57.22.64.62.25,1.09-.2.25-.32.59-.38.91-.08.38-.09.77-.44,1.03-.06.04-.14.06-.23.08Z"/>
  <path class="cls-5" d="M27.5,11.11c.08-.61.18-1.22.3-1.85.24-.04.42,0,.5.26.03.1.19.15.32.25-.47.18-.64.55-.76.97-.04.15-.22.25-.36.38Z"/>
  <path class="cls-5" d="M27.39,8.42c-.22.02-.45,0-.7,0,.2-.06.43-.12.68-.18.03,0,.03,0,.03,0,0,.05,0,.11,0,.19Z"/>
  <path class="cls-5" d="M27.4,8.23c.04-.06.08-.12.11-.18.03.03.05.05.08.08-.05.03-.09.06-.17.1-.02,0-.02,0-.02,0Z"/>
  <path class="cls-5" d="M26.61,15c-.01-.06,0-.11.02-.19.01.05,0,.12-.02.19Z"/>
  <path class="cls-5" d="M26.69,14.65s0-.06.01-.11c.01.03,0,.06-.01.11Z"/>
  <path class="cls-5" d="M26.14,8.51s-.02.03-.06.04c0-.01.02-.03.06-.04Z"/>
  <path class="cls-28" d="M22.29,24.65c.21-.28.42-.55.64-.85.45.05.49.11.33.48-.17.4-.38.78-.51,1.19-.11.33-.13.69-.18,1.04,0,.04.03.13.06.14.39.07.33.39.35.74.2-.14.36-.24.51-.35.24.17.32.54.18.84-.18.4-.14.84.13,1.17.14-.11.28-.22.48-.38,0,.17,0,.29,0,.4-.03.36-.07.73-.12,1.09-.02.13-.06.28-.14.39-.19.26-.26.5-.08.8.06.09.04.24.04.37,0,.02-.12.07-.13.06-.1-.08-.19-.18-.26-.28-.07-.11-.12-.25-.2-.37.13-.31.29-.62.45-.93-.02-.03-.04-.06-.06-.09-.14.07-.31.12-.43.22-.54.48-1.07.98-1.59,1.48-.09.09-.18.19-.27.31-.05.02-.1.03-.18,0-.03-.12-.03-.22,0-.32.14-.1.28-.17.39-.28.16-.17.27-.42.46-.52.47-.24.45-.69.54-1.09.04-.18.02-.39-.05-.55-.09-.22-.15-.4-.05-.63.03-.06-.02-.19-.07-.25-.27-.28-.53-.31-.76.06-.01.02-.06.01-.03,0-.13-.14-.23-.26-.32-.38-.05-.07-.12-.15-.11-.22.03-.24.04-.49.14-.71.2-.43.46-.84.67-1.26.19-.37.34-.75.51-1.12-.16-.09-.25-.13-.33-.18Z"/>
  <path class="cls-18" d="M24.91,26.63c.74.4,1.53.64,2.39.7.02.22-.02.44.01.65.02.14.13.27.23.46-.14.46,0,.96.23,1.46-.23.36-.48.72-.74,1.08-.03,0-.06,0-.1-.01-.15-.56-.05-1.21-.47-1.57.07-.25.14-.45.18-.66.01-.05-.04-.15-.08-.16-.06,0-.14.03-.2.07-.32.22-.25.59-.32.91-.02.09-.01.2-.02.3h-.63c0-.08-.02-.17-.02-.27-.02-.39-.03-.79-.04-1.18,0-.03-.03-.09-.01-.1.31-.24.13-.56.17-.85.03-.2,0-.29-.22-.32-.14-.02-.3-.06-.39-.15-.06-.06,0-.23.02-.37Z"/>
  <path class="cls-12" d="M34.84,18.76s-.06.04-.09.06c0-.02.02-.05.04-.08.02,0,.03,0,.05.02Z"/>
  <path class="cls-26" d="M29.32,9.51c.07.28-.11.62.2.86.02.01.02.07.02.1-.12.53.13.92.46,1.28.04.05.03.23,0,.25-.34.15-.33.44-.34.76-.03.03-.04.03-.07.03-.35.18-.32.51-.4.8-.07.05-.13.09-.2.13-.21.27-.41.53-.56.81-.04.07.09.22.12.33.08.24.22.48.21.72,0,.27-.14.55-.22.82,0,0,0,0-.02,0-.14.07-.26.13-.38.2.08-.27.17-.54.22-.81.02-.09-.02-.21-.08-.28-.35-.4-.35-.78-.02-1.22.18-.23.31-.5.46-.75.02-.04.01-.11,0-.16,0-.04-.05-.09-.04-.13.11-.41.15-.86.49-1.16.32-.28.31-.84-.08-1.01-.07-.03-.14-.06-.21-.09.17-.49.09-1.04.43-1.49Z"/>
  <path class="cls-8" d="M28.14,16.64c.12-.09.24-.16.38-.2-.09.59-.27,1.15-.28,1.72,0,.42.2.84-.01,1.26,0,.01.04.05.05.08-.06.07-.11.14-.17.2-.03.03-.12.05-.14.03-.04-.04-.08-.15-.07-.16.33-.3.09-.63.04-.93-.08-.48.09-.91.18-1.36.03-.16.03-.32.04-.5,0-.05,0-.08,0-.14Z"/>
  <path class="cls-15" d="M11.7,11.66c-.23.35-.46.71-.71,1.07-.21-.29-.17-.54.07-.82.11-.13.14-.48.05-.61-.23-.31-.28-.64-.29-1,0-.11-.07-.29-.12-.3-.34-.05-.21-.24-.18-.43.02-.2-.04-.4-.07-.61-.01-.08-.09-.2-.06-.24.3-.33.31-.85.77-1.08.23-.12.42-.32.65-.46-.05.15-.11.29-.19.42-.06.1-.16.19-.18.3-.07.38-.12.77-.18,1.17.26-.02.57-.05.97-.08-.15.15-.23.24-.31.33-.19.23-.22.65-.07.78.32.27.31.47.09.82-.11.17-.11.41-.16.62,0,0,0,.02-.02.04-.04.03-.05.05-.05.07Z"/>
  <path class="cls-20" d="M11.79,11.53c.03-.19.03-.44.14-.61.23-.35.23-.54-.09-.82-.15-.13-.12-.55.07-.78.08-.09.16-.18.31-.33-.4.03-.71.06-.97.08.06-.4.11-.79.18-1.17.02-.11.13-.2.18-.3.07-.13.14-.26.21-.42.1-.13.2-.24.32-.35,0,.24-.02.49-.05.76.19-.06.32-.02.35.27.04.34.23.37.67.07,0,.22.04.4.01.56-.05.29-.15.56-.22.84-.05.19-.09.38-.13.57.12.06.22.11.33.18-.17.21-.34.4-.51.58-.26.29-.52.57-.8.87Z"/>
  <path class="cls-1" d="M30.51,18.26s-.05-.03-.07-.05c0,0,.01-.01.02-.02.02.02.04.04.04.07Z"/>
  <path class="cls-24" d="M28.29,19.49s-.08-.05-.07-.07c.21-.42,0-.85.01-1.26,0-.57.19-1.13.31-1.72,0-.03,0-.03.03-.03.16-.4.49-.86.39-1.18-.16-.54-.02-1,.05-1.5.05-.04.11-.09.19-.12.16-.26.29-.54.41-.82.01,0,.02,0,.05,0,.09,0,.16,0,.26,0-.26.3-.36.63-.19,1.05.06.16.13.42-.19.55-.11.04-.13.32-.17.5-.02.08.05.2,0,.25-.48.68-.46,1.48-.57,2.25,0,.02,0,.04-.02.06-.14.42.08.68.53.62.47-.07.56.08.44.54-.07.27-.12.57-.07.83.12.54.19.55.67.28.46.21.66.55.54,1.06-.04.17-.03.36.22.41.1.02.19.11.29.18.09-.06.19-.13.31-.2.08.35-.39.69.04.98-.39.65-.36,1.06.07,1.06.08.19.15.38.25.57-.13.23-.28.46-.45.67-.05.06-.14.08-.21.12-.04-.08-.1-.16-.12-.25-.02-.12,0-.24,0-.39-.33.09-.43-.03-.41-.32,0-.16-.13-.32-.11-.48.03-.24.13-.47.21-.73-.08-.02-.17-.04-.18-.04-.13-.23-.22-.39-.31-.56-.07-.14-.16-.27-.2-.42-.14-.53-.36-.61-.82-.19.06-.18.12-.29.12-.4,0-.11-.04-.27-.12-.33-.41-.29-.45-.4-.36-.92.02-.12.01-.28-.06-.36-.06-.06-.24-.06-.34-.02-.15.07-.27.2-.42.31Z"/>
  <path class="cls-24" d="M29.76,16.97c.15-.08.28-.14.42-.19.01,0,.11.15.09.18-.09.14-.19.28-.31.38-.08.07-.2.08-.39.15.07-.21.12-.36.19-.52Z"/>
  <path class="cls-24" d="M30.11,12.65c.03-.11.08-.22.15-.33-.03.11-.08.22-.15.33Z"/>
  <path class="cls-25" d="M15.12,27.07c1.29.38,2.57.31,3.87-.09-.15.31-.41.58-.48.9-.19.88-.31,1.77-.9,2.5-.19.7-.34,1.42-.58,2.1-.08.23-.39.38-.61.55-.04-.23-.14-.52-.04-.66.24-.33.03-.49-.12-.72-.15.13-.27.24-.39.34-.08.06-.16.12-.27.18-.04-.11-.08-.29-.02-.34.35-.27.36-.62.31-1.02-.04-.29-.04-.56.23-.79.44-.38.49-.9.43-1.44,0-.07-.08-.14-.12-.21-.07.05-.16.09-.2.17-.12.21-.23.43-.33.65-.16.32-.38.45-.77.22.04-.14.03-.33.13-.43.19-.2.18-.4.13-.65-.09-.42-.16-.84-.23-1.27Z"/>
  <path class="cls-15" d="M17.63,30.38c.57-.73.68-1.62.88-2.5.07-.31.33-.58.5-.9.06-.04.11-.07.18-.07.12.25.22.49.31.69.21-.02.45-.03.7-.05l.03.11c-.08.12-.18.23-.23.35-.1.23-.17.47-.25.71-.07.22-.09.45-.19.65-.12.23-.05.41.12.51.16.1.38.1.56.16.28.09.55.19.84.29-.08.16-.15.29-.23.43-.23.42-.31.84.05,1.24.04.04.03.13.04.19-.26-.3-.51-.61-.79-.93-.03-.07-.04-.13-.07-.22-.04-.07-.06-.1-.08-.13-.08-.17-.15-.34-.26-.54-.11.05-.19.13-.27.21-.15.18-.29.38-.46.55-.24.24-.43.17-.8-.24-.11.05-.23.1-.34.14-.08-.22-.15-.43-.25-.64Z"/>
  <path class="cls-4" d="M15.1,27.06c.1.43.16.86.25,1.28.05.24.06.44-.13.65-.09.1-.09.3-.13.43.39.22.61.09.77-.22.11-.22.21-.44.33-.65.04-.07.13-.11.2-.17.04.07.12.14.12.21.06.54.01,1.06-.43,1.44-.27.23-.27.5-.23.79.05.39.04.74-.31,1.02-.06.05-.01.22,0,.35-.02.04-.05.08-.1.13-.15.12-.3.23-.46.34-.06-.16-.09-.33-.14-.57-.13.11-.23.19-.35.29-.24-.45.11-.76.27-1.12.07.03.15.07.25.11.04-.49.51-.87.31-1.47-.26.24-.5.47-.74.69-.03-.01-.06-.02-.09-.04.05-.87.32-1.74.11-2.74-.19.19-.32.31-.43.44-.07.08-.09.21-.16.29-.08.09-.19.15-.29.22-.03-.1-.09-.2-.09-.29,0-.67,0-1.34,0-2.05.48.19.95.41,1.45.65Z"/>
  <path class="cls-15" d="M15.88,31.99c.1-.12.22-.23.37-.36.15.24.36.4.12.72-.1.13,0,.42.02.67-.1.1-.2.17-.33.27-.09-.26-.27-.42-.1-.71.08-.14-.03-.39-.08-.6Z"/>
  <path class="cls-9" d="M19.5,30.57c.06-.08.14-.16.23-.22-.06.08-.14.15-.23.22Z"/>
  <path class="cls-9" d="M20,30.92s.06.05.08.1c-.03-.02-.06-.05-.08-.1Z"/>
  <path class="cls-5" d="M19.95,8.25c-.36-.07-.73-.13-1.11-.23.23-.2.49-.37.74-.55.09-.07.21-.16.22-.25.04-.35.21-.37.49-.2.1-.16.17-.35.3-.45.33-.25.19-.47.04-.74-.18-.33-.32-.68-.48-1.01.39-.26.79-.52,1.17-.8.11-.08.16-.24.24-.38.13-.21.27-.4.4-.61.02-.03.04-.04.06-.07.46-.14.92-.2,1.38.06.03.01.03.03.03.05.03.44.05.86.07,1.31-.04.83-.09,1.63-.13,2.43,0,.05-.01.12-.04.16-.19.26-.28.52-.04.8.01.02,0,.06-.02.1-.2-.02-.4-.03-.59-.05-.05,0-.12-.04-.14-.08-.11-.22-.25-.43-.3-.66-.06-.3-.19-.28-.39-.17-.12.06-.24.11-.42.2-.04-.27-.08-.5-.12-.75-.22.11-.31.25-.23.49.04.12.05.26.06.44-.26.24-.5.47-.78.6-.19.09-.42.07-.42.36Z"/>
  <path class="cls-18" d="M19.97,8.26c-.02-.3.21-.29.4-.38.28-.13.51-.36.78-.57.05-.03.1-.05.14-.05.19.01.52-.02.54.05.06.2,0,.44-.07.64.09.14.19.28.28.42.19.3.31-.04.46-.05.17.46.13.61-.25.9-.06.04-.1.11-.15.19-.65-.46-1.32-.91-2.13-1.15Z"/>
  <path class="cls-18" d="M23.84,11.44c-.18-.25-.36-.5-.53-.78.21.01.4.05.58.08.08,0,.17-.09.2-.2.04-.17.02-.35.06-.52.09-.37.09-.39-.31-.46,0-.01,0-.02,0-.03.03-.13.06-.27.09-.4.15.06.33.1.43.2.08.09.11.27.09.4-.03.29-.1.58-.13.88,0,.05.11.14.18.15.12.01.24-.03.39-.05.02.1.01.2-.04.32-.35.03-.66.05-.99.06-.01.16-.02.26-.02.35Z"/>
  <path class="cls-10" d="M23.82,9.58c.42.06.42.07.33.45-.04.17-.02.35-.06.52-.03.11-.12.2-.2.2-.19-.04-.38-.07-.59-.1-.24-.23-.45-.46-.67-.72.07-.02.17-.06.22-.02.37.22.54.2.8-.14.05-.06.09-.12.16-.19Z"/>
  <path class="cls-32" d="M20.13,4.81c.18.34.32.69.5,1.02.15.27.29.49-.04.74-.13.1-.2.29-.3.45-.28-.16-.45-.14-.49.2-.01.09-.13.19-.22.25-.25.18-.51.35-.77.54-.16.02-.32.01-.51,0,.07-.23.17-.45.29-.72-.11-.13-.35-.05-.61.32-.08-.11-.15-.21-.24-.33-.1.04-.19.07-.34.12,0-.27,0-.52,0-.76,0-.26-.02-.47-.41-.31,0-.04,0-.08-.01-.12.15-.11.3-.23.47-.35.07.08.12.24.17.24.4,0,.32.28.31.52,0,.06-.03.12.02.24.13-.12.26-.24.39-.4,0-.05,0-.06,0-.08,0,0,0,0,0,0,.16-.18.32-.37.5-.52.4-.36.82-.7,1.24-1.07.02-.02.03-.02.06-.02Z"/>
  <path class="cls-32" d="M17.85,5.15c.01.29-.03.56-.36.72-.19-.38.05-.55.36-.72Z"/>
  <path class="cls-29" d="M20.98,32.19c-.03-.06-.02-.15-.06-.19-.36-.4-.28-.81-.05-1.24.07-.14.14-.27.23-.43-.29-.1-.57-.2-.84-.29-.19-.06-.4-.06-.56-.16-.18-.1-.24-.28-.12-.51.1-.2.12-.43.19-.65.08-.24.15-.48.25-.71.05-.13.15-.24.23-.35l-.03-.11c-.25.02-.49.04-.7.05-.09-.21-.19-.44-.29-.69.6-.37,1.21-.71,1.81-1.07.13-.08.25-.19.39-.27.07.22.13.42.17.62.02.1.04.26-.02.3-.38.29-.54.72-.75,1.11-.21.37-.53.69-.55,1.15-.02.34-.06.67-.07,1.01,0,.04.09.11.13.11.39-.02.77-.06,1.1-.08-.04.68-.08,1.33-.14,1.99-.08.14-.13.27-.18.4-.03,0-.06,0-.11,0Z"/>
  <path class="cls-11" d="M21.11,32.18c.03-.13.08-.26.15-.4.02.09.02.18.02.31-.05.05-.1.07-.18.09Z"/>
  <path class="cls-8" d="M18.33,6.42s.01.02.01.04c0,0-.02-.02-.01-.04Z"/>
  <path class="cls-31" d="M23.02,23.52c-.09.09-.18.17-.26.28-1.09,1.53-2.45,2.68-4.31,3.17-2.22.58-4.13.03-5.76-1.54-1.57-1.52-2.41-3.42-2.77-5.54-.48-2.79-.02-5.41,1.62-7.76,1.18-1.7,2.74-2.94,4.71-3.61,2.53-.85,4.68-.2,6.48,1.72.79.84,1.36,1.82,1.85,2.97.15-.75.28-1.4.41-2.06.1-.56.17-1.13.3-1.68.04-.19.16-.41.31-.52.48-.35,1.03-.48,1.62-.39.42.06.51.19.45.61-.43,2.76-1.05,5.48-1.9,8.15-.07.21-.06.46-.05.68.06,1.24.1,2.48.21,3.71.08.82.19,1.65.43,2.43.33,1.11,1.1,1.76,2.31,1.79.28,0,.65.04.66.37,0,.19-.24.47-.45.59-.68.42-1.44.35-2.18.22-1.69-.29-2.57-1.22-2.9-3.05-.09-.48-.14-.97-.22-1.52-.21.35-.39.64-.56.96,0,.02.02.03.02.03M14.7,10.89s-.1.09-.14.14c-3.16,3.58-2.98,8.51-1.02,11.85.67,1.15,1.54,2.12,2.77,2.7,1.16.55,2.24.4,3.1-.42.33-.31.65-.65.92-1.02,1.31-1.82,2.14-3.88,2.88-5.98.03-.08.02-.18.01-.26-.15-1.27-.44-2.51-.91-3.7-.64-1.66-1.58-3.11-3.04-4.16-1.44-1.04-3.5-.63-4.51.86,0,0,0,0-.05,0Z"/>
  <path class="cls-11" d="M21.31,31.77c.02-.64.06-1.3.1-1.98-.33.03-.72.06-1.1.08-.04,0-.13-.07-.13-.11.02-.34.05-.67.07-1.01.02-.46.34-.78.55-1.15.22-.39.37-.82.75-1.11.05-.04.03-.2.02-.3-.04-.2-.1-.4-.15-.63.27-.32.55-.6.84-.9.1.03.19.08.35.17-.17.37-.32.75-.51,1.12-.21.43-.47.83-.67,1.26-.1.21-.11.47-.14.71,0,.07.06.16.11.22.09.12.2.23.32.38-.03,0,.02.01.03,0,.23-.37.49-.34.76-.06.05.06.1.19.07.25-.1.23-.04.42.05.63.07.16.09.38.05.55-.08.4-.07.84-.54,1.09-.19.1-.3.35-.46.52-.1.11-.24.18-.39.28Z"/>
  <path class="cls-10" d="M23.85,11.47c0-.12,0-.22.02-.38.33-.01.64-.03.98-.04-.07.55-.17,1.09-.29,1.7-.26-.46-.48-.86-.7-1.29Z"/>
  <path class="cls-20" d="M11.71,11.65s0-.03.03-.06c.01.02,0,.03-.03.06Z"/>
  <path class="cls-8" d="M28.98,13.73c-.05.49-.19.95-.03,1.49.1.33-.23.78-.39,1.19.05-.27.19-.54.2-.81,0-.24-.13-.48-.21-.72-.04-.11-.16-.26-.12-.33.15-.28.35-.54.56-.81Z"/>
  <path class="cls-8" d="M29.59,12.79c-.1.28-.23.56-.36.82.04-.31.02-.64.36-.82Z"/>
  <path class="cls-30" d="M14.76,10.89c1.01-1.48,3.08-1.89,4.51-.85,1.46,1.05,2.4,2.5,3.04,4.16.46,1.19.76,2.43.91,3.7.01.09.02.18-.01.26-.74,2.1-1.57,4.16-2.88,5.98-.27.37-.59.7-.92,1.02-.86.82-1.94.97-3.1.42-1.23-.58-2.09-1.55-2.77-2.7-1.96-3.34-2.14-8.27,1.02-11.85.04-.05.09-.09.18-.12.03.06.02.09,0,.13-.39.53-.76,1.05-1.14,1.58-.48.75-.8,1.54-1.03,2.4-.37,1.44-.44,2.86-.15,4.32.05.28.09.53.15.78.36,1.43.95,2.75,1.95,3.89.63.69,1.3,1.29,2.22,1.59.15.04.28.07.44.11.9.16,1.65-.11,2.23-.76.45-.5.87-1.04,1.27-1.59.19-.25.3-.56.46-.87.18-.34.34-.65.52-.98.46-1.07.91-2.12,1.34-3.19.07-.18.09-.42.05-.62-.23-1.02-.48-2.04-.73-3.08-.16-.4-.32-.76-.48-1.16-.41-.67-.82-1.31-1.23-1.98-.44-.44-.84-.9-1.3-1.26-1.17-.92-2.41-.91-3.64,0-.18.14-.34.27-.52.41-.14.09-.27.16-.39.24Z"/>
  <path class="cls-15" d="M12.58,15.01c.21-.84.54-1.63,1.02-2.34.07.39.14.76.16,1.14.02.29.14.4.42.31.1-.03.24-.01.35.03.19.08.38.19.57.28-.34.59-.13,1.22-.2,1.83.03,0,.06.02.09.02.15-.13.29-.26.44-.39.4.2.07.62.32.9.19-.15.37-.29.54-.45.33-.29.51-.25.63.17,0,.03.03.06.04.08.13.03.26.03.35.09.09.06.13.18.19.29.3-.33.27-.6-.05-1.04-.29-.39-.28-.42.14-.62.03.11.05.2.08.28.04.13.08.25.14.45.15-.17.23-.26.32-.35.05-.02.08-.04.14-.05.07.16.18.32.16.45-.06.36-.15.72-.28,1.06-.18.49-.21.95.23,1.38.28-.42.07-1.06.64-1.35.2.19.08.4.02.6-.07.23-.14.43.2.5.06.01.12.14.14.23.07.35-.14.61-.31.89-.08.14-.22.38-.17.43.27.31.11.59.01.88-.09.26-.13.49.23.57.04.01.07.09.11.14.19.27.07.57.07.86,0,.28-.07.54-.3.75-.12.11-.15.32-.25.45-.08.11-.21.18-.32.24-.03-.4-.12-.45-.54-.34,0-.31.05-.61-.01-.88-.1-.44.04-.91-.23-1.33-.07-.12.02-.39.11-.55.13-.23.35-.41.49-.63.07-.11.07-.29.05-.43,0-.03-.22-.03-.34-.05-.03,0-.06-.01-.13-.03.02-.14.03-.28.04-.41-.45-.47-.83-.98-.93-1.67,0,0-.04-.02-.07,0-.28.16-.55.23-.83,0-.02-.02-.08-.03-.09-.01-.24.18-.45.08-.63-.08-.23.2-.43.37-.71.62-.03-.23-.04-.36-.07-.49-.02-.12-.06-.25-.1-.37-.11.06-.22.11-.33.17-.13.07-.25.15-.37.23-.03-.02-.05-.04-.08-.06.02-.17.03-.35.05-.52.03-.25.08-.51.09-.76,0-.29.06-.55.29-.75.06-.05.06-.17.09-.26-.1-.02-.22-.08-.3-.05-.26.12-.51.27-.76.41-.09.05-.23.15-.27.12-.09-.06-.13-.19-.18-.3-.04-.09-.08-.18-.12-.27Z"/>
  <path class="cls-9" d="M12.57,15.03c.05.07.09.16.13.25.05.11.09.24.18.3.04.03.18-.07.27-.12.25-.14.5-.29.76-.41.08-.03.2.03.3.05-.03.09-.03.2-.09.26-.23.21-.28.46-.29.75,0,.25-.06.51-.09.76-.02.17-.03.35-.05.52.03.02.05.04.08.06.12-.08.24-.16.37-.23.11-.06.22-.11.33-.17.03.12.07.24.1.37.03.13.04.26.07.49.28-.25.49-.42.71-.62.18.16.39.26.63.08.02-.01.07,0,.09.01.28.22.56.15.83,0,.02-.01.06,0,.07,0,.1.69.48,1.2.93,1.67-.01.13-.03.27-.04.41.06.02.1.03.13.03.12.02.33.02.34.05.02.14.02.31-.05.43-.14.23-.36.4-.49.63-.09.16-.19.44-.11.55.27.42.13.89.23,1.33.06.27.01.57.01.88,0,.03,0,.03-.02.04-.32.23-.62.44-.92.63.02-.17.05-.31.06-.45.03-.62.04-.86-.59-.82-.12-.1-.23-.17-.39-.27,0,0-.03-.07-.01-.11.19-.41,0-.88.24-1.31.11-.18.09-.57-.04-.72-.13-.16-.23-.29-.2-.48.05-.3.13-.6.2-.9.08-.32.16-.64.24-.96.02-.08.05-.15.07-.22-.02-.02-.05-.03-.07-.05-.06.05-.13.1-.18.16-.15.18-.29.36-.45.54-.23.26-.32.23-.44-.09-.03-.09-.13-.24-.18-.24-.36.06-.79-.1-1.04.31-.03.06-.08.11-.12.16-.24.39-.68.5-1.02.39-.44-.14-.53.07-.67.35-.28-1.44-.21-2.86.15-4.3Z"/>
  <path class="cls-19" d="M12.42,19.35c.13-.31.23-.52.67-.38.34.11.78,0,1.02-.39.03-.06.08-.11.12-.16.25-.42.68-.25,1.04-.31.05,0,.14.14.18.24.12.32.21.35.44.09.16-.17.3-.36.45-.54.05-.06.12-.11.18-.16.02.02.05.03.07.05-.02.07-.05.15-.07.22-.08.32-.17.64-.24.96-.07.3-.15.6-.2.9-.03.19.07.32.2.48.13.16.15.54.04.72-.24.42-.05.89-.24,1.31-.02.04.01.11.01.11.15.1.27.17.37.29-.27.26-.53.47-.8.69-.04.03-.07.09-.12.11-.34.14-.68.28-1.02.42-.99-1.11-1.59-2.43-1.95-3.86-.06-.25-.1-.5-.15-.78Z"/>
  <path class="cls-29" d="M17.94,23.39c.41-.14.51-.09.54.33.02.12.03.19.05.26.49-.33,1.1-.5,1.16-1.2,0-.06.1-.12.14-.18.19-.34.41-.66.54-1.02.1-.27.16-.58-.14-.84-.21-.18-.42-.43-.39-.76.05-.45.07-.9.16-1.34.05-.23.24-.42.32-.65.16-.45,0-.7-.43-.67,0-.15-.02-.31,0-.45.06-.33.19-.65-.08-.97-.08-.09-.08-.28-.07-.42.03-.42.08-.84.13-1.31-.45.07-.65.32-.83.63-.19-.03-.36-.08-.52-.1-.13-.01-.29-.03-.37.03-.22.18-.42.19-.67.08,0-.04,0-.09-.02-.13-.04-.09-.09-.18-.13-.27-.07.07-.18.13-.21.22-.07.23-.09.48-.14.72-.01.06-.06.12-.09.17-.08-.42-.33-.81.05-1.19.13-.13.07-.29-.14-.35.11-.15.22-.41.29-.4.43.08.45-.25.58-.49.03-.06.1-.14.16-.14.06,0,.13.07.17.13.14.21.05.4-.11.53-.31.24-.12.55-.14.83,0,.03.05.09.08.09.2,0,.46.04.6-.06.51-.37.98-.79,1.47-1.2.02,0,.05,0,.06.02.03.24.06.46.08.68.35-.12.45-.05.45.35,0,.27-.04.55-.03.82.03.51.29.95.56,1.37.22.34.2.75-.05,1.07-.29.37-.49.76-.32,1.25.02.07,0,.15,0,.22q-.14.76.57,1.09s.03.03.05.07c-.08.64-.4,1.18-.8,1.68-.19.24-.17.48-.03.67.07.09.33.03.51.03.06,0,.12-.04.19-.06-.15.28-.26.59-.45.85-.4.55-.82,1.08-1.27,1.59-.58.65-1.33.91-2.21.74.04-.23.06-.44.13-.64.19-.56.39-1.11.59-1.67,0,0,0,0,0,0Z"/>
  <path class="cls-25" d="M16.8,14c.22.04.28.2.15.33-.38.38-.13.78-.05,1.19.03-.06.08-.11.09-.17.05-.24.08-.49.14-.72.02-.08.14-.15.21-.22.04.09.09.18.13.27.02.04.01.09.02.13.25.12.45.1.67-.08.08-.07.25-.05.37-.03.17.02.33.06.52.12-.24.28-.51.53-.78.78-.03.02-.07.04-.14.05-.09-.11-.16-.21-.2-.32-.08-.24-.19-.26-.34-.06-.41.22-.42.26-.13.64.32.44.35.71.05,1.04-.07-.1-.11-.23-.19-.29-.09-.06-.23-.06-.35-.09-.01-.02-.03-.05-.04-.08-.13-.42-.3-.46-.63-.17-.17.15-.35.29-.54.45-.25-.28.08-.71-.32-.9-.15.13-.3.26-.44.39-.03,0-.06-.02-.09-.02.07-.61-.15-1.24.2-1.83-.19-.1-.38-.21-.57-.28-.11-.04-.24-.06-.35-.03-.28.09-.4-.02-.42-.31-.02-.38-.09-.75-.15-1.15.36-.55.73-1.07,1.14-1.58.17.16.19.3.04.48-.2.23-.06.47.06.67.09.15.26.24.4.36.13-.09.27-.17.43-.27.04.37-.56.55-.18.87.45.38.48.35.84.36-.38.33-.13.62.02,1.01.17-.22.3-.38.43-.54Z"/>
  <path class="cls-13" d="M21.15,22.5c-.07.04-.14.08-.2.09-.17,0-.44.06-.51-.03-.14-.19-.16-.44.03-.67.39-.5.71-1.04.8-1.68-.03-.03-.04-.06-.05-.07q-.71-.33-.57-1.09c.01-.07.03-.16,0-.22-.18-.49.03-.88.32-1.25.25-.32.27-.73.05-1.07-.27-.42-.53-.86-.56-1.37-.02-.27.03-.55.03-.82,0-.4-.1-.47-.45-.35-.02-.22-.04-.44-.07-.7.11-.13.21-.24.33-.31.12-.07.26-.12.39-.17,0,.15.01.29.02.44,0,.03-.02.06-.02.1,0,.07,0,.14-.01.22.08,0,.17.02.24,0,.16-.06.3-.14.51-.23,0,.21-.02.35-.02.48.03.02.05.05.08.07.12-.12.25-.23.37-.35.16.37.31.74.45,1.15-.1.2-.2.36-.27.52-.11.26.03.46.1.7.13.41.05.87-.31,1.19-.21.19-.29.41-.26.69.02.17,0,.35.03.52.02.15.09.29.13.43.05.19.1.39.15.59.02.07-.02.19.01.21.27.18.07.35-.01.51-.07.14-.19.25-.27.38-.26.42-.23.93.06,1.15-.16.32-.33.63-.51.97Z"/>
  <path class="cls-6" d="M16.8,13.98c-.14.18-.26.34-.44.56-.15-.39-.4-.68-.02-1.01-.36-.01-.39.02-.84-.36-.38-.32.22-.5.18-.87-.16.1-.29.19-.43.27-.13-.12-.31-.21-.4-.36-.12-.2-.26-.44-.06-.67.15-.17.13-.32-.02-.49-.02-.05-.01-.08-.02-.13-.01-.02,0-.02,0-.03.12-.08.25-.16.42-.23.16.03.28.07.43.11-.05.12-.15.23-.13.32.02.12.1.3.2.34.17.07.35.05.46-.19.16-.35.23-.34.45-.02.04.06.1.12.16.15.3.15.33.27.09.49-.14.14-.14.25.01.38.07.06.13.22.1.27-.17.26-.02.45.11.64.03.04.18.07.21.05.23-.22.45-.45.69-.68.05-.02.08-.04.14-.07.2,0,.38,0,.56.02.13.02.29.07.36.16.04.06-.04.23-.09.34-.05.12-.13.23-.2.35.04.03.09.07.13.1.34-.35.68-.69,1.03-1.04v.88c-.48.4-.95.83-1.46,1.2-.14.1-.39.05-.6.06-.03,0-.08-.06-.08-.09.02-.28-.17-.59.14-.83.16-.13.25-.32.11-.53-.04-.06-.11-.13-.17-.13-.05,0-.13.08-.16.14-.12.24-.15.57-.58.49-.07-.01-.19.25-.29.4Z"/>
  <path class="cls-17" d="M18.07,12.46s-.06.04-.14.06c-.08-.03-.15-.05-.15-.07,0-.38-.08-.78.02-1.13.12-.43.07-.72-.38-1-.14.27-.35.4-.66.28-.03-.01-.08.03-.12.05-.16.06-.31.12-.47.18.03-.16.06-.31.08-.43-.17-.05-.37-.11-.57-.17,1.21-.9,2.45-.91,3.62,0,.47.37.87.83,1.28,1.27-.22.12-.43.19-.62.31-.29.18-.56.3-.74-.06-.35.15-.67.28-.98.43-.08.04-.12.18-.18.28Z"/>
  <path class="cls-28" d="M21.68,21.52c-.31-.2-.34-.71-.08-1.13.08-.13.2-.24.27-.38.08-.16.28-.33.01-.51-.04-.02,0-.14-.01-.21-.04-.2-.09-.39-.15-.59-.04-.15-.11-.29-.13-.43-.03-.17-.01-.35-.03-.52-.02-.27.05-.5.26-.69.36-.33.44-.78.31-1.19-.08-.24-.22-.44-.1-.7.07-.17.17-.32.28-.5.27,1.01.52,2.02.75,3.05.04.19.03.43-.05.62-.43,1.06-.88,2.12-1.34,3.19Z"/>
  <path class="cls-4" d="M14.53,24.02c.33-.16.67-.3,1.01-.44.05-.02.08-.07.12-.11.26-.21.52-.43.8-.66.65-.08.64.15.61.77,0,.14-.04.28-.06.48-.09.55-.18,1.04-.27,1.53-.9-.28-1.57-.88-2.2-1.58Z"/>
  <path class="cls-21" d="M18.09,12.45c.03-.09.07-.23.15-.28.31-.16.63-.28.98-.43.18.36.45.24.74.06.19-.12.4-.19.63-.28.43.64.83,1.29,1.25,1.96-.12.14-.24.25-.37.37-.03-.02-.05-.05-.08-.07,0-.14.01-.27.02-.48-.2.1-.35.17-.51.23-.07.03-.16,0-.24,0,0-.07,0-.15.01-.22,0-.03.03-.06.02-.1,0-.15-.01-.29-.02-.44-.13.06-.27.1-.39.17-.12.07-.22.18-.34.29,0,.02-.04.02-.06.02-.02-.27-.02-.55-.02-.88-.35.35-.69.7-1.03,1.04-.04-.03-.09-.07-.13-.1.07-.12.14-.23.2-.35.05-.11.13-.28.09-.34-.07-.09-.23-.14-.36-.16-.17-.03-.36-.02-.56-.02Z"/>
  <path class="cls-21" d="M15.67,10.23c.22.05.41.11.59.16-.02.12-.05.27-.08.43.16-.06.31-.12.47-.18.04-.02.09-.06.12-.05.31.12.52,0,.66-.28.45.28.5.58.38,1-.1.35-.03.75-.02,1.13,0,.02.07.05.13.07-.2.23-.41.47-.65.68-.03.03-.17,0-.21-.05-.13-.19-.28-.38-.11-.64.03-.05-.03-.22-.1-.27-.16-.14-.16-.25-.01-.38.24-.23.21-.34-.09-.49-.06-.03-.12-.09-.16-.15-.22-.32-.28-.33-.45.02-.11.23-.29.26-.46.19-.1-.04-.18-.21-.2-.34-.02-.09.08-.2.13-.32-.16-.04-.27-.08-.41-.12.14-.14.3-.27.48-.41Z"/>
  <path class="cls-15" d="M16.75,25.61c.07-.51.16-1,.25-1.52.3-.24.6-.46.92-.69-.18.55-.38,1.1-.57,1.66-.07.19-.09.4-.16.62-.15,0-.28-.03-.44-.08Z"/>
  <path class="cls-20" d="M18.29,15.62c.24-.26.51-.52.78-.79.16-.33.36-.59.81-.65-.05.48-.1.89-.13,1.31,0,.14,0,.32.07.42.26.32.14.64.08.97-.03.15,0,.3,0,.45.43-.03.59.22.43.67-.08.23-.28.42-.32.65-.09.44-.12.9-.16,1.34-.03.33.18.57.39.76.3.26.24.57.14.84-.13.36-.35.68-.54,1.02-.04.07-.13.12-.14.18-.06.7-.67.87-1.16,1.2-.02-.08-.03-.14-.05-.24.11-.11.24-.19.32-.3.1-.14.13-.34.25-.45.22-.21.3-.46.3-.75,0-.29.13-.59-.07-.86-.04-.05-.06-.13-.11-.14-.36-.08-.32-.31-.23-.57.1-.29.26-.57-.01-.88-.05-.05.09-.3.17-.43.17-.28.38-.54.31-.89-.02-.08-.08-.22-.14-.23-.34-.07-.28-.27-.2-.5.06-.2.18-.41-.02-.6-.57.28-.36.93-.64,1.35-.44-.43-.41-.88-.23-1.38.13-.34.22-.7.28-1.06.02-.14-.09-.29-.16-.45Z"/>
  <path class="cls-20" d="M17.61,15.29c.14-.23.25-.2.33.04.04.11.1.21.18.33-.06.1-.14.19-.29.36-.06-.2-.1-.32-.14-.45-.03-.09-.04-.17-.08-.28Z"/>
</svg>