<?xml version="1.0" encoding="UTF-8"?>
<svg version="1.1" xmlns="http://www.w3.org/2000/svg" width="300" height="77">
<path d="M0 0 C1.8125 1.125 1.8125 1.125 3 3 C3.375 6 3.375 6 3 9 C1.5 10.875 1.5 10.875 0 12 C1.32 12.99 2.64 13.98 4 15 C4.66 14.34 5.32 13.68 6 13 C8.05859375 12.8046875 8.05859375 12.8046875 10.4375 12.875 C11.61119141 12.90207031 11.61119141 12.90207031 12.80859375 12.9296875 C13.53175781 12.95289063 14.25492188 12.97609375 15 13 C18.14954809 13.04019209 18.14954809 13.04019209 21.875 12.6875 C25.56131387 12.65349341 25.92854891 12.94045742 29 15.5 C29.66 16.325 30.32 17.15 31 18 C31.45375 17.505 31.9075 17.01 32.375 16.5 C34 15 34 15 36 15 C36.680625 14.67 37.36125 14.34 38.0625 14 C43.24110163 12.23707178 48.11715661 12.07779099 53.0625 14.5 C53.701875 14.995 54.34125 15.49 55 16 C55.66 15.34 56.32 14.68 57 14 C61.0001587 13.09087302 64.91411393 12.54601266 69 13 C70.875 15 70.875 15 72 17 C72.45375 16.525625 72.9075 16.05125 73.375 15.5625 C75.70956463 13.31772631 76.70863881 13.01214005 80 12.875 C83 13 83 13 85 14 C83.46096383 17.49780948 81.30911521 20.26475861 78.92578125 23.21875 C77.82471295 24.95006747 77.82471295 24.95006747 78.16015625 26.91015625 C79.55934713 30.39186379 81.73736934 33.35962664 83.8203125 36.46484375 C85.23416891 39.50323054 85.11829564 40.87854373 84 44 C81.64729407 45.17635297 80.179248 45.13359359 77.5625 45.125 C76.38880859 45.12886719 76.38880859 45.12886719 75.19140625 45.1328125 C73 45 73 45 70 44 C68.3125 41.4375 68.3125 41.4375 67 39 C66.34 40.65 65.68 42.3 65 44 C58.56241316 44.9458066 52.25301825 45.2152245 45.75 45.25 C44.7703125 45.270625 43.790625 45.29125 42.78125 45.3125 C41.36585938 45.32023437 41.36585938 45.32023437 39.921875 45.328125 C38.64715332 45.34214355 38.64715332 45.34214355 37.34667969 45.35644531 C34.51476435 44.92629588 33.13168067 43.86352927 31 42 C30.34 42.99 29.68 43.98 29 45 C26.90625 45.36328125 26.90625 45.36328125 24.5 45.3125 C23.7059375 45.30863281 22.911875 45.30476563 22.09375 45.30078125 C20 45 20 45 18 43 C17.77294922 41.02880859 17.77294922 41.02880859 17.8046875 38.6484375 C17.81113281 37.79765625 17.81757813 36.946875 17.82421875 36.0703125 C17.84097656 35.18085937 17.85773438 34.29140625 17.875 33.375 C17.88402344 32.4778125 17.89304688 31.580625 17.90234375 30.65625 C17.9259503 28.43723414 17.9588769 26.21874923 18 24 C17.34 24 16.68 24 16 24 C16.05220703 25.89685547 16.05220703 25.89685547 16.10546875 27.83203125 C16.13360677 29.49217423 16.16090691 31.15233156 16.1875 32.8125 C16.21263672 33.64587891 16.23777344 34.47925781 16.26367188 35.33789062 C16.27333984 36.14033203 16.28300781 36.94277344 16.29296875 37.76953125 C16.3086792 38.50792236 16.32438965 39.24631348 16.34057617 40.00708008 C15.90385398 42.56260927 15.02048498 43.4265816 13 45 C10.80859375 45.3984375 10.80859375 45.3984375 8.4375 45.375 C7.25994141 45.38660156 7.25994141 45.38660156 6.05859375 45.3984375 C5.37925781 45.26695313 4.69992188 45.13546875 4 45 C3.34 44.01 2.68 43.02 2 42 C1.34 42.99 0.68 43.98 0 45 C-2.09375 45.36328125 -2.09375 45.36328125 -4.5 45.3125 C-5.2940625 45.30863281 -6.088125 45.30476563 -6.90625 45.30078125 C-9 45 -9 45 -11 43 C-11.25878906 40.32617188 -11.25878906 40.32617188 -11.265625 36.96875 C-11.26820312 35.76605469 -11.27078125 34.56335937 -11.2734375 33.32421875 C-11.26570313 32.06222656 -11.25796875 30.80023438 -11.25 29.5 C-11.25773437 28.23800781 -11.26546875 26.97601563 -11.2734375 25.67578125 C-11.27085938 24.47308594 -11.26828125 23.27039063 -11.265625 22.03125 C-11.26336914 20.92330078 -11.26111328 19.81535156 -11.25878906 18.67382812 C-11 16 -11 16 -9 14 C-9.66 13.01 -10.32 12.02 -11 11 C-11.25 7.4375 -11.25 7.4375 -11 4 C-7.66789793 0.66789793 -4.75033185 -0.6090169 0 0 Z M57 20 C57 25.28 57 30.56 57 36 C57.66 36 58.32 36 59 36 C60.89921719 33.89242627 60.89921719 33.89242627 62 31 C61.39619529 27.93798554 61.39619529 27.93798554 60 25 C59.443125 23.576875 59.443125 23.576875 58.875 22.125 C58.58625 21.42375 58.2975 20.7225 58 20 C57.67 20 57.34 20 57 20 Z M32 23 C32 25.31 32 27.62 32 30 C32.86625 29.38125 33.7325 28.7625 34.625 28.125 C37.75628186 26.15345216 40.46384469 25.01033009 44 24 C44 23.67 44 23.34 44 23 C40.53058454 23.45822468 37.32604951 23.89131683 34 25 C33.34 24.34 32.68 23.68 32 23 Z M43 32 C44 35 44 35 44 35 Z " fill="#5AB472" transform="translate(115,14)"/>
<path d="M0 0 C2.41632861 2.29226283 3.23084836 3.91852512 3.4375 7.25 C2.65365109 11.7393165 2.15157846 13.19087135 -1.25 16.1875 C-14.00681541 24.76218418 -29.07686687 25.56535258 -43.9375 25.625 C-45.87822388 25.6401062 -45.87822388 25.6401062 -47.8581543 25.65551758 C-61.61607749 25.53221832 -78.4654377 23.79976816 -88.94921875 13.81640625 C-91.34583998 10.81523191 -91.64230949 8.97982507 -91.25 5.1875 C-87.77056431 -1.51553053 -82.01089076 -4.43322974 -75.09375 -6.78125 C-51.83236222 -13.02211014 -20.45862814 -14.93804594 0 0 Z " fill="#1F1E58" transform="translate(290.25,30.8125)"/>
<path d="M0 0 C1.23943359 -0.00386719 1.23943359 -0.00386719 2.50390625 -0.0078125 C3.35855469 -0.00007813 4.21320312 0.00765625 5.09375 0.015625 C6.37572266 0.00402344 6.37572266 0.00402344 7.68359375 -0.0078125 C8.50988281 -0.00523438 9.33617188 -0.00265625 10.1875 0 C10.93708984 0.00225586 11.68667969 0.00451172 12.45898438 0.00683594 C14.85816623 0.29767912 16.45511889 1.18494584 18.59375 2.265625 C19.93621312 1.61753936 21.26807801 0.94739916 22.59375 0.265625 C26.42683969 -0.07661515 28.71542697 -0.27488148 32.03125 1.765625 C32.546875 2.260625 33.0625 2.755625 33.59375 3.265625 C34.25375 2.770625 34.91375 2.275625 35.59375 1.765625 C39.56008241 -0.21754121 42.19678262 0.04205039 46.59375 0.265625 C48.80324832 4.67592283 48.8308148 8.75502824 48.71875 13.578125 C48.70972656 14.31869141 48.70070312 15.05925781 48.69140625 15.82226562 C48.66799213 17.63685967 48.63212615 19.45128571 48.59375 21.265625 C49.71198815 19.02914869 49.78771061 17.61670971 49.91015625 15.1328125 C49.97299805 13.92431641 49.97299805 13.92431641 50.03710938 12.69140625 C50.07642578 11.84964844 50.11574219 11.00789063 50.15625 10.140625 C50.22102539 8.86638672 50.22102539 8.86638672 50.28710938 7.56640625 C50.39329236 5.46634277 50.49403497 3.36600552 50.59375 1.265625 C51.24569336 1.17933838 51.89763672 1.09305176 52.56933594 1.00415039 C53.31989258 0.90481201 54.07044922 0.80547363 54.84375 0.703125 C58.1093256 0.27091646 60.43037624 0.39890728 63.59375 1.265625 C63.64322698 5.19828396 63.67950578 9.13082214 63.70361328 13.0637207 C63.71860495 15.05882118 63.74401731 17.05383446 63.76953125 19.04882812 C63.77597656 20.30244141 63.78242187 21.55605469 63.7890625 22.84765625 C63.79953613 24.00499268 63.81000977 25.1623291 63.82080078 26.35473633 C63.59375 29.265625 63.59375 29.265625 61.59375 32.265625 C59.51831055 32.65380859 59.51831055 32.65380859 56.98046875 32.6640625 C56.06201172 32.66792969 55.14355469 32.67179687 54.19726562 32.67578125 C53.23498047 32.66417969 52.27269531 32.65257812 51.28125 32.640625 C50.33056641 32.65222656 49.37988281 32.66382813 48.40039062 32.67578125 C43.3314655 32.6545279 39.71014365 32.5833154 35.59375 29.265625 C35.1915625 29.75289062 34.789375 30.24015625 34.375 30.7421875 C32.1419947 32.65199466 30.99549197 32.66964242 28.09375 32.640625 C26.93359375 32.65222656 26.93359375 32.65222656 25.75 32.6640625 C23.14215272 32.18217768 22.25503134 31.27833124 20.59375 29.265625 C19.93375 30.255625 19.27375 31.245625 18.59375 32.265625 C16.31640625 32.6640625 16.31640625 32.6640625 13.65625 32.640625 C12.34333984 32.65222656 12.34333984 32.65222656 11.00390625 32.6640625 C8.20934919 32.20207738 7.33600055 31.43912569 5.59375 29.265625 C4.93375 30.255625 4.27375 31.245625 3.59375 32.265625 C1.28125 32.62890625 1.28125 32.62890625 -1.40625 32.578125 C-2.293125 32.57425781 -3.18 32.57039063 -4.09375 32.56640625 C-6.40625 32.265625 -6.40625 32.265625 -8.40625 30.265625 C-8.63330078 27.46826172 -8.63330078 27.46826172 -8.6015625 23.9453125 C-8.59511719 22.68847656 -8.58867187 21.43164062 -8.58203125 20.13671875 C-8.56527344 18.81800781 -8.54851563 17.49929687 -8.53125 16.140625 C-8.52121983 14.80078779 -8.51209404 13.46094348 -8.50390625 12.12109375 C-8.48027075 8.83575927 -8.44732234 5.55078035 -8.40625 2.265625 C-5.4774238 0.59556385 -3.36313029 0.0101212 0 0 Z M34.59375 4.265625 C35.59375 6.265625 35.59375 6.265625 35.59375 6.265625 Z " fill="#2CA64D" transform="translate(11.40625,26.734375)"/>
<path d="M0 0 C3.0625 1.5 3.0625 1.5 5 3 C5.66 2.34 6.32 1.68 7 1 C11.0001587 0.09087302 14.91411393 -0.45398734 19 0 C20.875 2 20.875 2 22 4 C22.45375 3.525625 22.9075 3.05125 23.375 2.5625 C25.70956463 0.31772631 26.70863881 0.01214005 30 -0.125 C33 0 33 0 35 1 C33.46096383 4.49780948 31.30911521 7.26475861 28.92578125 10.21875 C27.82471295 11.95006747 27.82471295 11.95006747 28.16015625 13.91015625 C29.55934713 17.39186379 31.73736934 20.35962664 33.8203125 23.46484375 C35.23416891 26.50323054 35.11829564 27.87854373 34 31 C31.64729407 32.17635297 30.179248 32.13359359 27.5625 32.125 C26.38880859 32.12886719 26.38880859 32.12886719 25.19140625 32.1328125 C23 32 23 32 20 31 C18.3125 28.4375 18.3125 28.4375 17 26 C16.67 26.66 16.34 27.32 16 28 C13.52728039 28.36986397 11.17464889 28.60575002 8.6875 28.75 C8.01009766 28.80542969 7.33269531 28.86085938 6.63476562 28.91796875 C2.86148802 29.16140602 0.1923288 29.1336902 -3 27 C-3.99 27.66 -4.98 28.32 -6 29 C-9.61332604 29.4713034 -11.57577261 29.20289136 -14.875 27.625 C-18.06992512 23.6783278 -17.42009114 19.89172798 -17 15 C-8.738041 10.40774487 -8.738041 10.40774487 -4 11 C-4.33 10.01 -4.66 9.02 -5 8 C-8.5219721 7.91995518 -11.61981469 7.95994298 -15 9 C-15 7.02 -15 5.04 -15 3 C-9.98947554 -0.08339967 -5.74892811 -0.82429484 0 0 Z M7 7 C7 12.28 7 17.56 7 23 C7.66 23 8.32 23 9 23 C10.89921719 20.89242627 10.89921719 20.89242627 12 18 C11.39619529 14.93798554 11.39619529 14.93798554 10 12 C9.443125 10.576875 9.443125 10.576875 8.875 9.125 C8.58625 8.42375 8.2975 7.7225 8 7 C7.67 7 7.34 7 7 7 Z M-7 19 C-6 22 -6 22 -6 22 Z " fill="#C9D9CE" transform="translate(165,27)"/>
<path d="M0 0 C39.78002404 -0.97158125 39.78002404 -0.97158125 53.125 9.4375 C55 12 55 12 55.75 14.4375 C54.46447736 18.82970235 51.79341798 20.78765547 48 23 C30.89412905 31.26098951 7.39582094 29.50478812 -11 27 C-11 26.34 -11 25.68 -11 25 C-9.96875 24.525625 -8.9375 24.05125 -7.875 23.5625 C-3.07919605 20.87645909 -0.7097209 16.64523582 2 12 C4.31 12.33 6.62 12.66 9 13 C9.33 11.35 9.66 9.7 10 8 C8.68 8.99 7.36 9.98 6 11 C5.34 10.67 4.68 10.34 4 10 C5.5625 7.98046875 5.5625 7.98046875 8 6 C11.3125 5.86328125 11.3125 5.86328125 15 6.3125 C20.57291765 7.04196353 20.57291765 7.04196353 26 6 C26 5.34 26 4.68 26 4 C25.34 4.33 24.68 4.66 24 5 C22.02362586 5.12227926 20.0426169 5.17549929 18.0625 5.1875 C16.47115234 5.20876953 16.47115234 5.20876953 14.84765625 5.23046875 C11.77127583 4.98148872 10.21770584 4.21770584 8 2 C6.65252916 1.76924918 5.29622435 1.58846937 3.9375 1.4375 C2.638125 1.293125 1.33875 1.14875 0 1 C0 0.67 0 0.34 0 0 Z " fill="#212059" transform="translate(234,24)"/>
<path d="M0 0 C1.8125 1.125 1.8125 1.125 3 3 C3.375 6 3.375 6 3 9 C1.5 10.875 1.5 10.875 0 12 C1.32 12.99 2.64 13.98 4 15 C4.66 14.67 5.32 14.34 6 14 C6 22.91 6 31.82 6 41 C9.3 41 12.6 41 16 41 C15 44 15 44 13 45 C10.90625 45.203125 10.90625 45.203125 8.5 45.25 C7.7059375 45.27578125 6.911875 45.3015625 6.09375 45.328125 C5.4028125 45.21984375 4.711875 45.1115625 4 45 C3.34 44.01 2.68 43.02 2 42 C1.34 42.99 0.68 43.98 0 45 C-2.09375 45.36328125 -2.09375 45.36328125 -4.5 45.3125 C-5.2940625 45.30863281 -6.088125 45.30476563 -6.90625 45.30078125 C-9 45 -9 45 -11 43 C-11.25878906 40.32617188 -11.25878906 40.32617188 -11.265625 36.96875 C-11.26820312 35.76605469 -11.27078125 34.56335937 -11.2734375 33.32421875 C-11.26570313 32.06222656 -11.25796875 30.80023438 -11.25 29.5 C-11.25773437 28.23800781 -11.26546875 26.97601563 -11.2734375 25.67578125 C-11.27085938 24.47308594 -11.26828125 23.27039063 -11.265625 22.03125 C-11.26336914 20.92330078 -11.26111328 19.81535156 -11.25878906 18.67382812 C-11 16 -11 16 -9 14 C-9.66 13.01 -10.32 12.02 -11 11 C-11.25 7.4375 -11.25 7.4375 -11 4 C-7.66789793 0.66789793 -4.75033185 -0.6090169 0 0 Z " fill="#B3D1B9" transform="translate(115,14)"/>
<path d="M0 0 C2.05078125 0.03255208 4.1015625 0.06510417 6.15234375 0.09765625 C8.36184207 4.50795408 8.38940855 8.58705949 8.27734375 13.41015625 C8.26832031 14.15072266 8.25929688 14.89128906 8.25 15.65429688 C8.22658588 17.46889092 8.1907199 19.28331696 8.15234375 21.09765625 C9.2705819 18.86117994 9.34630436 17.44874096 9.46875 14.96484375 C9.51064453 14.15917969 9.55253906 13.35351562 9.59570312 12.5234375 C9.63501953 11.68167969 9.67433594 10.83992188 9.71484375 9.97265625 C9.75802734 9.12316406 9.80121094 8.27367187 9.84570312 7.3984375 C9.95188611 5.29837402 10.05262872 3.19803677 10.15234375 1.09765625 C11.13025879 0.96822632 11.13025879 0.96822632 12.12792969 0.83618164 C12.87848633 0.73684326 13.62904297 0.63750488 14.40234375 0.53515625 C17.90316812 0.07181185 19.57724264 0.20388097 23.15234375 1.09765625 C23.15234375 10.00765625 23.15234375 18.91765625 23.15234375 28.09765625 C19.52234375 28.09765625 15.89234375 28.09765625 12.15234375 28.09765625 C10.54359375 28.34515625 8.93484375 28.59265625 7.27734375 28.84765625 C3.81260863 29.30092805 3.34331171 29.21303272 0.15234375 27.28515625 C-2.78344204 24.07414054 -2.97516501 22.37973256 -2.98046875 18.125 C-2.98175781 17.14337891 -2.98304687 16.16175781 -2.984375 15.15039062 C-2.98050781 14.12236328 -2.97664063 13.09433594 -2.97265625 12.03515625 C-2.97652344 11.00326172 -2.98039062 9.97136719 -2.984375 8.90820312 C-2.98308594 7.92787109 -2.98179688 6.94753906 -2.98046875 5.9375 C-2.97877686 4.58192993 -2.97877686 4.58192993 -2.97705078 3.19897461 C-2.81262495 0.52876114 -2.68075834 0.14168913 0 0 Z " fill="#24A346" transform="translate(51.84765625,26.90234375)"/>
<path d="M0 0 C4.29 0 8.58 0 13 0 C13.07409532 5.92648574 13.12857616 11.85270253 13.16479492 17.77954102 C13.17989179 19.79619034 13.20037115 21.81280679 13.22631836 23.8293457 C13.26266211 26.72615671 13.2797172 29.62253406 13.29296875 32.51953125 C13.30845261 33.42274612 13.32393646 34.325961 13.33988953 35.25654602 C13.34022942 36.5175135 13.34022942 36.5175135 13.34057617 37.80395508 C13.34723801 38.54341873 13.35389984 39.28288239 13.36076355 40.04475403 C12.89623042 42.56240453 11.99744715 43.44654303 10 45 C7.7734375 45.328125 7.7734375 45.328125 5.375 45.25 C4.57835938 45.23453125 3.78171875 45.2190625 2.9609375 45.203125 C1 45 1 45 0 44 C-0.17288792 40.92255687 -0.28416967 37.86548057 -0.3515625 34.78515625 C-0.37471527 33.85908066 -0.39786804 32.93300507 -0.42172241 31.97886658 C-0.46943674 30.01599759 -0.5146615 28.05306678 -0.55761719 26.09008789 C-0.62463932 23.0787057 -0.70240622 20.0677338 -0.78125 17.05664062 C-0.82617066 15.15366106 -0.87046246 13.25066653 -0.9140625 11.34765625 C-0.93796051 10.44241714 -0.96185852 9.53717804 -0.98648071 8.60450745 C-1.0033493 7.76701462 -1.0202179 6.92952179 -1.03759766 6.06665039 C-1.06305161 4.9586483 -1.06305161 4.9586483 -1.08901978 3.82826233 C-1 2 -1 2 0 0 Z " fill="#71C287" transform="translate(76,14)"/>
<path d="M0 0 C4.29 0 8.58 0 13 0 C13.04939701 5.92650126 13.08571817 11.85288297 13.10986328 17.77954102 C13.11992773 19.79616381 13.13358047 21.81277199 13.15087891 23.8293457 C13.17510769 26.72611089 13.18647859 29.62268331 13.1953125 32.51953125 C13.20563507 33.42274612 13.21595764 34.325961 13.22659302 35.25654602 C13.22674408 36.09719101 13.22689514 36.937836 13.22705078 37.80395508 C13.231492 38.54341873 13.23593323 39.28288239 13.24050903 40.04475403 C13 42 13 42 11 45 C8.65234375 45.328125 8.65234375 45.328125 5.9375 45.25 C5.03902344 45.23453125 4.14054687 45.2190625 3.21484375 45.203125 C1 45 1 45 0 44 C-0.0927833 42.61839885 -0.11747043 41.23211962 -0.11352539 39.84741211 C-0.11341209 38.52615578 -0.11341209 38.52615578 -0.11329651 37.1782074 C-0.10555458 35.74227989 -0.10555458 35.74227989 -0.09765625 34.27734375 C-0.0962413 33.30213272 -0.09482635 32.32692169 -0.09336853 31.32215881 C-0.08775133 28.19390857 -0.07519593 25.06572877 -0.0625 21.9375 C-0.05748722 19.82226666 -0.05292393 17.70703219 -0.04882812 15.59179688 C-0.03777631 10.39450393 -0.02050016 5.19726392 0 0 Z " fill="#B4D5BA" transform="translate(90,14)"/>
<path d="M0 0 C0.66 0.33 1.32 0.66 2 1 C0.46096383 4.49780948 -1.69088479 7.26475861 -4.07421875 10.21875 C-5.17528705 11.95006747 -5.17528705 11.95006747 -4.83984375 13.91015625 C-3.44065287 17.39186379 -1.26263066 20.35962664 0.8203125 23.46484375 C2.23416891 26.50323054 2.11829564 27.87854373 1 31 C-1.35270593 32.17635297 -2.820752 32.13359359 -5.4375 32.125 C-6.61119141 32.12886719 -6.61119141 32.12886719 -7.80859375 32.1328125 C-10 32 -10 32 -13 31 C-14.6875 28.4375 -14.6875 28.4375 -16 26 C-16.66 26.66 -17.32 27.32 -18 28 C-20.625 27.625 -20.625 27.625 -23 27 C-22.43667969 26.32195313 -21.87335938 25.64390625 -21.29296875 24.9453125 C-19.09538872 22.00161532 -17.35711163 19.42078296 -16 16 C-16.84472696 12.07228865 -18.7502955 9.27674351 -21 6 C-21.33 5.01 -21.66 4.02 -22 3 C-19.36 3 -16.72 3 -14 3 C-13.01 4.98 -12.02 6.96 -11 9 C-9.68 7.68 -8.36 6.36 -7 5 C-8.98 5.99 -8.98 5.99 -11 7 C-10.1875 4.0625 -10.1875 4.0625 -9 1 C-5.77390955 -0.07536348 -3.37822416 -0.14375422 0 0 Z " fill="#D1DCD4" transform="translate(198,27)"/>
<path d="M0 0 C0.66 0.33 1.32 0.66 2 1 C2.00410889 1.60996826 2.00821777 2.21993652 2.01245117 2.84838867 C2.04547575 5.62905792 2.11612568 8.40756157 2.1875 11.1875 C2.19330078 12.14720703 2.19910156 13.10691406 2.20507812 14.09570312 C2.35076991 18.77402833 2.4991009 21.29198172 5.2578125 25.19140625 C8.30452497 27.20084767 9.19302614 27.46622274 12.6875 26.75 C17.97921195 25.89855161 22.71351835 26.26889084 28 27 C27.34 28.32 26.68 29.64 26 31 C22.6043303 31.08745946 19.20895227 31.14054444 15.8125 31.1875 C14.85279297 31.21263672 13.89308594 31.23777344 12.90429688 31.26367188 C4.11222193 31.35493909 4.11222193 31.35493909 0 28 C-0.60328125 28.73089844 -0.60328125 28.73089844 -1.21875 29.4765625 C-3.4517553 31.38636966 -4.59825803 31.40401742 -7.5 31.375 C-8.2734375 31.38273437 -9.046875 31.39046875 -9.84375 31.3984375 C-12.45159728 30.91655268 -13.33871866 30.01270624 -15 28 C-15.66 28.99 -16.32 29.98 -17 31 C-19.3125 31.3984375 -19.3125 31.3984375 -22 31.375 C-22.886875 31.38273437 -23.77375 31.39046875 -24.6875 31.3984375 C-25.450625 31.26695313 -26.21375 31.13546875 -27 31 C-29.12280563 27.81579155 -29.28019537 26.79462745 -29.4140625 23.11328125 C-29.45273437 22.17548828 -29.49140625 21.23769531 -29.53125 20.27148438 C-29.57765625 18.80678711 -29.57765625 18.80678711 -29.625 17.3125 C-29.66367187 16.32443359 -29.70234375 15.33636719 -29.7421875 14.31835938 C-29.83645867 11.87909293 -29.92206218 9.43983405 -30 7 C-28.68 7 -27.36 7 -26 7 C-25 8 -25 8 -24.88647461 9.85766602 C-24.89171143 10.64842529 -24.89694824 11.43918457 -24.90234375 12.25390625 C-24.90556641 13.10791016 -24.90878906 13.96191406 -24.91210938 14.84179688 C-24.92048828 15.73962891 -24.92886719 16.63746094 -24.9375 17.5625 C-24.94201172 18.46419922 -24.94652344 19.36589844 -24.95117188 20.29492188 C-24.96299756 22.52997589 -24.98093362 24.76499602 -25 27 C-22.03 27 -19.06 27 -16 27 C-16 20.73 -16 14.46 -16 8 C-14.68 7.34 -13.36 6.68 -12 6 C-10 8 -10 8 -9.77294922 9.97119141 C-9.78342285 10.75671387 -9.79389648 11.54223633 -9.8046875 12.3515625 C-9.81113281 13.20234375 -9.81757812 14.053125 -9.82421875 14.9296875 C-9.84097656 15.81914063 -9.85773437 16.70859375 -9.875 17.625 C-9.88402344 18.5221875 -9.89304687 19.419375 -9.90234375 20.34375 C-9.92594868 22.56261322 -9.96182038 24.7813397 -10 27 C-7.03 27 -4.06 27 -1 27 C-1.00785522 25.82642944 -1.00785522 25.82642944 -1.01586914 24.62915039 C-1.03657106 21.10694167 -1.04963838 17.5847457 -1.0625 14.0625 C-1.07087891 12.83080078 -1.07925781 11.59910156 -1.08789062 10.33007812 C-1.09272461 8.5753418 -1.09272461 8.5753418 -1.09765625 6.78515625 C-1.10551147 5.15912476 -1.10551147 5.15912476 -1.11352539 3.50024414 C-1 1 -1 1 0 0 Z " fill="#191A1B" transform="translate(47,28)"/>
<path d="M0 0 C1.23943359 -0.00386719 1.23943359 -0.00386719 2.50390625 -0.0078125 C3.35855469 -0.00007813 4.21320312 0.00765625 5.09375 0.015625 C6.37572266 0.00402344 6.37572266 0.00402344 7.68359375 -0.0078125 C8.50988281 -0.00523438 9.33617188 -0.00265625 10.1875 0 C10.93708984 0.00225586 11.68667969 0.00451172 12.45898438 0.00683594 C14.85816623 0.29767912 16.45511889 1.18494584 18.59375 2.265625 C19.93621312 1.61753936 21.26807801 0.94739916 22.59375 0.265625 C26.42683969 -0.07661515 28.71542697 -0.27488148 32.03125 1.765625 C32.546875 2.260625 33.0625 2.755625 33.59375 3.265625 C33.26375 4.255625 32.93375 5.245625 32.59375 6.265625 C32.243125 5.770625 31.8925 5.275625 31.53125 4.765625 C28.55094226 2.45828998 26.25837305 2.88652606 22.59375 3.265625 C19.72228006 4.63559657 19.72228006 4.63559657 17.59375 6.265625 C17.2225 5.770625 16.85125 5.275625 16.46875 4.765625 C13.77143919 2.60777635 11.97327311 2.92767269 8.59375 3.265625 C5.80808941 4.17819806 5.80808941 4.17819806 3.59375 5.265625 C3.59375 4.605625 3.59375 3.945625 3.59375 3.265625 C1.28375 3.265625 -1.02625 3.265625 -3.40625 3.265625 C-3.40625 11.185625 -3.40625 19.105625 -3.40625 27.265625 C-1.09625 27.265625 1.21375 27.265625 3.59375 27.265625 C3.58327637 26.70053223 3.57280273 26.13543945 3.56201172 25.55322266 C3.52050212 22.99906847 3.4944404 20.44498518 3.46875 17.890625 C3.45199219 17.00117187 3.43523438 16.11171875 3.41796875 15.1953125 C3.41152344 14.34453125 3.40507812 13.49375 3.3984375 12.6171875 C3.38796387 11.83166504 3.37749023 11.04614258 3.36669922 10.23681641 C3.59375 8.265625 3.59375 8.265625 5.59375 6.265625 C10.14930556 6.82118056 10.14930556 6.82118056 11.59375 8.265625 C11.68026611 9.68132623 11.70079904 11.10122 11.69140625 12.51953125 C11.68818359 13.37353516 11.68496094 14.22753906 11.68164062 15.10742188 C11.67326172 16.00525391 11.66488281 16.90308594 11.65625 17.828125 C11.65173828 18.72982422 11.64722656 19.63152344 11.64257812 20.56054688 C11.63075225 22.79563814 11.6142722 25.03059937 11.59375 27.265625 C13.90375 27.265625 16.21375 27.265625 18.59375 27.265625 C18.58327637 26.70053223 18.57280273 26.13543945 18.56201172 25.55322266 C18.52050212 22.99906847 18.4944404 20.44498518 18.46875 17.890625 C18.45199219 17.00117187 18.43523438 16.11171875 18.41796875 15.1953125 C18.41152344 14.34453125 18.40507812 13.49375 18.3984375 12.6171875 C18.38796387 11.83166504 18.37749023 11.04614258 18.36669922 10.23681641 C18.59375 8.265625 18.59375 8.265625 20.59375 6.265625 C25.14930556 6.82118056 25.14930556 6.82118056 26.59375 8.265625 C26.68026611 9.68132623 26.70079904 11.10122 26.69140625 12.51953125 C26.68818359 13.37353516 26.68496094 14.22753906 26.68164062 15.10742188 C26.66907227 16.45416992 26.66907227 16.45416992 26.65625 17.828125 C26.65173828 18.72982422 26.64722656 19.63152344 26.64257812 20.56054688 C26.63075225 22.79563814 26.6142722 25.03059937 26.59375 27.265625 C28.90375 27.265625 31.21375 27.265625 33.59375 27.265625 C33.59375 20.665625 33.59375 14.065625 33.59375 7.265625 C33.92375 7.265625 34.25375 7.265625 34.59375 7.265625 C34.59375 14.195625 34.59375 21.125625 34.59375 28.265625 C31.62375 28.265625 28.65375 28.265625 25.59375 28.265625 C25.26375 21.995625 24.93375 15.725625 24.59375 9.265625 C23.27375 9.265625 21.95375 9.265625 20.59375 9.265625 C20.26375 15.535625 19.93375 21.805625 19.59375 28.265625 C16.62375 28.265625 13.65375 28.265625 10.59375 28.265625 C10.09875 18.860625 10.09875 18.860625 9.59375 9.265625 C8.60375 8.935625 7.61375 8.605625 6.59375 8.265625 C6.57393066 8.88606689 6.55411133 9.50650879 6.53369141 10.14575195 C6.43843155 12.95697037 6.32875698 15.76744666 6.21875 18.578125 C6.1878125 19.55458984 6.156875 20.53105469 6.125 21.53710938 C6.06699219 22.94379883 6.06699219 22.94379883 6.0078125 24.37890625 C5.9763916 25.24298096 5.9449707 26.10705566 5.91259766 26.99731445 C5.59375 29.265625 5.59375 29.265625 3.59375 32.265625 C1.28125 32.62890625 1.28125 32.62890625 -1.40625 32.578125 C-2.293125 32.57425781 -3.18 32.57039063 -4.09375 32.56640625 C-6.40625 32.265625 -6.40625 32.265625 -8.40625 30.265625 C-8.63330078 27.46826172 -8.63330078 27.46826172 -8.6015625 23.9453125 C-8.59511719 22.68847656 -8.58867187 21.43164062 -8.58203125 20.13671875 C-8.56527344 18.81800781 -8.54851563 17.49929687 -8.53125 16.140625 C-8.52121983 14.80078779 -8.51209404 13.46094348 -8.50390625 12.12109375 C-8.48027075 8.83575927 -8.44732234 5.55078035 -8.40625 2.265625 C-5.4774238 0.59556385 -3.36313029 0.0101212 0 0 Z " fill="#DFF0E1" transform="translate(11.40625,26.734375)"/>
<path d="M0 0 C2.41632861 2.29226283 3.23084836 3.91852512 3.4375 7.25 C2.65365109 11.7393165 2.15157846 13.19087135 -1.25 16.1875 C-14.00681541 24.76218418 -29.07686687 25.56535258 -43.9375 25.625 C-45.87822388 25.6401062 -45.87822388 25.6401062 -47.8581543 25.65551758 C-61.61607749 25.53221832 -78.4654377 23.79976816 -88.94921875 13.81640625 C-91.34583998 10.81523191 -91.64230949 8.97982507 -91.25 5.1875 C-87.77056431 -1.51553053 -82.01089076 -4.43322974 -75.09375 -6.78125 C-51.83236222 -13.02211014 -20.45862814 -14.93804594 0 0 Z M-86.875 2.125 C-88.82040005 5.04310008 -88.81160527 6.74766774 -88.25 10.1875 C-85.21960574 16.10398404 -79.15414842 17.98114249 -73.25 20.1875 C-64.22072356 22.94079779 -55.41864696 23.69102698 -46.04907227 23.63354492 C-43.94902829 23.62504665 -41.85173025 23.65390673 -39.75195312 23.68554688 C-26.34131359 23.75549995 -12.0308023 21.86303833 -1.25 13.1875 C1.06201886 10.32039692 1.06201886 10.32039692 0.75 6.8125 C-0.49054685 2.31551766 -2.31852055 0.42625913 -6.25 -1.8125 C-29.35682776 -12.85154956 -65.72583675 -13.48509668 -86.875 2.125 Z " fill="#1B1A54" transform="translate(290.25,30.8125)"/>
<path d="M0 0 C0.74121094 -0.03996094 1.48242188 -0.07992188 2.24609375 -0.12109375 C5.95779774 0.77397146 7.32635278 2.38038964 9.5625 5.4375 C10.15194502 8.57063539 10.03781588 11.57634278 9.875 14.75 C9.85244141 15.58595703 9.82988281 16.42191406 9.80664062 17.28320312 C9.7480061 19.33541149 9.65833215 21.38669202 9.5625 23.4375 C10.2225 23.7675 10.8825 24.0975 11.5625 24.4375 C10.5625 25.4375 10.5625 25.4375 7.75 25.5625 C5.12315284 25.45948639 3.07287153 25.08833706 0.5625 24.4375 C0.2325 24.7675 -0.0975 25.0975 -0.4375 25.4375 C-7.73957197 26.02637677 -7.73957197 26.02637677 -10.4375 23.75 C-11.61567092 21.02547975 -11.88931189 19.37427726 -11.4375 16.4375 C-9.16290616 13.56276903 -6.63396893 12.52448181 -3.25 11.25 C-2.34894531 10.90582031 -1.44789063 10.56164063 -0.51953125 10.20703125 C0.16753906 9.95308594 0.85460937 9.69914062 1.5625 9.4375 C1.5625 7.7875 1.5625 6.1375 1.5625 4.4375 C-4.01580016 4.31280901 -4.01580016 4.31280901 -9.4375 5.4375 C-8.4375 2.4375 -8.4375 2.4375 -6.65234375 1.27734375 C-4.31343519 0.39045602 -2.49559276 0.073527 0 0 Z M-2.4375 17.4375 C-1.4375 20.4375 -1.4375 20.4375 -1.4375 20.4375 Z " fill="#29A54B" transform="translate(160.4375,28.5625)"/>
<path d="M0 0 C2.97747849 3.36925197 3.61538353 5.2003407 3.375 9.6875 C-2.63473954 18.10113535 -12.95241142 20.7532313 -22.6300354 22.40869141 C-28.02801889 23.16309286 -33.46245073 23.16711066 -38.90136719 23.13354492 C-40.9925399 23.12503038 -43.08096886 23.15394813 -45.171875 23.18554688 C-57.73144616 23.25043332 -72.44399772 21.73868341 -82.625 13.6875 C-84.69913045 11.26368936 -85.56466526 9.96503981 -86.25 6.8125 C-85.44557063 2.79035316 -83.98415155 1.50035723 -80.78125 -0.93359375 C-60.49199649 -13.90842434 -19.76239189 -14.21587153 0 0 Z M-83.625 3.6875 C-84.45849951 6.64409873 -84.45849951 6.64409873 -83.625 9.6875 C-79.38126702 15.62872617 -72.72458622 17.81329209 -65.81542969 19.28662109 C-56.98871517 20.71014655 -48.29305902 21.12780546 -39.375 21.125 C-38.65121155 21.1260675 -37.9274231 21.12713501 -37.18170166 21.12823486 C-24.39064887 21.1010161 -11.78098359 20.5250498 -1 12.8125 C1.65722837 9.86052936 1.65722837 9.86052936 1.8125 6.125 C-0.24055656 1.21551693 -2.81508841 -0.25922903 -7.625 -2.3125 C-27.72151618 -9.24474774 -67.30783098 -14.2087499 -83.625 3.6875 Z " fill="#C1C1D1" transform="translate(287.625,31.3125)"/>
<path d="M0 0 C0.66 0 1.32 0 2 0 C0.43358249 4.30764815 -1.68336156 8.06171464 -4 12 C-2.35 11.34 -0.7 10.68 1 10 C0 13 0 13 -3 15 C-5.48046875 15.1953125 -5.48046875 15.1953125 -8.1875 15.125 C-9.08855469 15.10695313 -9.98960937 15.08890625 -10.91796875 15.0703125 C-11.60503906 15.04710937 -12.29210937 15.02390625 -13 15 C-13.33 14.01 -13.66 13.02 -14 12 C-16.91634129 11.7497843 -16.91634129 11.7497843 -20 12 C-20.99 13.485 -20.99 13.485 -22 15 C-22.99 14.67 -23.98 14.34 -25 14 C-24.01 12.02 -23.02 10.04 -22 8 C-22.44730469 8.5053125 -22.89460937 9.010625 -23.35546875 9.53125 C-28.35506003 14.90394511 -28.35506003 14.90394511 -31.9375 15.4375 C-32.9584375 15.2209375 -32.9584375 15.2209375 -34 15 C-34 14.34 -34 13.68 -34 13 C-34.99 13.33 -35.98 13.66 -37 14 C-35.7508258 10.54074837 -34.32472205 7.85306797 -32 5 C-30.68 5.33 -29.36 5.66 -28 6 C-28.474375 6.4125 -28.94875 6.825 -29.4375 7.25 C-31.16266518 9.182185 -31.56584875 10.48192275 -32 13 C-31.01 12.67 -30.02 12.34 -29 12 C-27.77030122 8.48809191 -27.77030122 8.48809191 -27 5 C-25.68 5 -24.36 5 -23 5 C-21.65835921 4.7018576 -20.32148827 4.37756808 -19 4 C-19 4.66 -19 5.32 -19 6 C-17.35 5.67 -15.7 5.34 -14 5 C-14 5.99 -14 6.98 -14 8 C-14.99 8 -15.98 8 -17 8 C-17 8.66 -17 9.32 -17 10 C-14.37098712 8.47793991 -12.15634036 7.15634036 -10 5 C-9.05125 5.061875 -8.1025 5.12375 -7.125 5.1875 C-3.78948436 5.3542549 -3.78948436 5.3542549 -1.75 2.5 C-0.88375 1.2625 -0.88375 1.2625 0 0 Z " fill="#E2E2EA" transform="translate(271,33)"/>
<path d="M0 0 C2.64 0 5.28 0 8 0 C8.99 1.98 9.98 3.96 11 6 C12.32 6 13.64 6 15 6 C14.76410156 6.70769531 14.52820313 7.41539063 14.28515625 8.14453125 C13.89635561 12.03786364 15.22311273 13.52347297 17.4375 16.6875 C21 21.83953033 21 21.83953033 21 24 C18.36 24 15.72 24 13 24 C12.0234375 22.20963542 11.046875 20.41927083 10.0703125 18.62890625 C9.08589976 16.83381685 9.08589976 16.83381685 7 16 C6.71125 16.763125 6.4225 17.52625 6.125 18.3125 C5 21 5 21 3 24 C1.68 23.67 0.36 23.34 -1 23 C2.465 18.05 2.465 18.05 6 13 C5.195625 11.411875 4.39125 9.82375 3.5625 8.1875 C2.17798895 5.45397818 0.97016264 2.91048792 0 0 Z " fill="#28A54A" transform="translate(176,30)"/>
<path d="M0 0 C1.98 0 3.96 0 6 0 C6 12.54 6 25.08 6 38 C4.02 37.67 2.04 37.34 0 37 C0 24.79 0 12.58 0 0 Z " fill="#21A144" transform="translate(95,16)"/>
<path d="M0 0 C0.99 0 1.98 0 3 0 C3 13.53 3 27.06 3 41 C5.97 41 8.94 41 12 41 C12 28.13 12 15.26 12 2 C12.33 2 12.66 2 13 2 C13.07410727 7.64165361 13.12858167 13.28302447 13.16479492 18.92504883 C13.1798898 20.84469538 13.20036773 22.7643074 13.22631836 24.68383789 C13.26267109 27.44165564 13.27971912 30.1990178 13.29296875 32.95703125 C13.30845261 33.81649857 13.32393646 34.67596588 13.33988953 35.56147766 C13.34022942 36.76238289 13.34022942 36.76238289 13.34057617 37.98754883 C13.34723801 38.6914827 13.35389984 39.39541656 13.36076355 40.12068176 C12.88820557 42.58236847 11.94800063 43.47118264 10 45 C7.7734375 45.328125 7.7734375 45.328125 5.375 45.25 C4.57835938 45.23453125 3.78171875 45.2190625 2.9609375 45.203125 C1 45 1 45 0 44 C-0.17288792 40.92255687 -0.28416967 37.86548057 -0.3515625 34.78515625 C-0.37471527 33.85908066 -0.39786804 32.93300507 -0.42172241 31.97886658 C-0.46943674 30.01599759 -0.5146615 28.05306678 -0.55761719 26.09008789 C-0.62463932 23.0787057 -0.70240622 20.0677338 -0.78125 17.05664062 C-0.82617066 15.15366106 -0.87046246 13.25066653 -0.9140625 11.34765625 C-0.93796051 10.44241714 -0.96185852 9.53717804 -0.98648071 8.60450745 C-1.0033493 7.76701462 -1.0202179 6.92952179 -1.03759766 6.06665039 C-1.06305161 4.9586483 -1.06305161 4.9586483 -1.08901978 3.82826233 C-1 2 -1 2 0 0 Z " fill="#2E2C2F" transform="translate(76,14)"/>
<path d="M0 0 C1.84271484 0.03673828 1.84271484 0.03673828 3.72265625 0.07421875 C6.9375 0.3125 6.9375 0.3125 9.9375 1.3125 C12.33240986 1.38220052 14.72917691 1.39698003 17.125 1.375 C18.39730469 1.36597656 19.66960937 1.35695313 20.98046875 1.34765625 C21.95628906 1.33605469 22.93210937 1.32445313 23.9375 1.3125 C23.9375 1.9725 23.9375 2.6325 23.9375 3.3125 C20.17314408 5.80305871 17.07132623 5.34340984 12.6875 4.9375 C11.42421875 4.82664062 10.1609375 4.71578125 8.859375 4.6015625 C7.89515625 4.50617187 6.9309375 4.41078125 5.9375 4.3125 C4.9475 5.7975 4.9475 5.7975 3.9375 7.3125 C5.2575 6.6525 6.5775 5.9925 7.9375 5.3125 C7.6075 6.9625 7.2775 8.6125 6.9375 10.3125 C4.6275 9.9825 2.3175 9.6525 -0.0625 9.3125 C-0.289375 10.01375 -0.51625 10.715 -0.75 11.4375 C-2.40883691 15.07114276 -4.20091785 17.51450856 -7.0625 20.3125 C-10.6875 21.375 -10.6875 21.375 -14.0625 21.3125 C-16.0625 20.1875 -16.0625 20.1875 -17.0625 18.3125 C-17 15.75 -17 15.75 -16.0625 13.3125 C-14 12 -14 12 -12.0625 11.3125 C-12.3925 13.2925 -12.7225 15.2725 -13.0625 17.3125 C-9.38829134 17.00631595 -8.28114487 16.55478216 -5.75 13.75 C-5.193125 12.945625 -4.63625 12.14125 -4.0625 11.3125 C-4.7225 10.9825 -5.3825 10.6525 -6.0625 10.3125 C-5.32 10.085625 -4.5775 9.85875 -3.8125 9.625 C-0.55110409 8.06842468 0.86644975 6.22731146 2.9375 3.3125 C-0.6925 3.3125 -4.3225 3.3125 -8.0625 3.3125 C-8.0625 4.6325 -8.0625 5.9525 -8.0625 7.3125 C-6.4125 6.6525 -4.7625 5.9925 -3.0625 5.3125 C-3.3925 6.3025 -3.7225 7.2925 -4.0625 8.3125 C-6.0425 8.6425 -8.0225 8.9725 -10.0625 9.3125 C-10.8125 7.0625 -10.8125 7.0625 -11.0625 4.3125 C-7.90645036 -0.0899895 -5.22061267 -0.15919849 0 0 Z " fill="#B8B8CA" transform="translate(236.0625,26.6875)"/>
<path d="M0 0 C2 2 2 2 2.125 4.625 C2.08375 5.40875 2.0425 6.1925 2 7 C2.53625 6.67 3.0725 6.34 3.625 6 C6.5391061 4.77300796 8.86867708 4.85766714 12 5 C12.33 6.32 12.66 7.64 13 9 C11.948125 8.95875 10.89625 8.9175 9.8125 8.875 C6.25989827 8.99147875 4.15133359 9.47208068 1 11 C0.67 10.67 0.34 10.34 0 10 C0.06005591 12.10495964 0.14885359 14.20911435 0.25 16.3125 C0.29640625 17.48425781 0.3428125 18.65601563 0.390625 19.86328125 C0.71181867 23.0542871 0.71181867 23.0542871 2.859375 24.8984375 C5.75553814 26.38879882 7.78180196 26.33522896 11 26 C13.30230766 25.10168984 13.30230766 25.10168984 15 24 C15.99 24.66 16.98 25.32 18 26 C21.43307165 26.24270825 21.43307165 26.24270825 25.1875 26.125 C26.45980469 26.10695313 27.73210937 26.08890625 29.04296875 26.0703125 C30.01878906 26.04710938 30.99460938 26.02390625 32 26 C32 26.99 32 27.98 32 29 C25.56768511 29.93741082 19.24713207 30.24735496 12.75 30.3125 C11.28046875 30.35600586 11.28046875 30.35600586 9.78125 30.40039062 C2.87203815 30.46174292 2.87203815 30.46174292 -0.6484375 28.59765625 C-2.77025228 24.51960184 -2.49901722 20.648365 -2.375 16.125 C-2.37371094 15.23941406 -2.37242187 14.35382812 -2.37109375 13.44140625 C-2.3059455 8.58424253 -1.87854874 4.55360215 0 0 Z " fill="#070808" transform="translate(148,29)"/>
<path d="M0 0 C3.1850357 1.76015131 3.83296972 2.49890916 5 6 C5.01546261 7.48354153 4.96835798 8.96829574 4.87890625 10.44921875 C4.83056641 11.29677734 4.78222656 12.14433594 4.73242188 13.01757812 C4.67634766 13.89865234 4.62027344 14.77972656 4.5625 15.6875 C4.51029297 16.58017578 4.45808594 17.47285156 4.40429688 18.39257812 C4.2747182 20.5954156 4.13975754 22.79778873 4 25 C1.69 25 -0.62 25 -3 25 C-3.06058594 23.72382812 -3.12117187 22.44765625 -3.18359375 21.1328125 C-3.26799568 19.46352984 -3.35264386 17.79425963 -3.4375 16.125 C-3.47681641 15.28324219 -3.51613281 14.44148438 -3.55664062 13.57421875 C-3.59853516 12.76855469 -3.64042969 11.96289062 -3.68359375 11.1328125 C-3.72025146 10.38918457 -3.75690918 9.64555664 -3.79467773 8.87939453 C-3.89955865 6.91135688 -3.89955865 6.91135688 -5 5 C-7.52733235 4.34444881 -7.52733235 4.34444881 -10 4 C-9.67 3.01 -9.34 2.02 -9 1 C-5.94306678 -0.52846661 -3.37015453 -0.23242445 0 0 Z " fill="#2EA74F" transform="translate(141,29)"/>
<path d="M0 0 C0 0.66 0 1.32 0 2 C-0.99 2 -1.98 2 -3 2 C-3 10.58 -3 19.16 -3 28 C-0.03 28 2.94 28 6 28 C6 22.06 6 16.12 6 10 C6.33 10 6.66 10 7 10 C7.05807043 13.10408807 7.09361914 16.2080364 7.125 19.3125 C7.15013672 20.63411133 7.15013672 20.63411133 7.17578125 21.98242188 C7.18222656 22.82998047 7.18867188 23.67753906 7.1953125 24.55078125 C7.20578613 25.33106689 7.21625977 26.11135254 7.22705078 26.9152832 C7 29 7 29 5 32 C2.6875 32.36328125 2.6875 32.36328125 0 32.3125 C-0.886875 32.30863281 -1.77375 32.30476563 -2.6875 32.30078125 C-5 32 -5 32 -7 30 C-7.22705078 27.20263672 -7.22705078 27.20263672 -7.1953125 23.6796875 C-7.18886719 22.42285156 -7.18242188 21.16601562 -7.17578125 19.87109375 C-7.15902344 18.55238281 -7.14226563 17.23367187 -7.125 15.875 C-7.11496983 14.53516279 -7.10584404 13.19531848 -7.09765625 11.85546875 C-7.07402075 8.57013427 -7.04107234 5.28515535 -7 2 C-4.35261084 0.5393715 -3.10551666 0 0 0 Z " fill="#2E2D2E" transform="translate(10,27)"/>
<path d="M0 0 C2.97 0 5.94 0 9 0 C10 1 10 1 10.11352539 3.59204102 C10.10828857 4.71795654 10.10305176 5.84387207 10.09765625 7.00390625 C10.09443359 8.21884766 10.09121094 9.43378906 10.08789062 10.68554688 C10.07951172 11.96494141 10.07113281 13.24433594 10.0625 14.5625 C10.05798828 15.84576172 10.05347656 17.12902344 10.04882812 18.45117188 C10.03699545 21.63416022 10.02051068 24.81705762 10 28 C9.26249512 27.99129883 8.52499023 27.98259766 7.76513672 27.97363281 C6.78818848 27.96686523 5.81124023 27.96009766 4.8046875 27.953125 C3.84030762 27.94442383 2.87592773 27.93572266 1.88232422 27.92675781 C-1.48300775 28.01227362 -4.6394601 28.496315 -7.9296875 29.171875 C-10 29 -10 29 -12.73828125 27.71875 C-16.29973727 23.43762152 -15.53431748 19.12822074 -15.3125 13.75 C-15.28994141 12.71875 -15.26738281 11.6875 -15.24414062 10.625 C-15.18527163 8.08185935 -15.10310065 5.54166887 -15 3 C-14.67 3 -14.34 3 -14 3 C-13.97812622 3.88522339 -13.97812622 3.88522339 -13.95581055 4.78833008 C-13.88131156 7.46371229 -13.78466005 10.13784892 -13.6875 12.8125 C-13.66494141 13.74126953 -13.64238281 14.67003906 -13.61914062 15.62695312 C-13.58369141 16.51962891 -13.54824219 17.41230469 -13.51171875 18.33203125 C-13.48553467 19.15421143 -13.45935059 19.9763916 -13.43237305 20.82348633 C-12.8999756 23.50351074 -12.21024163 24.41684872 -10 26 C-5.42590939 26.36302306 -1.93606919 26.62404613 2 24 C2 24.99 2 25.98 2 27 C3.98 27 5.96 27 8 27 C8 19.08 8 11.16 8 3 C6.02 3 4.04 3 2 3 C2.05220703 4.68029297 2.05220703 4.68029297 2.10546875 6.39453125 C2.13360839 7.86717251 2.16090837 9.33982998 2.1875 10.8125 C2.21263672 11.55048828 2.23777344 12.28847656 2.26367188 13.04882812 C2.29296875 15.20703125 2.29296875 15.20703125 2 19 C1.01 19.99 0.02 20.98 -1 22 C-0.67 14.74 -0.34 7.48 0 0 Z " fill="#C0D1C3" transform="translate(65,27)"/>
<path d="M0 0 C0.99 0 1.98 0 3 0 C3 13.53 3 27.06 3 41 C6.3 41 9.6 41 13 41 C12.34 42.32 11.68 43.64 11 45 C9.35425434 45.02688151 7.70838587 45.04634123 6.0625 45.0625 C5.14597656 45.07410156 4.22945313 45.08570313 3.28515625 45.09765625 C1 45 1 45 0 44 C-0.0927833 42.61839885 -0.11747043 41.23211962 -0.11352539 39.84741211 C-0.11341209 38.52615578 -0.11341209 38.52615578 -0.11329651 37.1782074 C-0.10555458 35.74227989 -0.10555458 35.74227989 -0.09765625 34.27734375 C-0.0962413 33.30213272 -0.09482635 32.32692169 -0.09336853 31.32215881 C-0.08775133 28.19390857 -0.07519593 25.06572877 -0.0625 21.9375 C-0.05748722 19.82226666 -0.05292393 17.70703219 -0.04882812 15.59179688 C-0.03777631 10.39450704 -0.02102146 5.19725855 0 0 Z " fill="#0B0B0C" transform="translate(90,14)"/>
<path d="M0 0 C2.05078125 0.03255208 4.1015625 0.06510417 6.15234375 0.09765625 C8.36184207 4.50795408 8.38940855 8.58705949 8.27734375 13.41015625 C8.26832031 14.15072266 8.25929688 14.89128906 8.25 15.65429688 C8.22658588 17.46889092 8.1907199 19.28331696 8.15234375 21.09765625 C9.2705819 18.86117994 9.34630436 17.44874096 9.46875 14.96484375 C9.51064453 14.15917969 9.55253906 13.35351562 9.59570312 12.5234375 C9.63501953 11.68167969 9.67433594 10.83992188 9.71484375 9.97265625 C9.75802734 9.12316406 9.80121094 8.27367187 9.84570312 7.3984375 C9.95188611 5.29837402 10.05262872 3.19803677 10.15234375 1.09765625 C11.14234375 1.09765625 12.13234375 1.09765625 13.15234375 1.09765625 C13.18137952 4.20180327 13.19915445 7.30591534 13.21484375 10.41015625 C13.22322266 11.29123047 13.23160156 12.17230469 13.24023438 13.08007812 C13.24506836 14.35141602 13.24506836 14.35141602 13.25 15.6484375 C13.25785522 16.81886597 13.25785522 16.81886597 13.26586914 18.01293945 C13.15234375 20.09765625 13.15234375 20.09765625 12.15234375 23.09765625 C9.77734375 23.28515625 9.77734375 23.28515625 7.15234375 23.09765625 C5.12113668 20.05084564 4.905745 19.49647301 4.95703125 16.0859375 C4.96347656 15.32861328 4.96992187 14.57128906 4.9765625 13.79101562 C4.99332031 13.00533203 5.01007812 12.21964844 5.02734375 11.41015625 C5.03636719 10.61287109 5.04539062 9.81558594 5.0546875 8.99414062 C5.0782279 7.02851725 5.11409828 5.0630485 5.15234375 3.09765625 C2.84234375 3.09765625 0.53234375 3.09765625 -1.84765625 3.09765625 C-1.84765625 9.69765625 -1.84765625 16.29765625 -1.84765625 23.09765625 C-2.17765625 23.09765625 -2.50765625 23.09765625 -2.84765625 23.09765625 C-2.87653137 19.45183938 -2.8944121 15.80605162 -2.91015625 12.16015625 C-2.91853516 11.11923828 -2.92691406 10.07832031 -2.93554688 9.00585938 C-2.94038086 7.52182617 -2.94038086 7.52182617 -2.9453125 6.0078125 C-2.95054932 5.09136963 -2.95578613 4.17492676 -2.96118164 3.23071289 C-2.8178913 0.53839524 -2.70088781 0.14275306 0 0 Z " fill="#928F8F" transform="translate(51.84765625,26.90234375)"/>
<path d="M0 0 C1.8125 1.125 1.8125 1.125 3 3 C3.375 6 3.375 6 3 9 C1.5 10.875 1.5 10.875 0 12 C0.33 12.66 0.66 13.32 1 14 C-0.62418745 14.08090971 -2.24951745 14.13914995 -3.875 14.1875 C-5.23238281 14.23970703 -5.23238281 14.23970703 -6.6171875 14.29296875 C-7.79667969 14.14794922 -7.79667969 14.14794922 -9 14 C-11.44897847 10.32653229 -11.31537716 8.33643601 -11 4 C-7.66789793 0.66789793 -4.75033185 -0.6090169 0 0 Z " fill="#379C52" transform="translate(115,14)"/>
<path d="M0 0 C0.66 0.33 1.32 0.66 2 1 C2.00410889 1.60996826 2.00821777 2.21993652 2.01245117 2.84838867 C2.04547575 5.62905792 2.11612568 8.40756157 2.1875 11.1875 C2.19330078 12.14720703 2.19910156 13.10691406 2.20507812 14.09570312 C2.35076991 18.77402833 2.4991009 21.29198172 5.2578125 25.19140625 C8.30452497 27.20084767 9.19302614 27.46622274 12.6875 26.75 C17.97921195 25.89855161 22.71351835 26.26889084 28 27 C27.34 28.32 26.68 29.64 26 31 C22.5834948 31.08724706 19.16727687 31.14047325 15.75 31.1875 C14.78191406 31.21263672 13.81382813 31.23777344 12.81640625 31.26367188 C11.88183594 31.27333984 10.94726562 31.28300781 9.984375 31.29296875 C9.12553711 31.3086792 8.26669922 31.32438965 7.38183594 31.34057617 C4.42753045 30.91814319 3.11334665 30.09006801 1 28 C-0.88931332 23.19688656 -0.41419377 17.40595062 -0.625 12.3125 C-0.6765625 11.24193359 -0.728125 10.17136719 -0.78125 9.06835938 C-0.82507812 8.05193359 -0.86890625 7.03550781 -0.9140625 5.98828125 C-0.9548291 5.05540283 -0.9955957 4.12252441 -1.03759766 3.16137695 C-1 1 -1 1 0 0 Z " fill="#010202" transform="translate(47,28)"/>
<path d="M0 0 C0.33 0.66 0.66 1.32 1 2 C0.22265625 3.7265625 0.22265625 3.7265625 -0.9375 5.625 C-1.618125 6.73875 -2.29875 7.8525 -3 9 C2.94 9.99 2.94 9.99 9 11 C9 11.33 9 11.66 9 12 C4.85418181 12.02931979 0.70839075 12.04690557 -3.4375 12.0625 C-4.60216797 12.07087891 -5.76683594 12.07925781 -6.96679688 12.08789062 C-13.40326202 12.10602151 -19.62065875 11.86649876 -26 11 C-26 10.34 -26 9.68 -26 9 C-24.906875 8.401875 -23.81375 7.80375 -22.6875 7.1875 C-20.05781761 5.69770009 -18.08740271 4.19726601 -16 2 C-15.34 2 -14.68 2 -14 2 C-14 3.32 -14 4.64 -14 6 C-13.34 6 -12.68 6 -12 6 C-12 6.66 -12 7.32 -12 8 C-6.32976351 6.64994369 -3.82042691 4.1842771 0 0 Z " fill="#201F58" transform="translate(249,40)"/>
<path d="M0 0 C0 8.91 0 17.82 0 27 C3.3 27 6.6 27 10 27 C9 30 9 30 7 31 C5.45976004 31.06950541 3.91665012 31.08452357 2.375 31.0625 C1.14910156 31.04896484 1.14910156 31.04896484 -0.1015625 31.03515625 C-0.72804688 31.02355469 -1.35453125 31.01195313 -2 31 C-4.09352976 27.56632144 -4.23437612 24.90636407 -4.1953125 20.921875 C-4.18886719 19.76171875 -4.18242188 18.6015625 -4.17578125 17.40625 C-4.15902344 16.1996875 -4.14226562 14.993125 -4.125 13.75 C-4.11597656 12.52796875 -4.10695313 11.3059375 -4.09765625 10.046875 C-4.07409513 7.03105218 -4.04119706 4.01562508 -4 1 C-1 0 -1 0 0 0 Z " fill="#141315" transform="translate(121,28)"/>
<path d="M0 0 C1.98 0 3.96 0 6 0 C6 7.92 6 15.84 6 24 C4.02 24 2.04 24 0 24 C0 16.08 0 8.16 0 0 Z " fill="#22A245" transform="translate(109,30)"/>
<path d="M0 0 C0.91007812 0.00902344 1.82015625 0.01804687 2.7578125 0.02734375 C3.80582031 0.04474609 3.80582031 0.04474609 4.875 0.0625 C4.08866078 1.21199588 3.29573742 2.35698989 2.5 3.5 C2.05914062 4.13808594 1.61828125 4.77617188 1.1640625 5.43359375 C-0.125 7.0625 -0.125 7.0625 -2.125 8.0625 C-2.393125 8.660625 -2.66125 9.25875 -2.9375 9.875 C-4.52715026 12.8033031 -6.33605996 14.26960998 -9.125 16.0625 C-11.4375 15.8125 -11.4375 15.8125 -13.125 15.0625 C-12.795 13.4125 -12.465 11.7625 -12.125 10.0625 C-13.115 10.3925 -14.105 10.7225 -15.125 11.0625 C-15.125 10.0725 -15.125 9.0825 -15.125 8.0625 C-13.805 8.0625 -12.485 8.0625 -11.125 8.0625 C-11.125 6.4125 -11.125 4.7625 -11.125 3.0625 C-10.135 4.5475 -10.135 4.5475 -9.125 6.0625 C-7.145 5.7325 -5.165 5.4025 -3.125 5.0625 C-3.455 5.0625 -3.785 5.0625 -4.125 5.0625 C-5.115 5.0625 -6.105 5.0625 -7.125 5.0625 C-7.125 3.7425 -7.125 2.4225 -7.125 1.0625 C-4.60024538 -0.19987731 -2.81299534 -0.03606404 0 0 Z " fill="#353568" transform="translate(235.125,28.9375)"/>
<path d="M0 0 C5.2295082 2.3442623 5.2295082 2.3442623 7 5 C7.4914893 9.35319094 7.61608682 11.79583031 5.625 15.6875 C-7.08005358 26.8800472 -24.34066079 27.48984085 -40.32861328 26.56005859 C-42.88739945 26.38996946 -45.44382781 26.20529429 -48 26 C-48 25.67 -48 25.34 -48 25 C-46.98969727 24.98598145 -46.98969727 24.98598145 -45.95898438 24.97167969 C-19.80697838 25.20158293 -19.80697838 25.20158293 3 14 C4.65153759 10.5325286 4.65153759 10.5325286 4 7 C2.1687189 4.18900586 2.1687189 4.18900586 0 2 C0 1.34 0 0.68 0 0 Z " fill="#24235C" transform="translate(286,29)"/>
<path d="M0 0 C0.66 0 1.32 0 2 0 C2 8.58 2 17.16 2 26 C5.3 26 8.6 26 12 26 C11.34 27.32 10.68 28.64 10 30 C8.54207116 30.05399736 7.08357288 30.09279177 5.625 30.125 C4.40683594 30.15980469 4.40683594 30.15980469 3.1640625 30.1953125 C1 30 1 30 -1 28 C-1.24291992 25.31030273 -1.24291992 25.31030273 -1.23046875 21.93359375 C-1.22853516 20.72638672 -1.22660156 19.51917969 -1.22460938 18.27539062 C-1.21236328 17.00888672 -1.20011719 15.74238281 -1.1875 14.4375 C-1.18685547 13.16712891 -1.18621094 11.89675781 -1.18554688 10.58789062 C-1.14010053 1.14010053 -1.14010053 1.14010053 0 0 Z " fill="#000002" transform="translate(105,29)"/>
<path d="M0 0 C1.32 0.66 2.64 1.32 4 2 C4 8.6 4 15.2 4 22 C6.64 22 9.28 22 12 22 C12 22.99 12 23.98 12 25 C10.37581255 25.08090971 8.75048255 25.13914995 7.125 25.1875 C6.22007813 25.22230469 5.31515625 25.25710937 4.3828125 25.29296875 C3.20332031 25.14794922 3.20332031 25.14794922 2 25 C-0.10954226 21.83568661 -0.28814969 20.80460205 -0.44921875 17.1484375 C-0.49240234 16.21515625 -0.53558594 15.281875 -0.58007812 14.3203125 C-0.61552734 13.34835938 -0.65097656 12.37640625 -0.6875 11.375 C-0.73455078 10.3953125 -0.78160156 9.415625 -0.83007812 8.40625 C-1.05550932 3.06981322 -1.05550932 3.06981322 -1 1 C-0.67 0.67 -0.34 0.34 0 0 Z " fill="#000101" transform="translate(18,34)"/>
<path d="M0 0 C1.32 0 2.64 0 4 0 C4 6.6 4 13.2 4 20 C7.3 20 10.6 20 14 20 C13.34 21.32 12.68 22.64 12 24 C10.54207116 24.05399736 9.08357288 24.09279177 7.625 24.125 C6.40683594 24.15980469 6.40683594 24.15980469 5.1640625 24.1953125 C3 24 3 24 1 22 C0.77294922 20.02880859 0.77294922 20.02880859 0.8046875 17.6484375 C0.81113281 16.79765625 0.81757813 15.946875 0.82421875 15.0703125 C0.84097656 14.18085937 0.85773438 13.29140625 0.875 12.375 C0.88402344 11.4778125 0.89304688 10.580625 0.90234375 9.65625 C0.9259503 7.43723414 0.9588769 5.21874923 1 3 C0.34 3 -0.32 3 -1 3 C-0.67 2.01 -0.34 1.02 0 0 Z " fill="#000202" transform="translate(132,35)"/>
<path d="M0 0 C0.99 0 1.98 0 3 0 C3 11.55 3 23.1 3 35 C2.01 35 1.02 35 0 35 C0 23.45 0 11.9 0 0 Z " fill="#27A449" transform="translate(82,17)"/>
<path d="M0 0 C0.66 0.33 1.32 0.66 2 1 C1.505 1.37125 1.01 1.7425 0.5 2.125 C-1.25026046 3.99068798 -1.25026046 3.99068798 -1.4375 6.9375 C-1.22044206 9.98472184 -1.22044206 9.98472184 0.375 12.125 C14.3750847 22.1250605 34.54430181 21.53351393 51 22 C51 22.33 51 22.66 51 23 C11.79539405 24.11865645 11.79539405 24.11865645 -1 14 C-3.18763351 11.47117595 -3.94721267 10.36197027 -4.4375 7 C-3.90883564 3.37487294 -2.79352638 2.26974019 0 0 Z " fill="#D1D1DD" transform="translate(206,31)"/>
<path d="M0 0 C0.99 0 1.98 0 3 0 C3.98414433 1.91411557 4.96213349 3.8313967 5.9375 5.75 C6.48277344 6.81734375 7.02804688 7.8846875 7.58984375 8.984375 C9.85526599 13.82898988 9.85526599 13.82898988 10 16 C8.78515625 18.140625 8.78515625 18.140625 7.0625 20.25 C6.49660156 20.95640625 5.93070313 21.6628125 5.34765625 22.390625 C4.90292969 22.92171875 4.45820313 23.4528125 4 24 C2.68 23.34 1.36 22.68 0 22 C0.01160156 20.79601562 0.02320313 19.59203125 0.03515625 18.3515625 C0.04453434 16.77604321 0.05363452 15.20052225 0.0625 13.625 C0.07087891 12.8309375 0.07925781 12.036875 0.08789062 11.21875 C0.23040151 6.97607778 0.23040151 6.97607778 -1 3 C-0.67 2.01 -0.34 1.02 0 0 Z M1 6 C1 11.28 1 16.56 1 22 C1.66 22 2.32 22 3 22 C4.89921719 19.89242627 4.89921719 19.89242627 6 17 C5.39619529 13.93798554 5.39619529 13.93798554 4 11 C3.443125 9.576875 3.443125 9.576875 2.875 8.125 C2.58625 7.42375 2.2975 6.7225 2 6 C1.67 6 1.34 6 1 6 Z " fill="#19191A" transform="translate(171,28)"/>
<path d="M0 0 C2.97 0 5.94 0 9 0 C9.33 1.32 9.66 2.64 10 4 C9.01 4.495 9.01 4.495 8 5 C8 4.34 8 3.68 8 3 C5.69 3 3.38 3 1 3 C1 10.92 1 18.84 1 27 C3.31 27 5.62 27 8 27 C8 21.06 8 15.12 8 9 C8.66 8.67 9.32 8.34 10 8 C10 14.6 10 21.2 10 28 C6.7 28 3.4 28 0 28 C0 18.76 0 9.52 0 0 Z " fill="#C8D5CC" transform="translate(121,27)"/>
<path d="M0 0 C0.99 0.33 1.98 0.66 3 1 C2.67 2.65 2.34 4.3 2 6 C2.66 6.33 3.32 6.66 4 7 C2.68 8.32 1.36 9.64 0 11 C-0.99 10.67 -1.98 10.34 -3 10 C-2.01 8.02 -1.02 6.04 0 4 C-0.44730469 4.5053125 -0.89460937 5.010625 -1.35546875 5.53125 C-6.35506003 10.90394511 -6.35506003 10.90394511 -9.9375 11.4375 C-10.9584375 11.2209375 -10.9584375 11.2209375 -12 11 C-12 10.34 -12 9.68 -12 9 C-12.99 9.33 -13.98 9.66 -15 10 C-13.7508258 6.54074837 -12.32472205 3.85306797 -10 1 C-8.68 1.33 -7.36 1.66 -6 2 C-6.7115625 2.61875 -6.7115625 2.61875 -7.4375 3.25 C-9.16266518 5.182185 -9.56584875 6.48192275 -10 9 C-9.01 8.67 -8.02 8.34 -7 8 C-5.77030122 4.48809191 -5.77030122 4.48809191 -5 1 C-3.68 1 -2.36 1 -1 1 C-0.67 0.67 -0.34 0.34 0 0 Z " fill="#DFDFE7" transform="translate(249,37)"/>
<path d="M0 0 C0 0.33 0 0.66 0 1 C-1.216875 1.103125 -2.43375 1.20625 -3.6875 1.3125 C-7.41390245 1.77499676 -9.95879456 2.69605648 -13 5 C-13.33 5.66 -13.66 6.32 -14 7 C-13.484375 6.649375 -12.96875 6.29875 -12.4375 5.9375 C-9.05993333 4.6384359 -6.49531943 5.32782319 -3 6 C-2.67 7.65 -2.34 9.3 -2 11 C-6.58154261 13.39542583 -11.0276578 15.50829734 -16 17 C-16 16.01 -16 15.02 -16 14 C-8.71428571 10.57142857 -8.71428571 10.57142857 -4 11 C-4.33 10.01 -4.66 9.02 -5 8 C-8.5219721 7.91995518 -11.61981469 7.95994298 -15 9 C-15 7.02 -15 5.04 -15 3 C-9.8531808 -0.16727335 -5.841744 -0.35050464 0 0 Z " fill="#BBCCC0" transform="translate(165,27)"/>
<path d="M0 0 C1.13308594 -0.01417969 2.26617187 -0.02835938 3.43359375 -0.04296875 C6.45794705 0.17979885 7.96498362 0.76363208 10.5625 2.1875 C11.90496312 1.53941436 13.23682801 0.86927416 14.5625 0.1875 C18.39558969 -0.15474015 20.68417697 -0.35300648 24 1.6875 C24.515625 2.1825 25.03125 2.6775 25.5625 3.1875 C25.2325 4.1775 24.9025 5.1675 24.5625 6.1875 C24.211875 5.6925 23.86125 5.1975 23.5 4.6875 C20.51969226 2.38016498 18.22712305 2.80840106 14.5625 3.1875 C11.69103006 4.55747157 11.69103006 4.55747157 9.5625 6.1875 C9.19125 5.6925 8.82 5.1975 8.4375 4.6875 C5.74018919 2.52965135 3.94202311 2.84954769 0.5625 3.1875 C-2.22316059 4.10007306 -2.22316059 4.10007306 -4.4375 5.1875 C-4.4375 4.5275 -4.4375 3.8675 -4.4375 3.1875 C-6.7475 3.1875 -9.0575 3.1875 -11.4375 3.1875 C-7.99905031 -0.25094969 -4.64698503 0.02637335 0 0 Z " fill="#C1CCC2" transform="translate(19.4375,26.8125)"/>
<path d="M0 0 C2 2 2 2 2.125 4.625 C2.08375 5.40875 2.0425 6.1925 2 7 C2.53625 6.67 3.0725 6.34 3.625 6 C6.5391061 4.77300796 8.86867708 4.85766714 12 5 C12.33 6.32 12.66 7.64 13 9 C11.948125 8.95875 10.89625 8.9175 9.8125 8.875 C6.25989827 8.99147875 4.15133359 9.47208068 1 11 C0.67 10.67 0.34 10.34 0 10 C0.01160156 10.73605469 0.02320313 11.47210938 0.03515625 12.23046875 C0.04417969 13.20628906 0.05320313 14.18210937 0.0625 15.1875 C0.07410156 16.15042969 0.08570313 17.11335938 0.09765625 18.10546875 C0.00486622 20.85576513 -0.37888315 23.32479591 -1 26 C-1.33 26 -1.66 26 -2 26 C-2.05849554 22.79174438 -2.09376162 19.58362767 -2.125 16.375 C-2.15013672 15.01955078 -2.15013672 15.01955078 -2.17578125 13.63671875 C-2.21201643 8.67249848 -1.96444146 4.65588093 0 0 Z " fill="#222223" transform="translate(148,29)"/>
<path d="M0 0 C0.33 0 0.66 0 1 0 C1.08701039 3.60401481 1.14039388 7.20776012 1.1875 10.8125 C1.22520508 12.34874023 1.22520508 12.34874023 1.26367188 13.91601562 C1.27817383 15.39038086 1.27817383 15.39038086 1.29296875 16.89453125 C1.31653442 18.25348511 1.31653442 18.25348511 1.34057617 19.63989258 C1 22 1 22 -0.37695312 23.80078125 C-2.56772783 25.4194764 -3.99638362 25.30450506 -6.6875 25.1875 C-7.49574219 25.16042969 -8.30398437 25.13335937 -9.13671875 25.10546875 C-9.75160156 25.07066406 -10.36648437 25.03585938 -11 25 C-11.33 24.34 -11.66 23.68 -12 23 C-11.67 22.34 -11.34 21.68 -11 21 C-10.84932786 19.5534758 -10.75138964 18.1012066 -10.68359375 16.6484375 C-10.64169922 15.79765625 -10.59980469 14.946875 -10.55664062 14.0703125 C-10.51732422 13.18085937 -10.47800781 12.29140625 -10.4375 11.375 C-10.39431641 10.4778125 -10.35113281 9.580625 -10.30664062 8.65625 C-10.20043139 6.43765717 -10.09838806 4.2189512 -10 2 C-9.67 2 -9.34 2 -9 2 C-9 8.27 -9 14.54 -9 21 C-6.03 21 -3.06 21 0 21 C0 14.07 0 7.14 0 0 Z " fill="#363436" transform="translate(46,34)"/>
<path d="M0 0 C0.66 0.33 1.32 0.66 2 1 C0.22054913 5.04420651 -2.39529673 8.46078487 -5 12 C-6.32 10.68 -7.64 9.36 -9 8 C-8.67 7.01 -8.34 6.02 -8 5 C-8.33 5.66 -8.66 6.32 -9 7 C-9.66 6.67 -10.32 6.34 -11 6 C-10.1875 3.5625 -10.1875 3.5625 -9 1 C-5.77390955 -0.07536348 -3.37822416 -0.14375422 0 0 Z " fill="#437852" transform="translate(198,27)"/>
<path d="M0 0 C4 4.75 4 4.75 4 7 C7.63 7 11.26 7 15 7 C15 7.99 15 8.98 15 10 C12.64729407 11.17635297 11.179248 11.13359359 8.5625 11.125 C7.38880859 11.12886719 7.38880859 11.12886719 6.19140625 11.1328125 C4 11 4 11 1 10 C-0.8125 7.1875 -0.8125 7.1875 -2 4 C-1.1875 1.625 -1.1875 1.625 0 0 Z " fill="#121415" transform="translate(184,48)"/>
<path d="M0 0 C-0.66 1.32 -1.32 2.64 -2 4 C-8.27 4 -14.54 4 -21 4 C-21.33 3.34 -21.66 2.68 -22 2 C-14.28522417 -0.64122886 -8.05914682 -1.29382821 0 0 Z " fill="#0A0B0B" transform="translate(75,55)"/>
<path d="M0 0 C0.33 0.66 0.66 1.32 1 2 C0.22265625 3.7265625 0.22265625 3.7265625 -0.9375 5.625 C-1.618125 6.73875 -2.29875 7.8525 -3 9 C2.94 9.99 2.94 9.99 9 11 C9 11.33 9 11.66 9 12 C1.41 12 -6.18 12 -14 12 C-11 9 -11 9 -8.6875 7.6875 C-5.24491939 5.52587962 -2.80657954 2.93711813 0 0 Z " fill="#151450" transform="translate(249,40)"/>
<path d="M0 0 C0 0.33 0 0.66 0 1 C-1.0621875 1.23074219 -2.124375 1.46148438 -3.21875 1.69921875 C-11.95150818 3.68271688 -19.43466276 5.43466276 -26 12 C-26.64767793 14.57061311 -26.64767793 14.57061311 -27 17 C-28.125 15.25 -28.125 15.25 -29 13 C-27.92914041 8.85041909 -24.51466675 6.19060098 -21 4 C-13.8706994 0.9047899 -7.71673745 -1.57842357 0 0 Z " fill="#212059" transform="translate(229,23)"/>
<path d="M0 0 C-15.00429674 7.88999947 -30.59115506 6.01379035 -47 5 C-47 4.67 -47 4.34 -47 4 C-46.19481934 3.9906543 -45.38963867 3.98130859 -44.56005859 3.97167969 C-25.16441545 4.06780536 -25.16441545 4.06780536 -6.43359375 -0.2578125 C-3.79643948 -1.06208106 -2.55010407 -0.94803869 0 0 Z " fill="#A4A4BB" transform="translate(283,48)"/>
<path d="M0 0 C0.33 0.99 0.66 1.98 1 3 C-1.32340028 7.29079567 -4.04446596 9.70848114 -8.6875 11.125 C-12 11 -12 11 -14 9.875 C-15 8 -15 8 -14.9375 5.4375 C-14 3 -14 3 -11.9375 1.6875 C-11.298125 1.460625 -10.65875 1.23375 -10 1 C-10.33 2.98 -10.66 4.96 -11 7 C-5.59950264 6.68232368 -3.47662935 3.80003673 0 0 Z " fill="#EAEAEF" transform="translate(234,37)"/>
<path d="M0 0 C0.99 0 1.98 0 3 0 C3.02895976 3.12498063 3.04678483 6.2499269 3.0625 9.375 C3.07087891 10.26445313 3.07925781 11.15390625 3.08789062 12.0703125 C3.09111328 12.92109375 3.09433594 13.771875 3.09765625 14.6484375 C3.10289307 15.43395996 3.10812988 16.21948242 3.11352539 17.02880859 C3 19 3 19 2 21 C1.01 20.67 0.02 20.34 -1 20 C-0.67 13.4 -0.34 6.8 0 0 Z " fill="#0C0C0C" transform="translate(62,28)"/>
<path d="M0 0 C-0.03480469 0.62648437 -0.06960937 1.25296875 -0.10546875 1.8984375 C-0.13253906 2.71570312 -0.15960938 3.53296875 -0.1875 4.375 C-0.22230469 5.18710937 -0.25710937 5.99921875 -0.29296875 6.8359375 C-0.19628906 7.55007812 -0.09960938 8.26421875 0 9 C0.99 9.66 1.98 10.32 3 11 C0.1875 11.625 0.1875 11.625 -3 12 C-3.99 11.34 -4.98 10.68 -6 10 C-6.40843923 7.28796348 -6.13336867 4.7562858 -6 2 C-2.25 0 -2.25 0 0 0 Z " fill="#25A348" transform="translate(157,41)"/>
<path d="M0 0 C0.99 0 1.98 0 3 0 C3.33 0.66 3.66 1.32 4 2 C4.66 2.33 5.32 2.66 6 3 C6 3.66 6 4.32 6 5 C7.32 4.34 8.64 3.68 10 3 C9 6 9 6 6 8 C3.51953125 8.1953125 3.51953125 8.1953125 0.8125 8.125 C-0.08855469 8.10695313 -0.98960937 8.08890625 -1.91796875 8.0703125 C-2.60503906 8.04710937 -3.29210937 8.02390625 -4 8 C-2.98375849 4.95127546 -1.84526962 2.62596061 0 0 Z " fill="#DEDDE6" transform="translate(262,40)"/>
<path d="M0 0 C1.6026782 -0.10824843 3.20745748 -0.18570645 4.8125 -0.25 C5.70582031 -0.29640625 6.59914062 -0.3428125 7.51953125 -0.390625 C10 0 10 0 11.82421875 1.828125 C13 4 13 4 13 7 C13.66 7 14.32 7 15 7 C15.66 5.68 16.32 4.36 17 3 C17 6 17 6 15 8.1875 C14.01 9.0846875 14.01 9.0846875 13 10 C10 5.25 10 5.25 10 3 C7.36 3 4.72 3 2 3 C2.66 4.32 3.32 5.64 4 7 C3.01 7.495 3.01 7.495 2 8 C0.23537317 4.91190305 0 3.76687864 0 0 Z " fill="#B1C4B6" transform="translate(174,27)"/>
<path d="M0 0 C0.33 0.66 0.66 1.32 1 2 C1.66 2.33 2.32 2.66 3 3 C2.34 3 1.68 3 1 3 C0.67 5.31 0.34 7.62 0 10 C-1.32 10.33 -2.64 10.66 -4 11 C-3.25 6.25 -3.25 6.25 -1 4 C-3.88575819 4.39803561 -4.82189513 4.79009069 -6.75 7.0625 C-7.1625 7.701875 -7.575 8.34125 -8 9 C-8 8.34 -8 7.68 -8 7 C-8.66 6.67 -9.32 6.34 -10 6 C-9.01 4.35 -8.02 2.7 -7 1 C-4.69 1.33 -2.38 1.66 0 2 C0 1.34 0 0.68 0 0 Z " fill="#333267" transform="translate(243,35)"/>
<path d="M0 0 C2.64 0 5.28 0 8 0 C8 0.99 8 1.98 8 3 C6.02 3 4.04 3 2 3 C2.03480469 4.12019531 2.06960937 5.24039063 2.10546875 6.39453125 C2.13360839 7.86717251 2.16090837 9.33982998 2.1875 10.8125 C2.21263672 11.55048828 2.23777344 12.28847656 2.26367188 13.04882812 C2.29296875 15.20703125 2.29296875 15.20703125 2 19 C1.01 19.99 0.02 20.98 -1 22 C-0.67 14.74 -0.34 7.48 0 0 Z " fill="#9BBFA3" transform="translate(65,27)"/>
<path d="M0 0 C0.33 0 0.66 0 1 0 C1.02187378 0.88522339 1.02187378 0.88522339 1.04418945 1.78833008 C1.11868844 4.46371229 1.21533995 7.13784892 1.3125 9.8125 C1.33505859 10.74126953 1.35761719 11.67003906 1.38085938 12.62695312 C1.41630859 13.51962891 1.45175781 14.41230469 1.48828125 15.33203125 C1.51446533 16.15421143 1.54064941 16.9763916 1.56762695 17.82348633 C2.1000244 20.50351074 2.78975837 21.41684872 5 23 C9.57409061 23.36302306 13.06393081 23.62404613 17 21 C16.67 22.32 16.34 23.64 16 25 C14.2751002 25.27791731 12.54459785 25.52118919 10.8125 25.75 C9.84957031 25.88921875 8.88664062 26.0284375 7.89453125 26.171875 C5 26 5 26 2.15625 24.71875 C-1.25993123 20.41139106 -0.53190188 16.06965168 -0.3125 10.75 C-0.28994141 9.71875 -0.26738281 8.6875 -0.24414062 7.625 C-0.18527163 5.08185935 -0.10310065 2.54166887 0 0 Z " fill="#B4D6BB" transform="translate(50,30)"/>
<path d="M0 0 C0.1953125 6.0546875 0.1953125 6.0546875 0 8 C-0.66 8.66 -1.32 9.32 -2 10 C-4.625 9.625 -4.625 9.625 -7 9 C-7.25 6.1875 -7.25 6.1875 -7 3 C-4.54157496 0.45680168 -3.57478534 0 0 0 Z M-5 5 C-4 8 -4 8 -4 8 Z " fill="#CCE5D3" transform="translate(163,41)"/>
<path d="M0 0 C0.66 0.33 1.32 0.66 2 1 C2.73075648 3.3140622 3.40138258 5.64828869 4 8 C6.97 8.495 6.97 8.495 10 9 C10.33 9.99 10.66 10.98 11 12 C9.37581255 12.08090971 7.75048255 12.13914995 6.125 12.1875 C4.76761719 12.23970703 4.76761719 12.23970703 3.3828125 12.29296875 C2.20332031 12.14794922 2.20332031 12.14794922 1 12 C-1.44576827 8.33134759 -1.23607254 6.32799657 -1 2 C-0.67 1.34 -0.34 0.68 0 0 Z " fill="#0A0A0A" transform="translate(105,16)"/>
<path d="M0 0 C0.66 0.33 1.32 0.66 2 1 C2.08676908 5.12486838 2.14031295 9.24950384 2.1875 13.375 C2.22520508 15.1384375 2.22520508 15.1384375 2.26367188 16.9375 C2.27817383 18.61972656 2.27817383 18.61972656 2.29296875 20.3359375 C2.3086792 21.37282715 2.32438965 22.4097168 2.34057617 23.47802734 C2.17199097 24.72640381 2.17199097 24.72640381 2 26 C1.01 26.66 0.02 27.32 -1 28 C-1.02886338 23.52084672 -1.04675187 19.04171709 -1.0625 14.5625 C-1.07087891 13.28310547 -1.07925781 12.00371094 -1.08789062 10.68554688 C-1.09111328 9.47060547 -1.09433594 8.25566406 -1.09765625 7.00390625 C-1.10289307 5.87799072 -1.10812988 4.7520752 -1.11352539 3.59204102 C-1 1 -1 1 0 0 Z " fill="#000000" transform="translate(4,28)"/>
<path d="M0 0 C7.92 0 15.84 0 24 0 C24 0.33 24 0.66 24 1 C20.37 1.33 16.74 1.66 13 2 C13 2.66 13 3.32 13 4 C16.63 4 20.26 4 24 4 C24 4.33 24 4.66 24 5 C22.06280622 5.05406122 20.12518079 5.09282025 18.1875 5.125 C17.10855469 5.14820313 16.02960938 5.17140625 14.91796875 5.1953125 C11.77973036 4.98525638 10.26008978 4.26008978 8 2 C6.65252916 1.76924918 5.29622435 1.58846937 3.9375 1.4375 C2.638125 1.293125 1.33875 1.14875 0 1 C0 0.67 0 0.34 0 0 Z " fill="#403F71" transform="translate(234,24)"/>
<path d="M0 0 C1.875 1.1875 1.875 1.1875 3 3 C2.6875 5.6875 2.6875 5.6875 2 8 C1.773125 7.360625 1.54625 6.72125 1.3125 6.0625 C0.14749104 3.72806339 0.14749104 3.72806339 -2.625 3.25 C-3.40875 3.1675 -4.1925 3.085 -5 3 C-5.33 4.98 -5.66 6.96 -6 9 C-4.35 9 -2.7 9 -1 9 C-1 9.66 -1 10.32 -1 11 C-3.375 11.125 -3.375 11.125 -6 11 C-8 9 -8 9 -8.3125 5.5 C-8.209375 4.345 -8.10625 3.19 -8 2 C-4.76746204 -0.15502531 -3.74849077 -0.46856135 0 0 Z " fill="#BBD0C0" transform="translate(115,14)"/>
<path d="M0 0 C1.32 0.66 2.64 1.32 4 2 C4 8.27 4 14.54 4 21 C3.01 20.67 2.02 20.34 1 20 C0.83178895 17.4167588 0.66537483 14.83342301 0.5 12.25 C0.45230469 11.52039062 0.40460937 10.79078125 0.35546875 10.0390625 C0.14183103 6.68189836 0 3.36563724 0 0 Z " fill="#282A2C" transform="translate(18,34)"/>
<path d="M0 0 C0.91007813 0.00902344 1.82015625 0.01804687 2.7578125 0.02734375 C3.45648438 0.03894531 4.15515625 0.05054687 4.875 0.0625 C3.0625 3.0625 3.0625 3.0625 0.875 6.0625 C-0.115 6.0625 -1.105 6.0625 -2.125 6.0625 C-2.455 5.4025 -2.785 4.7425 -3.125 4.0625 C-4.445 4.3925 -5.765 4.7225 -7.125 5.0625 C-7.125 3.7425 -7.125 2.4225 -7.125 1.0625 C-4.60024538 -0.19987731 -2.81299534 -0.03606404 0 0 Z " fill="#26255D" transform="translate(235.125,28.9375)"/>
<path d="M0 0 C5.35056151 0.73617655 10.67325458 0.9937194 16.06640625 1.22265625 C17.02740234 1.26583984 17.98839844 1.30902344 18.97851562 1.35351562 C21.32020902 1.45836757 23.66198554 1.56053413 26.00390625 1.66015625 C26.00390625 1.99015625 26.00390625 2.32015625 26.00390625 2.66015625 C21.62892032 2.68928697 17.25395951 2.70699911 12.87890625 2.72265625 C11.64140625 2.73103516 10.40390625 2.73941406 9.12890625 2.74804688 C7.93007812 2.75126953 6.73125 2.75449219 5.49609375 2.7578125 C3.84649658 2.76566772 3.84649658 2.76566772 2.16357422 2.77368164 C-0.9722748 2.66101205 -3.91668758 2.24642001 -6.99609375 1.66015625 C-3.76101311 -0.49656417 -3.54262238 -0.56090503 0 0 Z " fill="#CBCBD8" transform="translate(230.99609375,51.33984375)"/>
<path d="M0 0 C3.63 0.33 7.26 0.66 11 1 C10.34 2.32 9.68 3.64 9 5 C7.54257537 5.08096803 6.08387193 5.13917774 4.625 5.1875 C3.81289062 5.22230469 3.00078125 5.25710937 2.1640625 5.29296875 C1.44992188 5.19628906 0.73578125 5.09960938 0 5 C-0.66 4.01 -1.32 3.02 -2 2 C-1.34 2 -0.68 2 0 2 C0 1.34 0 0.68 0 0 Z " fill="#0C0D0E" transform="translate(135,54)"/>
<path d="M0 0 C0 0.33 0 0.66 0 1 C-3.63 1.66 -7.26 2.32 -11 3 C-11 4.32 -11 5.64 -11 7 C-9.35 6.34 -7.7 5.68 -6 5 C-6.33 5.99 -6.66 6.98 -7 8 C-8.98 8.33 -10.96 8.66 -13 9 C-13.75 6.75 -13.75 6.75 -14 4 C-10.8924494 -1.4752082 -5.53745198 -0.38043563 0 0 Z " fill="#E8E8EE" transform="translate(239,27)"/>
<path d="M0 0 C1.485 0.99 1.485 0.99 3 2 C3.33 1.67 3.66 1.34 4 1 C5.51928038 0.92820036 7.04167482 0.91607993 8.5625 0.9375 C9.38878906 0.94652344 10.21507813 0.95554688 11.06640625 0.96484375 C11.70449219 0.97644531 12.34257813 0.98804688 13 1 C12.34 2.32 11.68 3.64 11 5 C9.54207116 5.05399736 8.08357288 5.09279177 6.625 5.125 C5.81289062 5.14820313 5.00078125 5.17140625 4.1640625 5.1953125 C2 5 2 5 0 3 C0 2.01 0 1.02 0 0 Z " fill="#0C0D0E" transform="translate(104,54)"/>
<path d="M0 0 C5.94 0 11.88 0 18 0 C18 0.66 18 1.32 18 2 C14.79515577 3.92142281 12.69760815 4.20142525 9 3.8125 C8.154375 3.73644531 7.30875 3.66039062 6.4375 3.58203125 C4 3 4 3 0 0 Z " fill="#E8E8EE" transform="translate(242,28)"/>
<path d="M0 0 C1.58179615 -0.10867302 3.16577153 -0.18589827 4.75 -0.25 C5.63171875 -0.29640625 6.5134375 -0.3428125 7.421875 -0.390625 C10 0 10 0 12.3125 1.40625 C14.89945402 5.38249414 14.42783483 9.11945457 14.25 13.75 C14.23195312 14.63816406 14.21390625 15.52632812 14.1953125 16.44140625 C14.14827374 18.62870848 14.08257009 20.81379816 14 23 C13.67 23 13.34 23 13 23 C12.97421875 21.81921875 12.9484375 20.6384375 12.921875 19.421875 C12.86558603 17.86454677 12.80823886 16.30725653 12.75 14.75 C12.73582031 13.97269531 12.72164062 13.19539063 12.70703125 12.39453125 C12.54817608 8.67732022 12.4184589 6.58731074 10.21875 3.5 C7.87960439 1.91860578 6.53886817 1.43592454 3.75 1.25 C2.5125 1.1675 1.275 1.085 0 1 C0 0.67 0 0.34 0 0 Z " fill="#E2EFE6" transform="translate(157,28)"/>
<path d="M0 0 C0.66 0.33 1.32 0.66 2 1 C2 5.29 2 9.58 2 14 C1.01 14 0.02 14 -1 14 C-1.02694851 12.04174127 -1.04637218 10.08337774 -1.0625 8.125 C-1.07410156 7.03445312 -1.08570312 5.94390625 -1.09765625 4.8203125 C-1 2 -1 2 0 0 Z " fill="#000202" transform="translate(76,14)"/>
<path d="M0 0 C2.31 0 4.62 0 7 0 C7 5.28 7 10.56 7 16 C7.66 16 8.32 16 9 16 C9.33 16.99 9.66 17.98 10 19 C10.99 19.66 11.98 20.32 13 21 C10.625 21.1875 10.625 21.1875 8 21 C5.96879293 17.95318939 5.75340125 17.39881676 5.8046875 13.98828125 C5.81113281 13.23095703 5.81757812 12.47363281 5.82421875 11.69335938 C5.84097656 10.90767578 5.85773437 10.12199219 5.875 9.3125 C5.88402344 8.51521484 5.89304687 7.71792969 5.90234375 6.89648438 C5.92588415 4.930861 5.96175453 2.96539225 6 1 C4.02 1 2.04 1 0 1 C0 0.67 0 0.34 0 0 Z " fill="#99D0A6" transform="translate(51,29)"/>
<path d="M0 0 C0.99386719 0.00902344 1.98773438 0.01804687 3.01171875 0.02734375 C4.15060547 0.04474609 4.15060547 0.04474609 5.3125 0.0625 C4.16796875 1.55078125 4.16796875 1.55078125 2.3125 3.0625 C-0.38671875 3.35546875 -0.38671875 3.35546875 -3.375 3.25 C-4.36886719 3.22292969 -5.36273438 3.19585938 -6.38671875 3.16796875 C-7.14597656 3.13316406 -7.90523437 3.09835938 -8.6875 3.0625 C-8.6875 2.4025 -8.6875 1.7425 -8.6875 1.0625 C-5.53819107 0.01273036 -3.29935544 -0.03881595 0 0 Z " fill="#13124F" transform="translate(255.6875,24.9375)"/>
<path d="M0 0 C1.9375 0.5625 1.9375 0.5625 4 2 C5.0625 5.3125 5.0625 5.3125 5 9 C2.78436256 11.91198063 1.15847009 13.59296997 -2.3125 14.8125 C-2.869375 14.874375 -3.42625 14.93625 -4 15 C-2 13 0 11 2 9 C1.55206891 4.34934387 1.55206891 4.34934387 0 0 Z " fill="#D1D1DD" transform="translate(286,32)"/>
<path d="M0 0 C0.99 0.33 1.98 0.66 3 1 C2.67 2.65 2.34 4.3 2 6 C2.66 6.33 3.32 6.66 4 7 C2.68 8.32 1.36 9.64 0 11 C-0.99 10.67 -1.98 10.34 -3 10 C-2.01 8.02 -1.02 6.04 0 4 C-0.66 3.34 -1.32 2.68 -2 2 C-1.34 1.34 -0.68 0.68 0 0 Z " fill="#C6C6D4" transform="translate(249,37)"/>
<path d="M0 0 C7.38461538 -0.36923077 7.38461538 -0.36923077 10.5 1.5 C10.995 1.995 11.49 2.49 12 3 C11.67 4.32 11.34 5.64 11 7 C10.690625 6.34 10.38125 5.68 10.0625 5 C7.54442986 2.55823502 6.71892628 2.72857594 3.3125 2.75 C1.8740202 2.81423833 0.43583001 2.89163547 -1 3 C-0.67 2.01 -0.34 1.02 0 0 Z " fill="#C4CEC7" transform="translate(133,27)"/>
<path d="M0 0 C0.66 0 1.32 0 2 0 C1.67 1.65 1.34 3.3 1 5 C-1.31 4.67 -3.62 4.34 -6 4 C-6.33 4.66 -6.66 5.32 -7 6 C-8.65 6 -10.3 6 -12 6 C-11 4 -11 4 -8.1875 2.9375 C-6.36442505 2.40130149 -4.53395254 1.8866371 -2.6875 1.4375 C-0.97728972 1.14629643 -0.97728972 1.14629643 0 0 Z " fill="#CACAD8" transform="translate(242,32)"/>
<path d="M0 0 C0.66 0 1.32 0 2 0 C2.33 1.32 2.66 2.64 3 4 C-0.9813783 5.3271261 -4.85045227 5.06915913 -9 5 C-9.33 4.34 -9.66 3.68 -10 3 C-8.72125 2.87625 -7.4425 2.7525 -6.125 2.625 C-2.65209064 2.30957601 -2.65209064 2.30957601 0 0 Z " fill="#191853" transform="translate(269,46)"/>
<path d="M0 0 C2.97 0 5.94 0 9 0 C9.33 1.32 9.66 2.64 10 4 C9.01 4.495 9.01 4.495 8 5 C8 4.34 8 3.68 8 3 C5.69 3 3.38 3 1 3 C0.67 2.01 0.34 1.02 0 0 Z " fill="#A5BBAD" transform="translate(121,27)"/>
<path d="M0 0 C-1.20381448 2.49361571 -2.45428722 4.68143083 -4 7 C-4.99 6.67 -5.98 6.34 -7 6 C-6.01 4.68 -5.02 3.36 -4 2 C-4.99 1.67 -5.98 1.34 -7 1 C-3.375 -1.125 -3.375 -1.125 0 0 Z " fill="#B7CABD" transform="translate(200,28)"/>
<path d="M0 0 C0.99 0 1.98 0 3 0 C2.67 1.98 2.34 3.96 2 6 C0.68 6 -0.64 6 -2 6 C-1.125 1.125 -1.125 1.125 0 0 Z M-1 3 C0 6 0 6 0 6 Z " fill="#363336" transform="translate(159,43)"/>
<path d="M0 0 C2.31 0 4.62 0 7 0 C7 0.99 7 1.98 7 3 C6.01 3 5.02 3 4 3 C4 3.66 4 4.32 4 5 C3.01 5 2.02 5 1 5 C0.67 3.35 0.34 1.7 0 0 Z " fill="#EFEFF3" transform="translate(250,38)"/>
<path d="M0 0 C0 0.33 0 0.66 0 1 C-1.19625 1.103125 -2.3925 1.20625 -3.625 1.3125 C-7.5624176 1.78891352 -10.54140375 3.01130716 -14 5 C-14 4.01 -14 3.02 -14 2 C-9.35150485 -0.3992233 -5.08913926 -0.19957409 0 0 Z " fill="#919994" transform="translate(165,27)"/>
<path d="M0 0 C0.33 0 0.66 0 1 0 C2 3 3 6 4 9 C3.01 9 2.02 9 1 9 C-0.8125 6.75 -0.8125 6.75 -2 4 C-1.1875 1.6875 -1.1875 1.6875 0 0 Z " fill="#B6C4BB" transform="translate(191,37)"/>
<path d="M0 0 C0.66 0.66 1.32 1.32 2 2 C1.360625 2.556875 0.72125 3.11375 0.0625 3.6875 C-2.19680987 6.22066561 -2.63149047 7.68341424 -3 11 C-4.125 9.25 -4.125 9.25 -5 7 C-3.99659644 3.98978932 -2.32496727 2.11360661 0 0 Z " fill="#29285F" transform="translate(205,29)"/>
<path d="M0 0 C-2.46278801 2.46278801 -4.70676982 2.99771255 -8 4 C-8 3.01 -8 2.02 -8 1 C-4.93251126 -0.86240388 -3.40254489 -1.2151946 0 0 Z " fill="#869D8C" transform="translate(157,40)"/>
<path d="M0 0 C1.32 0 2.64 0 4 0 C4 1.98 4 3.96 4 6 C3.01 5.67 2.02 5.34 1 5 C1 4.34 1 3.68 1 3 C0.34 3 -0.32 3 -1 3 C-0.67 2.01 -0.34 1.02 0 0 Z " fill="#060708" transform="translate(132,35)"/>
<path d="M0 0 C0.66 0.33 1.32 0.66 2 1 C1.67 2.32 1.34 3.64 1 5 C1.99 5.66 2.98 6.32 4 7 C2.1875 7.6875 2.1875 7.6875 0 8 C-1.75 6.5625 -1.75 6.5625 -3 5 C-2.04937465 2.14812395 -1.8726173 1.8726173 0 0 Z " fill="#6AA279" transform="translate(131,28)"/>
<path d="M0 0 C6.0546875 -0.1953125 6.0546875 -0.1953125 8 0 C8.66 0.66 9.32 1.32 10 2 C7.04335481 3.4783226 4.25770263 3.06032783 1 3 C0.67 2.01 0.34 1.02 0 0 Z " fill="#000000" transform="translate(189,56)"/>
<path d="M0 0 C0.66 0 1.32 0 2 0 C1.67 1.65 1.34 3.3 1 5 C-0.65 5.33 -2.3 5.66 -4 6 C-2.7260411 3.96166576 -1.38938077 1.96147874 0 0 Z " fill="#31AA52" transform="translate(179,48)"/>
<path d="M0 0 C0.99 0 1.98 0 3 0 C2.75 1.875 2.75 1.875 2 4 C-0.0625 5.25 -0.0625 5.25 -2 6 C-1.125 1.125 -1.125 1.125 0 0 Z " fill="#29285F" transform="translate(262,40)"/>
<path d="M0 0 C0.66 0 1.32 0 2 0 C2 1.65 2 3.3 2 5 C0.68 5.33 -0.64 5.66 -2 6 C-1.125 1.125 -1.125 1.125 0 0 Z " fill="#27265D" transform="translate(241,40)"/>
<path d="M0 0 C1.65 0.33 3.3 0.66 5 1 C5 1.99 5 2.98 5 4 C2.69 3.67 0.38 3.34 -2 3 C-1.34 2.01 -0.68 1.02 0 0 Z " fill="#020303" transform="translate(156,34)"/>
<path d="M0 0 C-3.6441774 2.4294516 -5.71241272 2.16179575 -10 2 C-6.64608848 -1.35391152 -4.35183427 -1.05855428 0 0 Z " fill="#93AF99" transform="translate(18,28)"/>
<path d="M0 0 C0.33 0.66 0.66 1.32 1 2 C-0.32 3.65 -1.64 5.3 -3 7 C-3.99 6.67 -4.98 6.34 -6 6 C-4.02 4.02 -2.04 2.04 0 0 Z " fill="#26255D" transform="translate(249,40)"/>
<path d="" fill="#000000" transform="translate(0,0)"/>
<path d="" fill="#000000" transform="translate(0,0)"/>
<path d="" fill="#000000" transform="translate(0,0)"/>
<path d="" fill="#000000" transform="translate(0,0)"/>
<path d="" fill="#000000" transform="translate(0,0)"/>
<path d="" fill="#000000" transform="translate(0,0)"/>
<path d="" fill="#000000" transform="translate(0,0)"/>
<path d="" fill="#000000" transform="translate(0,0)"/>
</svg>
