<svg version="1.1" id="Layer_1" xmlns="http://www.w3.org/2000/svg" xmlns:xlink="http://www.w3.org/1999/xlink" x="0px" y="0px"
	 width="100%" viewBox="0 0 1737 889" enable-background="new 0 0 1737 889" xml:space="preserve">
<path fill="#FFFFFE" opacity="1.000000" stroke="none" 
	d="
M1186.000000,890.000000 
	C790.666687,890.000000 395.833344,890.000000 1.000000,890.000000 
	C1.000000,593.666687 1.000000,297.333344 1.000000,1.000000 
	C580.000000,1.000000 1159.000000,1.000000 1738.000000,1.000000 
	C1738.000000,297.333344 1738.000000,593.666687 1738.000000,890.000000 
	C1554.166626,890.000000 1370.333374,890.000000 1186.000000,890.000000 
M1566.500000,745.842468 
	C1604.963379,745.842468 1643.426880,745.842468 1682.245117,745.842468 
	C1682.245117,516.382202 1682.245117,287.339783 1682.245117,58.099876 
	C1139.654785,58.099876 597.293457,58.099876 54.818371,58.099876 
	C54.818371,287.406799 54.818371,516.447266 54.818371,745.842407 
	C558.640381,745.842407 1062.070190,745.842407 1566.500000,745.842468 
M833.885010,811.373718 
	C836.750122,802.477417 839.615173,793.581177 842.660767,784.124329 
	C838.678650,784.124329 835.666260,784.383179 832.717957,784.059326 
	C828.963745,783.646973 827.606140,785.227722 826.694885,788.746643 
	C824.702759,796.439575 822.139160,803.984497 819.500488,812.596802 
	C817.023193,805.031006 814.889954,798.432007 812.700684,791.851562 
	C810.017761,783.787292 809.997192,783.930725 801.528503,783.912964 
	C798.669800,783.906982 797.539795,784.854858 796.710022,787.558777 
	C794.240601,795.605347 791.400146,803.538147 788.382812,812.468018 
	C785.713074,803.590393 783.425415,795.617310 780.844177,787.740479 
	C780.384644,786.338196 778.802795,784.444641 777.573120,784.311462 
	C773.550171,783.875732 769.450500,784.148010 764.881409,784.148010 
	C770.375916,800.751892 775.631592,816.657715 780.923523,832.551453 
	C781.166809,833.282104 781.698059,834.458008 782.158386,834.489075 
	C785.632935,834.723511 789.260742,835.306458 792.546936,834.532959 
	C794.036438,834.182373 795.170044,831.110535 795.926270,829.073181 
	C798.519287,822.087585 800.873718,815.013428 803.811829,806.554443 
	C806.579834,814.460754 808.700623,820.893860 811.081787,827.229065 
	C814.455444,836.205017 811.757751,834.562805 822.110168,834.915161 
	C825.178467,835.019592 826.484558,833.963135 827.340698,831.037537 
	C829.204712,824.667908 831.506775,818.426453 833.885010,811.373718 
M1643.017944,821.503113 
	C1643.017944,817.112427 1643.017944,812.721802 1643.017944,808.331116 
	C1643.361816,808.244568 1643.705566,808.157959 1644.049438,808.071350 
	C1647.799072,813.767090 1651.548828,819.462830 1655.589355,825.600220 
	C1659.838501,819.289856 1663.640625,813.643555 1667.442627,807.997253 
	C1667.831299,808.148804 1668.219849,808.300415 1668.608521,808.451965 
	C1668.608521,817.021729 1668.608521,825.591492 1668.608521,834.167969 
	C1673.535400,834.167969 1677.911133,834.167969 1682.262207,834.167969 
	C1682.262207,817.308411 1682.262207,800.896118 1682.262207,784.143066 
	C1678.937500,784.143066 1675.923828,784.435791 1672.991455,784.072327 
	C1668.915039,783.567078 1666.568848,785.197388 1664.676758,788.706177 
	C1662.102417,793.479980 1659.034302,797.987549 1655.783203,803.247986 
	C1652.100220,797.289856 1648.977051,792.032898 1645.608887,786.937927 
	C1644.806152,785.723755 1643.242676,784.367737 1641.928955,784.256226 
	C1637.846558,783.909302 1633.715942,784.129150 1629.378662,784.129150 
	C1629.378662,801.142517 1629.378662,817.553955 1629.378662,834.281372 
	C1633.940918,834.281372 1638.337036,834.281372 1643.017944,834.281372 
	C1643.017944,830.132141 1643.017944,826.312317 1643.017944,821.503113 
M502.231812,784.150146 
	C498.943787,784.150146 495.655762,784.150146 491.734589,784.150146 
	C491.734589,792.660278 491.734589,800.653748 491.734589,810.139648 
	C485.054352,801.567444 479.418488,794.206055 473.600616,786.991577 
	C472.578949,785.724670 470.869507,784.447327 469.346893,784.264587 
	C465.949005,783.856750 462.468506,784.137146 458.826630,784.137146 
	C458.826630,801.199707 458.826630,817.717346 458.826630,834.195312 
	C463.452789,834.195312 467.659332,834.195312 472.346436,834.195312 
	C472.346436,825.436584 472.346436,817.089966 472.346436,807.460754 
	C478.159912,814.886597 483.782471,820.891235 487.987579,827.763184 
	C492.407013,834.985352 498.246124,835.559631 505.827026,834.015198 
	C505.827026,818.109741 505.861328,802.181519 505.713898,786.254883 
	C505.707336,785.546753 504.046448,784.853943 502.231812,784.150146 
M200.272247,820.350098 
	C199.571823,819.314392 198.871414,818.278625 198.086166,817.117493 
	C199.462402,816.236084 200.463821,815.665100 201.389664,814.990356 
	C207.333176,810.658691 208.887924,804.554871 207.728790,797.743835 
	C206.580246,790.995056 202.179657,786.187866 195.614151,785.404053 
	C185.152191,784.154907 174.534637,784.209167 163.866837,783.706848 
	C163.866837,801.263977 163.866837,817.772278 163.866837,834.253418 
	C168.565536,834.253418 172.811600,834.253418 177.758423,834.253418 
	C177.758423,829.058044 177.758423,824.186584 177.758423,819.787842 
	C182.042679,818.121521 184.052216,819.921753 185.762726,822.822388 
	C187.618469,825.969177 189.710739,828.984741 191.839584,831.957520 
	C192.553452,832.954468 193.661057,834.308594 194.649353,834.361267 
	C199.374893,834.613220 204.121307,834.474182 209.752594,834.474182 
	C206.362503,829.398499 203.527145,825.153381 200.272247,820.350098 
M592.502686,785.818787 
	C582.490845,785.033386 572.479004,784.247986 562.201721,783.441772 
	C562.201721,801.201904 562.201721,817.632874 562.201721,834.090881 
	C570.193970,834.090881 577.999084,834.476501 585.752014,834.004578 
	C598.864319,833.206238 607.461914,825.160034 609.477539,812.555603 
	C611.375671,800.686340 605.520508,791.093567 592.502686,785.818787 
M67.634377,787.004639 
	C55.401474,795.202515 51.378559,809.022217 57.655357,821.285156 
	C63.891460,833.468628 78.894920,838.703186 92.395081,833.405701 
	C104.945938,828.480652 111.460121,815.363892 107.949615,802.085510 
	C103.673553,785.911499 85.031189,778.655762 67.634377,787.004639 
M686.201660,835.146729 
	C702.061157,836.760925 714.876038,826.861938 716.502991,811.739990 
	C718.038879,797.465332 707.783691,785.279236 692.562744,783.292175 
	C678.372375,781.439636 664.810364,791.504700 662.918152,805.292847 
	C660.825989,820.538635 670.036743,832.754822 686.201660,835.146729 
M1570.441528,795.189026 
	C1562.373657,783.860291 1547.780518,779.943604 1535.584839,785.833862 
	C1523.514038,791.663757 1517.717285,804.393616 1521.613281,817.047791 
	C1524.685059,827.024597 1531.786499,832.977539 1541.822998,834.828247 
	C1552.720581,836.837830 1562.502441,834.021423 1569.320557,824.845337 
	C1576.107788,815.710938 1576.250122,805.802185 1570.441528,795.189026 
M1031.173340,792.441528 
	C1031.173340,789.834351 1031.173340,787.227234 1031.173340,784.428101 
	C1017.484497,784.428101 1004.411133,784.428101 991.084045,784.428101 
	C991.084045,801.149475 991.084045,817.570801 991.084045,834.306030 
	C1004.506836,834.306030 1017.739319,834.306030 1031.245728,834.306030 
	C1031.373901,832.766846 1031.585205,831.477661 1031.571533,830.190796 
	C1031.479126,821.504333 1032.789062,822.423462 1023.970154,822.411621 
	C1017.716980,822.403198 1011.463867,822.409973 1005.296509,822.409973 
	C1005.296509,819.419678 1005.296509,817.217651 1005.296509,814.577637 
	C1013.339539,814.577637 1020.933044,814.577637 1028.558838,814.577637 
	C1028.558838,810.709534 1028.558838,807.295593 1028.558838,803.221558 
	C1020.554749,803.221558 1012.839172,803.221558 1005.120667,803.221558 
	C1005.120667,800.610962 1005.120667,798.671570 1005.120667,796.192749 
	C1012.653809,796.192749 1019.939270,796.203674 1027.224731,796.185303 
	C1029.156250,796.180481 1031.526489,796.707825 1031.173340,792.441528 
M895.813904,816.499268 
	C895.813904,822.409119 895.813904,828.318970 895.813904,834.606079 
	C906.526001,834.606079 916.484985,834.600647 926.443970,834.607422 
	C937.585632,834.615051 937.586609,834.619751 936.361450,823.430664 
	C936.346497,823.294800 936.175293,823.175964 935.532654,822.345947 
	C927.397766,822.345947 918.694458,822.345947 909.851440,822.345947 
	C909.851440,819.557495 909.851440,817.473450 909.851440,814.753662 
	C917.799744,814.753662 925.505676,814.753662 933.255493,814.753662 
	C933.255493,810.712952 933.255493,807.315186 933.255493,803.206665 
	C925.226562,803.206665 917.524292,803.206665 909.902710,803.206665 
	C909.902710,800.552307 909.902710,798.620728 909.902710,796.048828 
	C918.728271,796.048828 927.265564,796.048828 935.740845,796.048828 
	C935.740845,791.805603 935.740845,788.210510 935.740845,784.409180 
	C922.418152,784.409180 909.369690,784.409180 895.813782,784.409180 
	C895.813782,794.953247 895.813782,805.226379 895.813904,816.499268 
M1095.337646,834.596985 
	C1096.801270,834.515381 1098.264893,834.433777 1099.743652,834.351379 
	C1101.390747,828.299255 1097.236938,820.685303 1105.520020,816.762451 
	C1108.852173,821.682800 1112.143433,826.645569 1115.563843,831.517700 
	C1116.370850,832.667236 1117.565186,834.295044 1118.662964,834.361938 
	C1123.682617,834.667603 1128.731201,834.496216 1134.605225,834.496216 
	C1127.704834,824.393616 1121.441284,815.223450 1115.073730,805.901062 
	C1121.235229,798.782837 1127.209351,791.881104 1133.208130,784.950867 
	C1122.068848,781.880615 1114.084229,784.865051 1108.448730,794.237061 
	C1106.516846,797.449768 1103.600464,800.070557 1101.133789,802.961792 
	C1100.732910,802.736206 1100.332153,802.510681 1099.931274,802.285156 
	C1099.931274,796.380127 1099.931274,790.475098 1099.931274,784.499023 
	C1095.072510,784.499023 1090.685059,784.499023 1086.249756,784.499023 
	C1086.249756,801.274292 1086.249756,817.687256 1086.249756,834.597473 
	C1089.136841,834.597473 1091.769409,834.597473 1095.337646,834.596985 
M389.574951,794.874146 
	C387.252228,788.487610 385.459625,781.862122 375.941681,783.804077 
	C372.773621,784.450500 370.680054,784.676514 369.369904,788.118958 
	C366.119019,796.660767 362.366425,805.011780 358.815338,813.439392 
	C355.942535,820.257324 353.069733,827.075256 349.915710,834.560547 
	C354.734100,834.560547 358.700500,834.699829 362.644806,834.465820 
	C363.671478,834.404907 365.357635,833.306091 365.503784,832.468262 
	C366.746124,825.346069 371.653595,824.951660 377.333679,825.553345 
	C379.311188,825.762817 381.355499,825.788635 383.323578,825.538513 
	C386.572388,825.125732 388.076599,826.571533 389.110840,829.523560 
	C389.756561,831.366699 391.186035,834.100525 392.573273,834.301880 
	C396.874939,834.926147 401.324615,834.530151 406.252472,834.530151 
	C400.560150,820.985229 395.220917,808.280579 389.574951,794.874146 
M1433.981445,787.362854 
	C1423.986450,794.547180 1420.090088,804.971313 1423.050415,816.606506 
	C1425.446289,826.023254 1433.844727,833.650879 1443.296509,834.994202 
	C1455.335571,836.705200 1464.843750,832.717773 1469.902222,823.685669 
	C1468.340942,822.531006 1466.775146,821.329468 1465.163574,820.192688 
	C1463.432007,818.971313 1461.657471,817.810791 1460.003174,816.692261 
	C1452.130371,823.524719 1445.337158,824.216187 1440.359131,818.955017 
	C1435.601318,813.926819 1435.596680,804.755798 1440.348877,799.824524 
	C1445.590088,794.386108 1451.876099,795.027222 1459.653931,801.913330 
	C1463.085938,799.239563 1466.540771,796.548035 1469.998047,793.854492 
	C1460.734253,782.481812 1447.507568,780.104736 1433.981445,787.362854 
M1270.569580,795.961243 
	C1278.348267,807.145386 1285.027710,818.682190 1282.579468,833.173889 
	C1282.536499,833.427979 1282.854004,833.742920 1283.110840,834.236267 
	C1287.558228,834.236267 1292.096680,834.236267 1296.309570,834.236267 
	C1296.866943,827.086121 1296.214600,819.967346 1298.246826,813.722229 
	C1300.298706,807.416809 1305.009644,801.975891 1308.562500,796.160461 
	C1309.689697,794.315613 1310.873779,792.504761 1311.969116,790.641541 
	C1313.097168,788.722412 1314.148804,786.758362 1315.612915,784.134583 
	C1311.210327,784.134583 1307.734497,784.354492 1304.299927,784.071533 
	C1300.989990,783.798889 1299.163696,785.016907 1297.702393,787.993469 
	C1295.458252,792.564758 1292.696411,796.882019 1289.761841,801.990173 
	C1286.667236,796.592957 1284.032715,791.855652 1281.234741,787.216919 
	C1280.520630,786.033203 1279.343384,784.359192 1278.284180,784.286255 
	C1273.622681,783.965149 1268.926514,784.147583 1263.394165,784.147583 
	C1266.057617,788.554626 1268.111816,791.953674 1270.569580,795.961243 
M276.596130,789.714294 
	C276.596130,787.954407 276.596130,786.194458 276.596130,784.380188 
	C271.569916,784.380188 267.298309,784.380188 262.773926,784.380188 
	C262.773926,801.126587 262.773926,817.626404 262.773926,834.149902 
	C275.647430,834.149902 288.149292,834.149902 300.586853,834.149902 
	C300.586853,829.920288 300.586853,826.160217 300.586853,821.934204 
	C292.575043,821.934204 284.833496,821.934204 276.595795,821.934204 
	C276.595795,811.196655 276.595795,800.929932 276.596130,789.714294 
M1185.826538,824.467529 
	C1185.826538,827.724670 1185.826538,830.981873 1185.826538,834.253540 
	C1198.974487,834.253540 1211.366577,834.253540 1223.622559,834.253540 
	C1223.622559,829.974487 1223.622559,826.073303 1223.622559,821.841309 
	C1215.634033,821.841309 1208.027832,821.841309 1199.828247,821.841309 
	C1199.828247,809.134583 1199.828247,796.758362 1199.828247,784.401978 
	C1194.953247,784.401978 1190.686646,784.401978 1185.826416,784.401978 
	C1185.826416,797.597900 1185.826416,810.536743 1185.826538,824.467529 
M1358.891357,834.587708 
	C1362.816528,834.587708 1366.741577,834.587708 1370.828369,834.587708 
	C1370.828369,829.532776 1370.828369,825.029602 1370.828369,820.424561 
	C1366.100098,820.424561 1361.727051,820.424561 1356.340698,820.424561 
	C1356.919067,825.379089 1357.450317,829.929016 1358.891357,834.587708 
z"/>
<path fill="#FF8104" opacity="1.000000" stroke="none" 
	d="
M1566.000000,745.842407 
	C1062.070190,745.842407 558.640381,745.842407 54.818371,745.842407 
	C54.818371,516.447266 54.818371,287.406799 54.818371,58.099876 
	C597.293457,58.099876 1139.654785,58.099876 1682.245117,58.099876 
	C1682.245117,287.339783 1682.245117,516.382202 1682.245117,745.842468 
	C1643.426880,745.842468 1604.963379,745.842468 1566.000000,745.842407 
M1013.500061,88.556679 
	C704.741394,88.556679 395.982727,88.556679 87.197792,88.556679 
	C87.197792,298.384155 87.197792,507.599487 87.197792,716.860229 
	C608.944458,716.860229 1130.334839,716.860229 1651.782959,716.860229 
	C1651.782959,507.355194 1651.782959,298.146118 1651.782959,88.556313 
	C1439.107056,88.556313 1226.803589,88.556313 1013.500061,88.556679 
z"/>
<path fill="#FE8307" opacity="1.000000" stroke="none" 
	d="
M833.757385,811.753174 
	C831.506775,818.426453 829.204712,824.667908 827.340698,831.037537 
	C826.484558,833.963135 825.178467,835.019592 822.110168,834.915161 
	C811.757751,834.562805 814.455444,836.205017 811.081787,827.229065 
	C808.700623,820.893860 806.579834,814.460754 803.811829,806.554443 
	C800.873718,815.013428 798.519287,822.087585 795.926270,829.073181 
	C795.170044,831.110535 794.036438,834.182373 792.546936,834.532959 
	C789.260742,835.306458 785.632935,834.723511 782.158386,834.489075 
	C781.698059,834.458008 781.166809,833.282104 780.923523,832.551453 
	C775.631592,816.657715 770.375916,800.751892 764.881409,784.148010 
	C769.450500,784.148010 773.550171,783.875732 777.573120,784.311462 
	C778.802795,784.444641 780.384644,786.338196 780.844177,787.740479 
	C783.425415,795.617310 785.713074,803.590393 788.382812,812.468018 
	C791.400146,803.538147 794.240601,795.605347 796.710022,787.558777 
	C797.539795,784.854858 798.669800,783.906982 801.528503,783.912964 
	C809.997192,783.930725 810.017761,783.787292 812.700684,791.851562 
	C814.889954,798.432007 817.023193,805.031006 819.500488,812.596802 
	C822.139160,803.984497 824.702759,796.439575 826.694885,788.746643 
	C827.606140,785.227722 828.963745,783.646973 832.717957,784.059326 
	C835.666260,784.383179 838.678650,784.124329 842.660767,784.124329 
	C839.615173,793.581177 836.750122,802.477417 833.757385,811.753174 
z"/>
<path fill="#FE850B" opacity="1.000000" stroke="none" 
	d="
M1643.017944,821.997803 
	C1643.017944,826.312317 1643.017944,830.132141 1643.017944,834.281372 
	C1638.337036,834.281372 1633.940918,834.281372 1629.378662,834.281372 
	C1629.378662,817.553955 1629.378662,801.142517 1629.378662,784.129150 
	C1633.715942,784.129150 1637.846558,783.909302 1641.928955,784.256226 
	C1643.242676,784.367737 1644.806152,785.723755 1645.608887,786.937927 
	C1648.977051,792.032898 1652.100220,797.289856 1655.783203,803.247986 
	C1659.034302,797.987549 1662.102417,793.479980 1664.676758,788.706177 
	C1666.568848,785.197388 1668.915039,783.567078 1672.991455,784.072327 
	C1675.923828,784.435791 1678.937500,784.143066 1682.262207,784.143066 
	C1682.262207,800.896118 1682.262207,817.308411 1682.262207,834.167969 
	C1677.911133,834.167969 1673.535400,834.167969 1668.608521,834.167969 
	C1668.608521,825.591492 1668.608521,817.021729 1668.608521,808.451965 
	C1668.219849,808.300415 1667.831299,808.148804 1667.442627,807.997253 
	C1663.640625,813.643555 1659.838501,819.289856 1655.589355,825.600220 
	C1651.548828,819.462830 1647.799072,813.767090 1644.049438,808.071350 
	C1643.705566,808.157959 1643.361816,808.244568 1643.017944,808.331116 
	C1643.017944,812.721802 1643.017944,817.112427 1643.017944,821.997803 
z"/>
<path fill="#FE8307" opacity="1.000000" stroke="none" 
	d="
M502.693970,784.152100 
	C504.046448,784.853943 505.707336,785.546753 505.713898,786.254883 
	C505.861328,802.181519 505.827026,818.109741 505.827026,834.015198 
	C498.246124,835.559631 492.407013,834.985352 487.987579,827.763184 
	C483.782471,820.891235 478.159912,814.886597 472.346436,807.460754 
	C472.346436,817.089966 472.346436,825.436584 472.346436,834.195312 
	C467.659332,834.195312 463.452789,834.195312 458.826630,834.195312 
	C458.826630,817.717346 458.826630,801.199707 458.826630,784.137146 
	C462.468506,784.137146 465.949005,783.856750 469.346893,784.264587 
	C470.869507,784.447327 472.578949,785.724670 473.600616,786.991577 
	C479.418488,794.206055 485.054352,801.567444 491.734589,810.139648 
	C491.734589,800.653748 491.734589,792.660278 491.734589,784.150146 
	C495.655762,784.150146 498.943787,784.150146 502.693970,784.152100 
z"/>
<path fill="#FE8307" opacity="1.000000" stroke="none" 
	d="
M200.482010,820.629150 
	C203.527145,825.153381 206.362503,829.398499 209.752594,834.474182 
	C204.121307,834.474182 199.374893,834.613220 194.649353,834.361267 
	C193.661057,834.308594 192.553452,832.954468 191.839584,831.957520 
	C189.710739,828.984741 187.618469,825.969177 185.762726,822.822388 
	C184.052216,819.921753 182.042679,818.121521 177.758423,819.787842 
	C177.758423,824.186584 177.758423,829.058044 177.758423,834.253418 
	C172.811600,834.253418 168.565536,834.253418 163.866837,834.253418 
	C163.866837,817.772278 163.866837,801.263977 163.866837,783.706848 
	C174.534637,784.209167 185.152191,784.154907 195.614151,785.404053 
	C202.179657,786.187866 206.580246,790.995056 207.728790,797.743835 
	C208.887924,804.554871 207.333176,810.658691 201.389664,814.990356 
	C200.463821,815.665100 199.462402,816.236084 198.086166,817.117493 
	C198.871414,818.278625 199.571823,819.314392 200.482010,820.629150 
M184.326904,796.361816 
	C182.079697,796.462708 179.832489,796.563660 177.596527,796.664062 
	C177.596527,800.731201 177.596527,804.175049 177.596527,807.937012 
	C181.585602,807.937012 185.497986,808.554626 189.049454,807.689941 
	C190.976761,807.220703 193.331116,804.343750 193.554108,802.337341 
	C193.736359,800.697449 191.276138,798.455200 189.536209,797.031494 
	C188.563309,796.235291 186.671402,796.562256 184.326904,796.361816 
z"/>
<path fill="#FE8307" opacity="1.000000" stroke="none" 
	d="
M592.889465,785.915588 
	C605.520508,791.093567 611.375671,800.686340 609.477539,812.555603 
	C607.461914,825.160034 598.864319,833.206238 585.752014,834.004578 
	C577.999084,834.476501 570.193970,834.090881 562.201721,834.090881 
	C562.201721,817.632874 562.201721,801.201904 562.201721,783.441772 
	C572.479004,784.247986 582.490845,785.033386 592.889465,785.915588 
M587.090942,821.003540 
	C594.221375,817.680359 596.912170,811.839783 594.514099,804.890930 
	C592.217957,798.237549 585.480896,795.506897 576.274048,797.557800 
	C576.274048,805.576843 576.274048,813.614929 576.274048,822.271118 
	C579.829407,821.889893 583.062012,821.543213 587.090942,821.003540 
z"/>
<path fill="#FE8307" opacity="1.000000" stroke="none" 
	d="
M67.959381,786.826172 
	C85.031189,778.655762 103.673553,785.911499 107.949615,802.085510 
	C111.460121,815.363892 104.945938,828.480652 92.395081,833.405701 
	C78.894920,838.703186 63.891460,833.468628 57.655357,821.285156 
	C51.378559,809.022217 55.401474,795.202515 67.959381,786.826172 
M81.608597,822.826233 
	C83.224548,822.489807 84.907356,822.338562 86.444420,821.783691 
	C91.986740,819.782776 95.230804,813.619141 94.225136,807.262878 
	C93.225525,800.944885 88.638176,796.439148 82.777397,796.018860 
	C76.645172,795.579102 71.702255,799.177490 69.888718,805.401672 
	C67.489929,813.634521 71.680748,820.263733 81.608597,822.826233 
z"/>
<path fill="#FE8307" opacity="1.000000" stroke="none" 
	d="
M685.789368,835.113281 
	C670.036743,832.754822 660.825989,820.538635 662.918152,805.292847 
	C664.810364,791.504700 678.372375,781.439636 692.562744,783.292175 
	C707.783691,785.279236 718.038879,797.465332 716.502991,811.739990 
	C714.876038,826.861938 702.061157,836.760925 685.789368,835.113281 
M688.681091,796.008423 
	C687.239258,796.373535 685.702820,796.531189 684.371582,797.138672 
	C677.749695,800.160217 675.043030,808.634949 678.411865,815.493103 
	C681.588562,821.960083 688.945618,824.468628 695.281433,821.245483 
	C700.291260,818.696716 702.957520,812.942444 701.943665,806.866882 
	C700.906372,800.650635 696.578796,796.874451 688.681091,796.008423 
z"/>
<path fill="#FF8206" opacity="1.000000" stroke="none" 
	d="
M1570.648682,795.499451 
	C1576.250122,805.802185 1576.107788,815.710938 1569.320557,824.845337 
	C1562.502441,834.021423 1552.720581,836.837830 1541.822998,834.828247 
	C1531.786499,832.977539 1524.685059,827.024597 1521.613281,817.047791 
	C1517.717285,804.393616 1523.514038,791.663757 1535.584839,785.833862 
	C1547.780518,779.943604 1562.373657,783.860291 1570.648682,795.499451 
M1535.779785,804.644104 
	C1533.154785,814.999207 1539.951538,824.099243 1549.148804,822.543457 
	C1555.589600,821.454041 1559.752441,816.776123 1560.052734,810.290710 
	C1560.367554,803.489746 1556.592407,798.010864 1550.467163,796.378845 
	C1544.553345,794.803101 1539.448975,797.449463 1535.779785,804.644104 
z"/>
<path fill="#FF8409" opacity="1.000000" stroke="none" 
	d="
M1031.171875,792.925903 
	C1031.526489,796.707825 1029.156250,796.180481 1027.224731,796.185303 
	C1019.939270,796.203674 1012.653809,796.192749 1005.120667,796.192749 
	C1005.120667,798.671570 1005.120667,800.610962 1005.120667,803.221558 
	C1012.839172,803.221558 1020.554749,803.221558 1028.558838,803.221558 
	C1028.558838,807.295593 1028.558838,810.709534 1028.558838,814.577637 
	C1020.933044,814.577637 1013.339539,814.577637 1005.296509,814.577637 
	C1005.296509,817.217651 1005.296509,819.419678 1005.296509,822.409973 
	C1011.463867,822.409973 1017.716980,822.403198 1023.970154,822.411621 
	C1032.789062,822.423462 1031.479126,821.504333 1031.571533,830.190796 
	C1031.585205,831.477661 1031.373901,832.766846 1031.245728,834.306030 
	C1017.739319,834.306030 1004.506836,834.306030 991.084045,834.306030 
	C991.084045,817.570801 991.084045,801.149475 991.084045,784.428101 
	C1004.411133,784.428101 1017.484497,784.428101 1031.173340,784.428101 
	C1031.173340,787.227234 1031.173340,789.834351 1031.171875,792.925903 
z"/>
<path fill="#FF8409" opacity="1.000000" stroke="none" 
	d="
M895.813843,815.999390 
	C895.813782,805.226379 895.813782,794.953247 895.813782,784.409180 
	C909.369690,784.409180 922.418152,784.409180 935.740845,784.409180 
	C935.740845,788.210510 935.740845,791.805603 935.740845,796.048828 
	C927.265564,796.048828 918.728271,796.048828 909.902710,796.048828 
	C909.902710,798.620728 909.902710,800.552307 909.902710,803.206665 
	C917.524292,803.206665 925.226562,803.206665 933.255493,803.206665 
	C933.255493,807.315186 933.255493,810.712952 933.255493,814.753662 
	C925.505676,814.753662 917.799744,814.753662 909.851440,814.753662 
	C909.851440,817.473450 909.851440,819.557495 909.851440,822.345947 
	C918.694458,822.345947 927.397766,822.345947 935.532654,822.345947 
	C936.175293,823.175964 936.346497,823.294800 936.361450,823.430664 
	C937.586609,834.619751 937.585632,834.615051 926.443970,834.607422 
	C916.484985,834.600647 906.526001,834.606079 895.813904,834.606079 
	C895.813904,828.318970 895.813904,822.409119 895.813843,815.999390 
z"/>
<path fill="#FE8308" opacity="1.000000" stroke="none" 
	d="
M1094.869873,834.597229 
	C1091.769409,834.597473 1089.136841,834.597473 1086.249756,834.597473 
	C1086.249756,817.687256 1086.249756,801.274292 1086.249756,784.499023 
	C1090.685059,784.499023 1095.072510,784.499023 1099.931274,784.499023 
	C1099.931274,790.475098 1099.931274,796.380127 1099.931274,802.285156 
	C1100.332153,802.510681 1100.732910,802.736206 1101.133789,802.961792 
	C1103.600464,800.070557 1106.516846,797.449768 1108.448730,794.237061 
	C1114.084229,784.865051 1122.068848,781.880615 1133.208130,784.950867 
	C1127.209351,791.881104 1121.235229,798.782837 1115.073730,805.901062 
	C1121.441284,815.223450 1127.704834,824.393616 1134.605225,834.496216 
	C1128.731201,834.496216 1123.682617,834.667603 1118.662964,834.361938 
	C1117.565186,834.295044 1116.370850,832.667236 1115.563843,831.517700 
	C1112.143433,826.645569 1108.852173,821.682800 1105.520020,816.762451 
	C1097.236938,820.685303 1101.390747,828.299255 1099.743652,834.351379 
	C1098.264893,834.433777 1096.801270,834.515381 1094.869873,834.597229 
z"/>
<path fill="#FE8308" opacity="1.000000" stroke="none" 
	d="
M389.728333,795.225037 
	C395.220917,808.280579 400.560150,820.985229 406.252472,834.530151 
	C401.324615,834.530151 396.874939,834.926147 392.573273,834.301880 
	C391.186035,834.100525 389.756561,831.366699 389.110840,829.523560 
	C388.076599,826.571533 386.572388,825.125732 383.323578,825.538513 
	C381.355499,825.788635 379.311188,825.762817 377.333679,825.553345 
	C371.653595,824.951660 366.746124,825.346069 365.503784,832.468262 
	C365.357635,833.306091 363.671478,834.404907 362.644806,834.465820 
	C358.700500,834.699829 354.734100,834.560547 349.915710,834.560547 
	C353.069733,827.075256 355.942535,820.257324 358.815338,813.439392 
	C362.366425,805.011780 366.119019,796.660767 369.369904,788.118958 
	C370.680054,784.676514 372.773621,784.450500 375.941681,783.804077 
	C385.459625,781.862122 387.252228,788.487610 389.728333,795.225037 
M374.233643,814.582947 
	C377.087067,814.582947 379.940491,814.582947 383.407288,814.582947 
	C381.511993,809.801697 379.982391,805.942871 378.452759,802.084106 
	C378.008240,802.084351 377.563751,802.084656 377.119232,802.084961 
	C375.901917,806.165283 374.684631,810.245605 374.233643,814.582947 
z"/>
<path fill="#FE8308" opacity="1.000000" stroke="none" 
	d="
M1434.305786,787.182617 
	C1447.507568,780.104736 1460.734253,782.481812 1469.998047,793.854492 
	C1466.540771,796.548035 1463.085938,799.239563 1459.653931,801.913330 
	C1451.876099,795.027222 1445.590088,794.386108 1440.348877,799.824524 
	C1435.596680,804.755798 1435.601318,813.926819 1440.359131,818.955017 
	C1445.337158,824.216187 1452.130371,823.524719 1460.003174,816.692261 
	C1461.657471,817.810791 1463.432007,818.971313 1465.163574,820.192688 
	C1466.775146,821.329468 1468.340942,822.531006 1469.902222,823.685669 
	C1464.843750,832.717773 1455.335571,836.705200 1443.296509,834.994202 
	C1433.844727,833.650879 1425.446289,826.023254 1423.050415,816.606506 
	C1420.090088,804.971313 1423.986450,794.547180 1434.305786,787.182617 
z"/>
<path fill="#FE850B" opacity="1.000000" stroke="none" 
	d="
M1270.367798,795.656982 
	C1268.111816,791.953674 1266.057617,788.554626 1263.394165,784.147583 
	C1268.926514,784.147583 1273.622681,783.965149 1278.284180,784.286255 
	C1279.343384,784.359192 1280.520630,786.033203 1281.234741,787.216919 
	C1284.032715,791.855652 1286.667236,796.592957 1289.761841,801.990173 
	C1292.696411,796.882019 1295.458252,792.564758 1297.702393,787.993469 
	C1299.163696,785.016907 1300.989990,783.798889 1304.299927,784.071533 
	C1307.734497,784.354492 1311.210327,784.134583 1315.612915,784.134583 
	C1314.148804,786.758362 1313.097168,788.722412 1311.969116,790.641541 
	C1310.873779,792.504761 1309.689697,794.315613 1308.562500,796.160461 
	C1305.009644,801.975891 1300.298706,807.416809 1298.246826,813.722229 
	C1296.214600,819.967346 1296.866943,827.086121 1296.309570,834.236267 
	C1292.096680,834.236267 1287.558228,834.236267 1283.110840,834.236267 
	C1282.854004,833.742920 1282.536499,833.427979 1282.579468,833.173889 
	C1285.027710,818.682190 1278.348267,807.145386 1270.367798,795.656982 
z"/>
<path fill="#FE850B" opacity="1.000000" stroke="none" 
	d="
M276.595947,790.188721 
	C276.595795,800.929932 276.595795,811.196655 276.595795,821.934204 
	C284.833496,821.934204 292.575043,821.934204 300.586853,821.934204 
	C300.586853,826.160217 300.586853,829.920288 300.586853,834.149902 
	C288.149292,834.149902 275.647430,834.149902 262.773926,834.149902 
	C262.773926,817.626404 262.773926,801.126587 262.773926,784.380188 
	C267.298309,784.380188 271.569916,784.380188 276.596130,784.380188 
	C276.596130,786.194458 276.596130,787.954407 276.595947,790.188721 
z"/>
<path fill="#FE8307" opacity="1.000000" stroke="none" 
	d="
M1185.826416,823.971558 
	C1185.826416,810.536743 1185.826416,797.597900 1185.826416,784.401978 
	C1190.686646,784.401978 1194.953247,784.401978 1199.828247,784.401978 
	C1199.828247,796.758362 1199.828247,809.134583 1199.828247,821.841309 
	C1208.027832,821.841309 1215.634033,821.841309 1223.622559,821.841309 
	C1223.622559,826.073303 1223.622559,829.974487 1223.622559,834.253540 
	C1211.366577,834.253540 1198.974487,834.253540 1185.826538,834.253540 
	C1185.826538,830.981873 1185.826538,827.724670 1185.826416,823.971558 
z"/>
<path fill="#FE850B" opacity="1.000000" stroke="none" 
	d="
M1358.436401,834.533325 
	C1357.450317,829.929016 1356.919067,825.379089 1356.340698,820.424561 
	C1361.727051,820.424561 1366.100098,820.424561 1370.828369,820.424561 
	C1370.828369,825.029602 1370.828369,829.532776 1370.828369,834.587708 
	C1366.741577,834.587708 1362.816528,834.587708 1358.436401,834.533325 
z"/>
<path fill="#FFFEFD" opacity="1.000000" stroke="none" 
	d="
M1014.000122,88.556496 
	C1226.803589,88.556313 1439.107056,88.556313 1651.782959,88.556313 
	C1651.782959,298.146118 1651.782959,507.355194 1651.782959,716.860229 
	C1130.334839,716.860229 608.944458,716.860229 87.197792,716.860229 
	C87.197792,507.599487 87.197792,298.384155 87.197792,88.556679 
	C395.982727,88.556679 704.741394,88.556679 1014.000122,88.556496 
M644.617310,337.152802 
	C675.573669,337.152802 706.529968,337.152802 738.136963,337.152802 
	C738.136963,347.828583 738.136963,358.092255 738.136963,368.355927 
	C739.291199,367.478912 739.728821,366.598450 740.111206,365.694672 
	C765.061768,306.728851 790.040710,247.774948 814.871948,188.758911 
	C816.352905,185.239166 817.856262,183.615219 822.003601,183.704361 
	C836.496399,184.015900 851.000793,183.913574 865.498779,183.769760 
	C868.875610,183.736282 870.729614,184.509537 872.186035,187.975922 
	C899.177124,252.216171 926.345703,316.381866 953.464905,380.568359 
	C954.067383,381.994354 954.530029,383.479462 955.098755,385.049866 
	C954.014404,385.301025 953.539307,385.506561 953.063843,385.507416 
	C935.231628,385.540070 917.398438,385.639557 899.569092,385.419525 
	C898.018372,385.400421 895.752075,383.585571 895.078308,382.051392 
	C890.934387,372.616394 887.047668,363.063080 883.316956,353.455322 
	C882.244080,350.692261 880.821228,349.758514 877.852966,349.774353 
	C854.687805,349.898163 831.521423,349.901245 808.356262,349.771942 
	C805.222717,349.754456 803.635864,350.643311 802.508545,353.665649 
	C799.081177,362.854187 795.145691,371.853943 791.753113,381.054474 
	C790.435974,384.626434 788.519104,385.662048 784.786377,385.654877 
	C720.455688,385.531067 656.124634,385.560059 591.793701,385.540710 
	C589.841125,385.540131 587.888550,385.378906 585.336670,385.266113 
	C585.336670,294.969177 585.336670,205.092560 585.336670,115.320793 
	C427.629730,115.320793 270.547211,115.320793 113.442223,115.320793 
	C113.442223,307.212555 113.442223,498.783783 113.442223,690.480835 
	C479.429413,690.480835 845.137451,690.480835 1210.823608,690.480835 
	C1210.963745,689.640198 1211.116455,689.150513 1211.116699,688.660828 
	C1211.131226,641.662720 1211.151733,594.664551 1211.067871,547.666626 
	C1211.064819,545.976868 1210.323120,544.108765 1209.425659,542.626526 
	C1185.800049,503.607269 1162.106079,464.629333 1138.435547,425.637238 
	C1137.464966,424.038361 1136.609253,422.369843 1135.379883,420.157745 
	C1155.913086,420.157745 1175.406982,420.081207 1194.897705,420.294617 
	C1196.561523,420.312836 1198.840332,421.875885 1199.749756,423.377594 
	C1204.316772,430.918884 1208.519531,438.680756 1212.857422,446.361084 
	C1221.608887,461.855438 1230.364868,477.347198 1239.364746,493.274841 
	C1240.381958,491.583984 1241.153076,490.360535 1241.867920,489.104980 
	C1254.302734,467.261963 1266.767822,445.436066 1279.108643,423.540070 
	C1280.500610,421.070312 1282.007202,420.058289 1284.935791,420.082611 
	C1302.767212,420.230713 1320.600464,420.146454 1338.433105,420.172607 
	C1339.630737,420.174347 1340.827881,420.446075 1342.444946,420.643494 
	C1341.114136,422.920624 1340.143066,424.650726 1339.108643,426.342010 
	C1316.438965,463.402496 1293.814941,500.491028 1271.021606,537.475281 
	C1268.128540,542.169861 1266.707642,546.787231 1266.732910,552.389709 
	C1266.931519,596.553833 1266.843384,640.719299 1266.843384,684.884338 
	C1266.843384,686.784058 1266.843262,688.683777 1266.843262,690.446777 
	C1386.970093,690.446777 1506.200073,690.446777 1625.519531,690.446777 
	C1625.519531,498.477234 1625.519531,306.912750 1625.519531,115.384979 
	C1297.136108,115.384979 969.092773,115.384979 641.002197,115.384979 
	C640.940369,116.760696 640.856506,117.756752 640.856384,118.752823 
	C640.848999,190.083527 640.848206,261.414246 640.847961,332.744934 
	C640.847961,333.578156 640.539185,334.658539 640.944031,335.188171 
	C641.590820,336.034302 642.716248,336.514618 644.617310,337.152802 
M823.064026,306.849243 
	C837.054871,306.849243 851.045715,306.849243 865.841064,306.849243 
	C858.180664,287.317657 850.939331,268.854675 843.243958,249.233994 
	C835.578613,268.512451 828.406982,286.507751 821.330750,304.540527 
	C821.111938,305.098206 821.882690,306.044250 823.064026,306.849243 
z"/>
<path fill="#FDF6EC" opacity="1.000000" stroke="none" 
	d="
M184.760239,796.372437 
	C186.671402,796.562256 188.563309,796.235291 189.536209,797.031494 
	C191.276138,798.455200 193.736359,800.697449 193.554108,802.337341 
	C193.331116,804.343750 190.976761,807.220703 189.049454,807.689941 
	C185.497986,808.554626 181.585602,807.937012 177.596527,807.937012 
	C177.596527,804.175049 177.596527,800.731201 177.596527,796.664062 
	C179.832489,796.563660 182.079697,796.462708 184.760239,796.372437 
z"/>
<path fill="#FFFEFC" opacity="1.000000" stroke="none" 
	d="
M586.692749,821.100037 
	C583.062012,821.543213 579.829407,821.889893 576.274048,822.271118 
	C576.274048,813.614929 576.274048,805.576843 576.274048,797.557800 
	C585.480896,795.506897 592.217957,798.237549 594.514099,804.890930 
	C596.912170,811.839783 594.221375,817.680359 586.692749,821.100037 
z"/>
<path fill="#FEFCF9" opacity="1.000000" stroke="none" 
	d="
M81.224205,822.775452 
	C71.680748,820.263733 67.489929,813.634521 69.888718,805.401672 
	C71.702255,799.177490 76.645172,795.579102 82.777397,796.018860 
	C88.638176,796.439148 93.225525,800.944885 94.225136,807.262878 
	C95.230804,813.619141 91.986740,819.782776 86.444420,821.783691 
	C84.907356,822.338562 83.224548,822.489807 81.224205,822.775452 
z"/>
<path fill="#FEFCF9" opacity="1.000000" stroke="none" 
	d="
M689.088623,796.006958 
	C696.578796,796.874451 700.906372,800.650635 701.943665,806.866882 
	C702.957520,812.942444 700.291260,818.696716 695.281433,821.245483 
	C688.945618,824.468628 681.588562,821.960083 678.411865,815.493103 
	C675.043030,808.634949 677.749695,800.160217 684.371582,797.138672 
	C685.702820,796.531189 687.239258,796.373535 689.088623,796.006958 
z"/>
<path fill="#FEFCF9" opacity="1.000000" stroke="none" 
	d="
M1535.886963,804.263184 
	C1539.448975,797.449463 1544.553345,794.803101 1550.467163,796.378845 
	C1556.592407,798.010864 1560.367554,803.489746 1560.052734,810.290710 
	C1559.752441,816.776123 1555.589600,821.454041 1549.148804,822.543457 
	C1539.951538,824.099243 1533.154785,814.999207 1535.886963,804.263184 
z"/>
<path fill="#FDF6EC" opacity="1.000000" stroke="none" 
	d="
M373.850464,814.454468 
	C374.684631,810.245605 375.901917,806.165283 377.119232,802.084961 
	C377.563751,802.084656 378.008240,802.084351 378.452759,802.084106 
	C379.982391,805.942871 381.511993,809.801697 383.407288,814.582947 
	C379.940491,814.582947 377.087067,814.582947 373.850464,814.454468 
z"/>
<path fill="#FF8102" opacity="1.000000" stroke="none" 
	d="
M644.128296,337.151215 
	C642.716248,336.514618 641.590820,336.034302 640.944031,335.188171 
	C640.539185,334.658539 640.847961,333.578156 640.847961,332.744934 
	C640.848206,261.414246 640.848999,190.083527 640.856384,118.752823 
	C640.856506,117.756752 640.940369,116.760696 641.002197,115.384979 
	C969.092773,115.384979 1297.136108,115.384979 1625.519531,115.384979 
	C1625.519531,306.912750 1625.519531,498.477234 1625.519531,690.446777 
	C1506.200073,690.446777 1386.970093,690.446777 1266.843262,690.446777 
	C1266.843262,688.683777 1266.843384,686.784058 1266.843384,684.884338 
	C1266.843384,640.719299 1266.931519,596.553833 1266.732910,552.389709 
	C1266.707642,546.787231 1268.128540,542.169861 1271.021606,537.475281 
	C1293.814941,500.491028 1316.438965,463.402496 1339.108643,426.342010 
	C1340.143066,424.650726 1341.114136,422.920624 1342.444946,420.643494 
	C1340.827881,420.446075 1339.630737,420.174347 1338.433105,420.172607 
	C1320.600464,420.146454 1302.767212,420.230713 1284.935791,420.082611 
	C1282.007202,420.058289 1280.500610,421.070312 1279.108643,423.540070 
	C1266.767822,445.436066 1254.302734,467.261963 1241.867920,489.104980 
	C1241.153076,490.360535 1240.381958,491.583984 1239.364746,493.274841 
	C1230.364868,477.347198 1221.608887,461.855438 1212.857422,446.361084 
	C1208.519531,438.680756 1204.316772,430.918884 1199.749756,423.377594 
	C1198.840332,421.875885 1196.561523,420.312836 1194.897705,420.294617 
	C1175.406982,420.081207 1155.913086,420.157745 1135.379883,420.157745 
	C1136.609253,422.369843 1137.464966,424.038361 1138.435547,425.637238 
	C1162.106079,464.629333 1185.800049,503.607269 1209.425659,542.626526 
	C1210.323120,544.108765 1211.064819,545.976868 1211.067871,547.666626 
	C1211.151733,594.664551 1211.131226,641.662720 1211.116699,688.660828 
	C1211.116455,689.150513 1210.963745,689.640198 1210.823608,690.480835 
	C845.137451,690.480835 479.429413,690.480835 113.442223,690.480835 
	C113.442223,498.783783 113.442223,307.212555 113.442223,115.320793 
	C270.547211,115.320793 427.629730,115.320793 585.336670,115.320793 
	C585.336670,205.092560 585.336670,294.969177 585.336670,385.266113 
	C587.888550,385.378906 589.841125,385.540131 591.793701,385.540710 
	C656.124634,385.560059 720.455688,385.531067 784.786377,385.654877 
	C788.519104,385.662048 790.435974,384.626434 791.753113,381.054474 
	C795.145691,371.853943 799.081177,362.854187 802.508545,353.665649 
	C803.635864,350.643311 805.222717,349.754456 808.356262,349.771942 
	C831.521423,349.901245 854.687805,349.898163 877.852966,349.774353 
	C880.821228,349.758514 882.244080,350.692261 883.316956,353.455322 
	C887.047668,363.063080 890.934387,372.616394 895.078308,382.051392 
	C895.752075,383.585571 898.018372,385.400421 899.569092,385.419525 
	C917.398438,385.639557 935.231628,385.540070 953.063843,385.507416 
	C953.539307,385.506561 954.014404,385.301025 955.098755,385.049866 
	C954.530029,383.479462 954.067383,381.994354 953.464905,380.568359 
	C926.345703,316.381866 899.177124,252.216171 872.186035,187.975922 
	C870.729614,184.509537 868.875610,183.736282 865.498779,183.769760 
	C851.000793,183.913574 836.496399,184.015900 822.003601,183.704361 
	C817.856262,183.615219 816.352905,185.239166 814.871948,188.758911 
	C790.040710,247.774948 765.061768,306.728851 740.111206,365.694672 
	C739.728821,366.598450 739.291199,367.478912 738.136963,368.355927 
	C738.136963,358.092255 738.136963,347.828583 738.136963,337.152802 
	C706.529968,337.152802 675.573669,337.152802 644.128296,337.151215 
M387.160614,511.683563 
	C384.795776,519.600891 382.430939,527.518250 379.729187,536.563660 
	C377.199371,528.869873 375.091644,522.411621 372.952911,515.963623 
	C362.753693,485.214081 352.579254,454.456146 342.250549,423.750092 
	C341.690338,422.084595 339.837677,419.644043 338.546722,419.618958 
	C323.569397,419.327972 308.584381,419.432953 293.393463,419.432953 
	C280.499542,458.287811 267.698975,496.861267 254.661682,536.148071 
	C253.935410,534.208130 253.465927,533.142639 253.132462,532.036194 
	C242.435883,496.541748 231.695938,461.060120 221.147903,425.521545 
	C219.997864,421.646790 218.612640,419.930328 214.142441,420.025940 
	C198.317398,420.364502 182.480667,420.150055 166.648407,420.169983 
	C165.072769,420.171967 163.497330,420.343323 161.558075,420.457489 
	C162.003693,422.190704 162.253098,423.471344 162.660233,424.699707 
	C184.050659,489.236481 205.479019,553.760742 226.777466,618.327820 
	C227.748718,621.272217 229.076355,622.099365 232.026917,622.065857 
	C245.191010,621.916443 258.360199,621.861023 271.521973,622.091431 
	C275.150665,622.154907 276.627777,620.999329 277.799835,617.558533 
	C288.141541,587.199280 298.702454,556.914612 309.224304,526.616882 
	C311.478455,520.126038 313.837189,513.671570 316.445251,506.367065 
	C317.525391,509.328278 318.286102,511.343964 318.998352,513.376648 
	C331.252960,548.350342 343.546600,583.310425 355.669159,618.329834 
	C356.675690,621.237366 357.978516,622.101318 360.942535,622.067078 
	C374.273224,621.913147 387.608093,621.895752 400.938141,622.074768 
	C404.143372,622.117859 405.406860,621.147278 406.437836,618.025818 
	C425.511505,560.277771 444.757202,502.586639 463.942169,444.875336 
	C466.629333,436.791962 469.187897,428.665863 471.935333,420.158997 
	C453.859924,420.158997 436.532806,420.275330 419.209747,420.063232 
	C415.641602,420.019562 414.423859,421.272461 413.460571,424.512970 
	C404.888855,453.348236 396.125031,482.126343 387.160614,511.683563 
M1099.234131,382.408356 
	C1101.480469,383.463654 1103.704346,385.370911 1105.977051,385.431030 
	C1117.634155,385.739410 1129.303955,385.572418 1140.969238,385.571594 
	C1143.910522,385.571381 1146.851807,385.571533 1149.864990,385.571533 
	C1149.864990,318.416779 1149.864990,252.003586 1149.864990,185.479980 
	C1131.695435,185.479980 1113.825317,185.479980 1095.266113,185.479980 
	C1095.266113,220.451370 1095.266113,255.103561 1095.266113,291.040009 
	C1093.218262,288.555603 1092.050293,287.205933 1090.954712,285.799866 
	C1065.669922,253.346985 1040.366577,220.908356 1015.169678,188.387238 
	C1013.350647,186.039429 1011.541992,185.054108 1008.551331,185.086151 
	C994.221313,185.239685 979.888672,185.146652 965.557007,185.165863 
	C964.120483,185.167801 962.684204,185.335861 961.261963,185.425934 
	C961.261963,252.268570 961.261963,318.688568 961.261963,385.085876 
	C979.552002,385.085876 997.570190,385.085876 1016.151062,385.085876 
	C1016.151062,348.608002 1016.151062,312.631317 1016.151062,275.664856 
	C1044.167847,311.645081 1071.484619,346.726227 1099.234131,382.408356 
M434.493286,385.570770 
	C439.270477,385.570770 444.047668,385.570770 449.312744,385.570770 
	C449.312744,364.980316 449.312744,345.063446 449.312744,324.844940 
	C456.305298,324.844940 462.799164,325.055511 469.269958,324.759918 
	C472.728516,324.601929 474.638641,325.887634 476.479828,328.699707 
	C488.063049,346.391022 499.896881,363.918274 511.467224,381.617889 
	C513.319092,384.450745 515.225098,385.664398 518.678589,385.632599 
	C536.674988,385.466888 554.673828,385.571594 572.671814,385.557526 
	C574.083618,385.556427 575.495239,385.366577 577.678406,385.208649 
	C561.621338,361.701965 546.017334,338.858429 530.367310,315.947540 
	C558.391724,301.108276 568.603882,286.888519 571.367065,259.493774 
	C574.343628,229.983749 560.179626,205.127258 533.428772,193.279556 
	C519.474426,187.099274 504.583008,185.317764 489.531525,185.214905 
	C459.036346,185.006454 428.538757,185.150131 398.042145,185.168457 
	C396.770508,185.169235 395.498962,185.370056 394.299438,185.471588 
	C394.299438,252.230835 394.299438,318.639313 394.299438,385.570465 
	C407.561096,385.570465 420.528137,385.570465 434.493286,385.570770 
M1335.197876,353.696198 
	C1351.186523,337.069214 1359.758789,317.078278 1361.511353,294.233124 
	C1363.631592,266.594116 1357.682251,241.180603 1338.822632,219.981827 
	C1319.081421,197.792114 1293.151001,187.800293 1264.410278,186.291962 
	C1234.332031,184.713440 1204.132568,185.442566 1173.985962,185.185669 
	C1173.371094,185.180435 1172.754028,185.451996 1172.129639,185.596344 
	C1172.129639,252.201675 1172.129639,318.605713 1172.129639,385.151917 
	C1173.372314,385.308075 1174.345581,385.536865 1175.318970,385.537170 
	C1201.310913,385.545258 1227.314453,386.016205 1253.291626,385.392090 
	C1283.964478,384.655151 1312.018433,376.226776 1335.197876,353.696198 
M164.165573,300.132721 
	C167.824753,324.541870 178.101273,345.707520 196.830902,361.881775 
	C230.261917,390.751617 268.678192,396.563080 309.861694,382.807739 
	C373.856659,361.433350 399.765900,281.597992 360.977051,226.511490 
	C341.316925,198.590973 313.789154,184.044312 280.024048,181.710541 
	C243.243622,179.168320 211.726181,190.980942 187.490479,219.254608 
	C167.807617,242.216858 160.733353,269.319458 164.165573,300.132721 
M1419.612061,197.076035 
	C1378.561646,222.903091 1360.364624,269.661072 1373.724854,315.101349 
	C1389.618408,369.157928 1443.985229,397.911621 1499.286377,387.508148 
	C1551.491455,377.687103 1587.656372,332.712128 1585.198975,280.690552 
	C1583.850830,252.153839 1573.166748,227.769653 1551.802246,208.987839 
	C1514.974243,176.612061 1462.828369,172.150284 1419.612061,197.076035 
M480.000427,462.500000 
	C480.000427,515.064514 480.000427,567.629028 480.000427,620.021240 
	C534.573669,620.021240 588.315125,620.021240 642.033936,620.021240 
	C642.033936,604.394714 642.033936,589.173035 642.033936,573.498535 
	C606.196655,573.498535 570.761536,573.498535 535.241638,573.498535 
	C535.241638,562.499084 535.241638,551.964539 535.241638,540.938232 
	C567.379761,540.938232 599.116089,540.938232 630.855713,540.938232 
	C630.855713,526.357727 630.855713,512.278320 630.855713,497.712616 
	C598.798340,497.712616 567.049683,497.712616 535.185547,497.712616 
	C535.185547,487.327881 535.185547,477.436859 535.185547,467.054169 
	C570.592712,467.054169 605.661621,467.054169 640.746948,467.054169 
	C640.746948,451.184265 640.746948,435.814545 640.746948,420.411011 
	C587.064941,420.411011 533.801025,420.411011 480.000427,420.411011 
	C480.000427,434.269989 480.000427,447.885010 480.000427,462.500000 
M725.514893,573.577759 
	C720.931335,573.577759 716.347839,573.577759 711.796387,573.577759 
	C711.796387,562.302246 711.796387,551.879944 711.796387,540.990356 
	C743.912476,540.990356 775.656433,540.990356 807.556274,540.990356 
	C807.556274,526.444702 807.556274,512.374451 807.556274,497.822021 
	C775.530640,497.822021 743.789795,497.822021 711.767578,497.822021 
	C711.767578,487.435852 711.767578,477.534637 711.767578,467.027649 
	C747.305908,467.027649 782.503357,467.027649 817.730591,467.027649 
	C817.730591,451.166168 817.730591,435.912964 817.730591,420.449707 
	C764.081848,420.449707 710.701965,420.449707 657.118408,420.449707 
	C657.118408,487.129852 657.118408,553.520630 657.118408,620.000244 
	C711.231628,620.000244 765.061340,620.000244 818.800537,620.000244 
	C818.800537,604.334900 818.800537,589.094116 818.800537,573.577393 
	C787.798035,573.577393 757.153748,573.577393 725.514893,573.577759 
M889.000000,589.500122 
	C889.000061,583.500244 888.959412,577.499939 889.032959,571.500977 
	C889.048462,570.234070 889.059204,568.602844 889.789856,567.766235 
	C896.184448,560.444336 902.741943,553.264709 909.438477,545.835022 
	C925.675537,569.835266 941.574829,593.252747 957.342224,616.758728 
	C959.107788,619.390808 960.944946,620.530151 964.208984,620.503113 
	C983.040344,620.346924 1001.873657,620.443115 1020.706360,620.428101 
	C1022.130371,620.427002 1023.554321,620.227234 1025.976562,620.044495 
	C999.672607,581.711853 973.828979,544.050110 947.874512,506.226746 
	C973.002869,477.667603 997.947266,449.317505 1023.606628,420.154785 
	C1001.752441,420.154785 981.421509,420.083221 961.093201,420.279816 
	C959.313599,420.297028 957.074036,421.665924 955.851562,423.094513 
	C934.845032,447.643585 913.966125,472.301941 893.053711,496.931610 
	C891.961060,498.218475 890.819824,499.464111 888.749268,501.805328 
	C888.749268,473.628510 888.749268,447.053223 888.749268,420.579224 
	C870.098694,420.579224 851.891785,420.579224 833.661316,420.579224 
	C833.661316,487.275696 833.661316,553.546387 833.661316,620.121460 
	C852.097656,620.121460 870.319092,620.121460 889.000000,620.121460 
	C889.000000,610.096741 889.000000,600.298340 889.000000,589.500122 
M1028.431152,568.499939 
	C1028.431152,585.742126 1028.431152,602.984314 1028.431152,620.205017 
	C1079.685181,620.205017 1130.101807,620.205017 1180.615967,620.205017 
	C1180.615967,604.068909 1180.615967,588.299438 1180.615967,571.987915 
	C1148.330078,571.987915 1116.270264,571.987915 1083.755371,571.987915 
	C1083.755371,521.202942 1083.755371,470.958862 1083.755371,420.436737 
	C1065.226562,420.436737 1047.158325,420.436737 1028.431519,420.436737 
	C1028.431519,469.608490 1028.431519,518.554199 1028.431152,568.499939 
z"/>
<path fill="#FE8307" opacity="1.000000" stroke="none" 
	d="
M822.628052,306.829224 
	C821.882690,306.044250 821.111938,305.098206 821.330750,304.540527 
	C828.406982,286.507751 835.578613,268.512451 843.243958,249.233994 
	C850.939331,268.854675 858.180664,287.317657 865.841064,306.849243 
	C851.045715,306.849243 837.054871,306.849243 822.628052,306.829224 
z"/>
<path fill="#FFFEFD" opacity="1.000000" stroke="none" 
	d="
M387.289246,511.302429 
	C396.125031,482.126343 404.888855,453.348236 413.460571,424.512970 
	C414.423859,421.272461 415.641602,420.019562 419.209747,420.063232 
	C436.532806,420.275330 453.859924,420.158997 471.935333,420.158997 
	C469.187897,428.665863 466.629333,436.791962 463.942169,444.875336 
	C444.757202,502.586639 425.511505,560.277771 406.437836,618.025818 
	C405.406860,621.147278 404.143372,622.117859 400.938141,622.074768 
	C387.608093,621.895752 374.273224,621.913147 360.942535,622.067078 
	C357.978516,622.101318 356.675690,621.237366 355.669159,618.329834 
	C343.546600,583.310425 331.252960,548.350342 318.998352,513.376648 
	C318.286102,511.343964 317.525391,509.328278 316.445251,506.367065 
	C313.837189,513.671570 311.478455,520.126038 309.224304,526.616882 
	C298.702454,556.914612 288.141541,587.199280 277.799835,617.558533 
	C276.627777,620.999329 275.150665,622.154907 271.521973,622.091431 
	C258.360199,621.861023 245.191010,621.916443 232.026917,622.065857 
	C229.076355,622.099365 227.748718,621.272217 226.777466,618.327820 
	C205.479019,553.760742 184.050659,489.236481 162.660233,424.699707 
	C162.253098,423.471344 162.003693,422.190704 161.558075,420.457489 
	C163.497330,420.343323 165.072769,420.171967 166.648407,420.169983 
	C182.480667,420.150055 198.317398,420.364502 214.142441,420.025940 
	C218.612640,419.930328 219.997864,421.646790 221.147903,425.521545 
	C231.695938,461.060120 242.435883,496.541748 253.132462,532.036194 
	C253.465927,533.142639 253.935410,534.208130 254.661682,536.148071 
	C267.698975,496.861267 280.499542,458.287811 293.393463,419.432953 
	C308.584381,419.432953 323.569397,419.327972 338.546722,419.618958 
	C339.837677,419.644043 341.690338,422.084595 342.250549,423.750092 
	C352.579254,454.456146 362.753693,485.214081 372.952911,515.963623 
	C375.091644,522.411621 377.199371,528.869873 379.729187,536.563660 
	C382.430939,527.518250 384.795776,519.600891 387.289246,511.302429 
z"/>
<path fill="#FFFEFD" opacity="1.000000" stroke="none" 
	d="
M1099.017822,382.107880 
	C1071.484619,346.726227 1044.167847,311.645081 1016.151062,275.664856 
	C1016.151062,312.631317 1016.151062,348.608002 1016.151062,385.085876 
	C997.570190,385.085876 979.552002,385.085876 961.261963,385.085876 
	C961.261963,318.688568 961.261963,252.268570 961.261963,185.425934 
	C962.684204,185.335861 964.120483,185.167801 965.557007,185.165863 
	C979.888672,185.146652 994.221313,185.239685 1008.551331,185.086151 
	C1011.541992,185.054108 1013.350647,186.039429 1015.169678,188.387238 
	C1040.366577,220.908356 1065.669922,253.346985 1090.954712,285.799866 
	C1092.050293,287.205933 1093.218262,288.555603 1095.266113,291.040009 
	C1095.266113,255.103561 1095.266113,220.451370 1095.266113,185.479980 
	C1113.825317,185.479980 1131.695435,185.479980 1149.864990,185.479980 
	C1149.864990,252.003586 1149.864990,318.416779 1149.864990,385.571533 
	C1146.851807,385.571533 1143.910522,385.571381 1140.969238,385.571594 
	C1129.303955,385.572418 1117.634155,385.739410 1105.977051,385.431030 
	C1103.704346,385.370911 1101.480469,383.463654 1099.017822,382.107880 
z"/>
<path fill="#FFFEFD" opacity="1.000000" stroke="none" 
	d="
M433.994232,385.570618 
	C420.528137,385.570465 407.561096,385.570465 394.299438,385.570465 
	C394.299438,318.639313 394.299438,252.230835 394.299438,185.471588 
	C395.498962,185.370056 396.770508,185.169235 398.042145,185.168457 
	C428.538757,185.150131 459.036346,185.006454 489.531525,185.214905 
	C504.583008,185.317764 519.474426,187.099274 533.428772,193.279556 
	C560.179626,205.127258 574.343628,229.983749 571.367065,259.493774 
	C568.603882,286.888519 558.391724,301.108276 530.367310,315.947540 
	C546.017334,338.858429 561.621338,361.701965 577.678406,385.208649 
	C575.495239,385.366577 574.083618,385.556427 572.671814,385.557526 
	C554.673828,385.571594 536.674988,385.466888 518.678589,385.632599 
	C515.225098,385.664398 513.319092,384.450745 511.467224,381.617889 
	C499.896881,363.918274 488.063049,346.391022 476.479828,328.699707 
	C474.638641,325.887634 472.728516,324.601929 469.269958,324.759918 
	C462.799164,325.055511 456.305298,324.844940 449.312744,324.844940 
	C449.312744,345.063446 449.312744,364.980316 449.312744,385.570770 
	C444.047668,385.570770 439.270477,385.570770 433.994232,385.570618 
M513.273193,245.455383 
	C509.713745,238.959564 503.828766,234.951920 496.907227,234.435257 
	C481.221985,233.264404 465.454987,233.188675 449.424042,232.657791 
	C449.424042,249.460083 449.424042,265.202576 449.424042,281.133759 
	C463.787415,281.133759 478.106781,281.909607 492.307922,280.944977 
	C511.758301,279.623810 520.629944,264.447174 513.273193,245.455383 
z"/>
<path fill="#FFFEFE" opacity="1.000000" stroke="none" 
	d="
M1334.937744,353.936493 
	C1312.018433,376.226776 1283.964478,384.655151 1253.291626,385.392090 
	C1227.314453,386.016205 1201.310913,385.545258 1175.318970,385.537170 
	C1174.345581,385.536865 1173.372314,385.308075 1172.129639,385.151917 
	C1172.129639,318.605713 1172.129639,252.201675 1172.129639,185.596344 
	C1172.754028,185.451996 1173.371094,185.180435 1173.985962,185.185669 
	C1204.132568,185.442566 1234.332031,184.713440 1264.410278,186.291962 
	C1293.151001,187.800293 1319.081421,197.792114 1338.822632,219.981827 
	C1357.682251,241.180603 1363.631592,266.594116 1361.511353,294.233124 
	C1359.758789,317.078278 1351.186523,337.069214 1334.937744,353.936493 
M1284.736206,243.687500 
	C1266.962646,231.925278 1246.988525,234.406860 1227.237427,234.256500 
	C1227.237427,268.559296 1227.237427,302.299225 1227.237427,335.993958 
	C1238.252808,335.993958 1249.077881,336.643280 1259.797729,335.857452 
	C1281.447754,334.270477 1297.756348,321.011810 1303.051514,301.739380 
	C1309.372681,278.733337 1302.613770,256.707275 1284.736206,243.687500 
z"/>
<path fill="#FFFEFE" opacity="1.000000" stroke="none" 
	d="
M164.115173,299.690063 
	C160.733353,269.319458 167.807617,242.216858 187.490479,219.254608 
	C211.726181,190.980942 243.243622,179.168320 280.024048,181.710541 
	C313.789154,184.044312 341.316925,198.590973 360.977051,226.511490 
	C399.765900,281.597992 373.856659,361.433350 309.861694,382.807739 
	C268.678192,396.563080 230.261917,390.751617 196.830902,361.881775 
	C178.101273,345.707520 167.824753,324.541870 164.115173,299.690063 
M321.695526,296.938293 
	C321.461426,288.510468 322.546783,279.785889 320.731323,271.713715 
	C316.320129,252.099838 304.336914,238.312012 284.512329,233.060791 
	C265.159485,227.934509 247.700531,232.230042 234.000687,247.319260 
	C221.687927,260.880676 218.265137,277.209320 220.877228,295.154388 
	C224.565811,320.495209 245.184830,339.151642 270.667236,339.839386 
	C295.547363,340.510864 316.669586,322.980804 321.695526,296.938293 
z"/>
<path fill="#FFFEFD" opacity="1.000000" stroke="none" 
	d="
M1419.931152,196.899261 
	C1462.828369,172.150284 1514.974243,176.612061 1551.802246,208.987839 
	C1573.166748,227.769653 1583.850830,252.153839 1585.198975,280.690552 
	C1587.656372,332.712128 1551.491455,377.687103 1499.286377,387.508148 
	C1443.985229,397.911621 1389.618408,369.157928 1373.724854,315.101349 
	C1360.364624,269.661072 1378.561646,222.903091 1419.931152,196.899261 
M1429.525635,304.796539 
	C1430.016357,306.032013 1430.491577,307.273956 1431.000244,308.502045 
	C1443.853760,339.534576 1483.368896,349.809448 1509.442749,328.901459 
	C1526.678345,315.080688 1533.622559,289.846619 1525.784058,266.707947 
	C1519.441162,247.983734 1506.544312,235.630661 1486.763794,232.132736 
	C1465.939453,228.450241 1448.396973,234.911667 1436.161743,252.510925 
	C1425.194702,268.285950 1423.859985,285.836670 1429.525635,304.796539 
z"/>
<path fill="#FFFFFE" opacity="1.000000" stroke="none" 
	d="
M480.000427,462.000000 
	C480.000427,447.885010 480.000427,434.269989 480.000427,420.411011 
	C533.801025,420.411011 587.064941,420.411011 640.746948,420.411011 
	C640.746948,435.814545 640.746948,451.184265 640.746948,467.054169 
	C605.661621,467.054169 570.592712,467.054169 535.185547,467.054169 
	C535.185547,477.436859 535.185547,487.327881 535.185547,497.712616 
	C567.049683,497.712616 598.798340,497.712616 630.855713,497.712616 
	C630.855713,512.278320 630.855713,526.357727 630.855713,540.938232 
	C599.116089,540.938232 567.379761,540.938232 535.241638,540.938232 
	C535.241638,551.964539 535.241638,562.499084 535.241638,573.498535 
	C570.761536,573.498535 606.196655,573.498535 642.033936,573.498535 
	C642.033936,589.173035 642.033936,604.394714 642.033936,620.021240 
	C588.315125,620.021240 534.573669,620.021240 480.000427,620.021240 
	C480.000427,567.629028 480.000427,515.064514 480.000427,462.000000 
z"/>
<path fill="#FFFFFE" opacity="1.000000" stroke="none" 
	d="
M726.012146,573.577576 
	C757.153748,573.577393 787.798035,573.577393 818.800537,573.577393 
	C818.800537,589.094116 818.800537,604.334900 818.800537,620.000244 
	C765.061340,620.000244 711.231628,620.000244 657.118408,620.000244 
	C657.118408,553.520630 657.118408,487.129852 657.118408,420.449707 
	C710.701965,420.449707 764.081848,420.449707 817.730591,420.449707 
	C817.730591,435.912964 817.730591,451.166168 817.730591,467.027649 
	C782.503357,467.027649 747.305908,467.027649 711.767578,467.027649 
	C711.767578,477.534637 711.767578,487.435852 711.767578,497.822021 
	C743.789795,497.822021 775.530640,497.822021 807.556274,497.822021 
	C807.556274,512.374451 807.556274,526.444702 807.556274,540.990356 
	C775.656433,540.990356 743.912476,540.990356 711.796387,540.990356 
	C711.796387,551.879944 711.796387,562.302246 711.796387,573.577759 
	C716.347839,573.577759 720.931335,573.577759 726.012146,573.577576 
z"/>
<path fill="#FFFEFE" opacity="1.000000" stroke="none" 
	d="
M889.000000,590.000061 
	C889.000000,600.298340 889.000000,610.096741 889.000000,620.121460 
	C870.319092,620.121460 852.097656,620.121460 833.661316,620.121460 
	C833.661316,553.546387 833.661316,487.275696 833.661316,420.579224 
	C851.891785,420.579224 870.098694,420.579224 888.749268,420.579224 
	C888.749268,447.053223 888.749268,473.628510 888.749268,501.805328 
	C890.819824,499.464111 891.961060,498.218475 893.053711,496.931610 
	C913.966125,472.301941 934.845032,447.643585 955.851562,423.094513 
	C957.074036,421.665924 959.313599,420.297028 961.093201,420.279816 
	C981.421509,420.083221 1001.752441,420.154785 1023.606628,420.154785 
	C997.947266,449.317505 973.002869,477.667603 947.874512,506.226746 
	C973.828979,544.050110 999.672607,581.711853 1025.976562,620.044495 
	C1023.554321,620.227234 1022.130371,620.427002 1020.706360,620.428101 
	C1001.873657,620.443115 983.040344,620.346924 964.208984,620.503113 
	C960.944946,620.530151 959.107788,619.390808 957.342224,616.758728 
	C941.574829,593.252747 925.675537,569.835266 909.438477,545.835022 
	C902.741943,553.264709 896.184448,560.444336 889.789856,567.766235 
	C889.059204,568.602844 889.048462,570.234070 889.032959,571.500977 
	C888.959412,577.499939 889.000061,583.500244 889.000000,590.000061 
z"/>
<path fill="#FFFEFC" opacity="1.000000" stroke="none" 
	d="
M1028.431396,567.999878 
	C1028.431519,518.554199 1028.431519,469.608490 1028.431519,420.436737 
	C1047.158325,420.436737 1065.226562,420.436737 1083.755371,420.436737 
	C1083.755371,470.958862 1083.755371,521.202942 1083.755371,571.987915 
	C1116.270264,571.987915 1148.330078,571.987915 1180.615967,571.987915 
	C1180.615967,588.299438 1180.615967,604.068909 1180.615967,620.205017 
	C1130.101807,620.205017 1079.685181,620.205017 1028.431152,620.205017 
	C1028.431152,602.984314 1028.431152,585.742126 1028.431396,567.999878 
z"/>
<path fill="#FF8206" opacity="1.000000" stroke="none" 
	d="
M513.477966,245.780640 
	C520.629944,264.447174 511.758301,279.623810 492.307922,280.944977 
	C478.106781,281.909607 463.787415,281.133759 449.424042,281.133759 
	C449.424042,265.202576 449.424042,249.460083 449.424042,232.657791 
	C465.454987,233.188675 481.221985,233.264404 496.907227,234.435257 
	C503.828766,234.951920 509.713745,238.959564 513.477966,245.780640 
z"/>
<path fill="#FF8102" opacity="1.000000" stroke="none" 
	d="
M1285.044678,243.875153 
	C1302.613770,256.707275 1309.372681,278.733337 1303.051514,301.739380 
	C1297.756348,321.011810 1281.447754,334.270477 1259.797729,335.857452 
	C1249.077881,336.643280 1238.252808,335.993958 1227.237427,335.993958 
	C1227.237427,302.299225 1227.237427,268.559296 1227.237427,234.256500 
	C1246.988525,234.406860 1266.962646,231.925278 1285.044678,243.875153 
z"/>
<path fill="#FF8103" opacity="1.000000" stroke="none" 
	d="
M321.544189,297.339417 
	C316.669586,322.980804 295.547363,340.510864 270.667236,339.839386 
	C245.184830,339.151642 224.565811,320.495209 220.877228,295.154388 
	C218.265137,277.209320 221.687927,260.880676 234.000687,247.319260 
	C247.700531,232.230042 265.159485,227.934509 284.512329,233.060791 
	C304.336914,238.312012 316.320129,252.099838 320.731323,271.713715 
	C322.546783,279.785889 321.461426,288.510468 321.544189,297.339417 
z"/>
<path fill="#FF8103" opacity="1.000000" stroke="none" 
	d="
M1429.378296,304.424683 
	C1423.859985,285.836670 1425.194702,268.285950 1436.161743,252.510925 
	C1448.396973,234.911667 1465.939453,228.450241 1486.763794,232.132736 
	C1506.544312,235.630661 1519.441162,247.983734 1525.784058,266.707947 
	C1533.622559,289.846619 1526.678345,315.080688 1509.442749,328.901459 
	C1483.368896,349.809448 1443.853760,339.534576 1431.000244,308.502045 
	C1430.491577,307.273956 1430.016357,306.032013 1429.378296,304.424683 
z"/>
</svg>