<svg version="1.1" id="Layer_1" xmlns="http://www.w3.org/2000/svg" xmlns:xlink="http://www.w3.org/1999/xlink" x="0px" y="0px"
	 width="100%" viewBox="0 0 180 180" enable-background="new 0 0 180 180" xml:space="preserve">
<path fill="#FEFDFE" opacity="1.000000" stroke="none" 
	d="
M120.000000,181.000000 
	C80.000000,181.000000 40.500004,181.000000 1.000005,181.000000 
	C1.000004,121.000008 1.000004,61.000011 1.000002,1.000013 
	C60.999989,1.000009 120.999977,1.000009 180.999969,1.000005 
	C180.999985,60.999985 180.999985,120.999969 181.000000,180.999969 
	C160.833328,181.000000 140.666672,181.000000 120.000000,181.000000 
M77.795288,75.091736 
	C87.194946,75.029839 96.594612,74.967949 106.919472,75.073189 
	C116.158623,75.073189 125.397774,75.073189 134.591675,75.073189 
	C134.591675,65.227867 134.591675,56.154053 134.591675,46.934757 
	C124.849945,46.934757 115.410614,46.934757 105.067589,46.697193 
	C96.803307,46.703751 88.539017,46.710312 79.640900,46.474110 
	C69.066811,46.474110 58.492718,46.474110 47.722446,46.474110 
	C47.722446,56.380054 47.722446,65.581116 47.722446,74.923431 
	C57.627254,74.923431 67.234650,74.923431 77.795288,75.091736 
M38.590347,97.980690 
	C37.003113,98.990326 34.743191,99.630516 33.949371,101.075897 
	C31.074652,106.310211 28.692154,111.814857 25.821234,117.854187 
	C25.208456,116.413208 25.015823,115.955589 24.819601,115.499519 
	C23.246107,111.842354 21.652485,108.193703 20.102009,104.526810 
	C16.864584,96.870270 16.520721,96.694450 7.873703,98.759933 
	C12.613552,109.738403 17.277569,120.704086 22.132816,131.584442 
	C22.751904,132.971786 24.337065,134.773743 25.532990,134.818298 
	C26.711042,134.862183 28.416883,133.148590 29.105667,131.803802 
	C32.380264,125.410507 35.386791,118.879913 38.907082,111.524055 
	C42.533009,119.083717 45.646572,125.806923 49.021500,132.396271 
	C49.623775,133.572174 51.260887,134.772903 52.510479,134.876877 
	C53.416832,134.952286 54.845856,133.416962 55.393929,132.285934 
	C57.344650,128.260330 59.031956,124.106308 60.793541,119.990005 
	C63.875969,112.787300 66.939552,105.576523 70.091454,98.180405 
	C60.507175,97.685013 60.519451,97.690155 57.064663,105.933456 
	C55.513195,109.635338 53.901463,113.311958 51.927124,117.907738 
	C48.920952,111.445709 46.586349,105.971474 43.793633,100.741882 
	C43.088036,99.420586 40.919537,98.880508 38.590347,97.980690 
M91.101646,127.160812 
	C82.866425,127.446419 80.089912,124.891151 80.050545,116.912766 
	C80.019669,110.656342 80.044350,104.399643 80.044350,98.260361 
	C76.643219,98.260361 73.898575,98.260361 70.925110,98.260361 
	C70.925110,104.515648 70.923523,110.483231 70.926239,116.450813 
	C70.926918,117.948479 70.862900,119.451401 70.962730,120.942932 
	C71.482758,128.712753 76.831825,133.911957 85.300674,134.934906 
	C96.255211,136.258087 104.531998,132.327347 106.776260,124.717148 
	C106.962875,124.084343 107.101379,123.409790 107.103149,122.754211 
	C107.125099,114.641953 107.117485,106.529610 107.117485,98.334869 
	C104.227394,98.334869 101.367325,98.334869 98.187851,98.334869 
	C98.187851,105.340080 98.202934,111.976547 98.182472,118.612907 
	C98.169144,122.938660 96.297157,125.920364 91.101646,127.160812 
M126.592262,112.932060 
	C124.497978,112.932060 122.403694,112.932060 120.477051,112.932060 
	C120.477051,109.847153 120.477051,107.454414 120.477051,104.770325 
	C125.784111,104.770325 130.736313,104.770325 135.911850,104.770325 
	C135.911850,102.417007 135.911850,100.369415 135.911850,98.179443 
	C127.585152,98.179443 119.507324,98.179443 111.350204,98.179443 
	C111.350204,110.422249 111.350204,122.444420 111.350204,134.410736 
	C114.447166,134.410736 117.174759,134.410736 120.224258,134.410736 
	C120.224258,129.447601 120.224258,124.830803 120.224258,119.735329 
	C125.616127,119.735329 130.691376,119.735329 135.828491,119.735329 
	C135.828491,117.202843 135.828491,115.167862 135.828491,112.932320 
	C132.853546,112.932320 130.206802,112.932320 126.592262,112.932060 
M168.357452,104.892349 
	C170.263809,104.892349 172.170166,104.892349 174.140579,104.892349 
	C174.140579,102.263992 174.140579,100.327354 174.140579,98.181778 
	C162.365570,98.181778 150.808304,98.181778 139.124725,98.181778 
	C139.124725,100.435959 139.124725,102.481766 139.124725,104.942444 
	C143.466736,104.942444 147.551315,104.942444 152.148575,104.942444 
	C152.148575,115.048828 152.148575,124.750237 152.148575,134.426346 
	C155.422974,134.426346 158.151581,134.426346 161.226776,134.426346 
	C161.226776,124.511284 161.226776,114.920784 161.226776,104.891747 
	C163.519226,104.891747 165.474350,104.891747 168.357452,104.892349 
M61.500000,87.997604 
	C91.366882,87.997604 121.233765,87.997604 151.100647,87.997604 
	C151.099335,87.746925 151.098007,87.496239 151.096695,87.245560 
	C111.278343,87.245560 71.459999,87.245560 30.986664,87.245560 
	C31.934500,87.683327 32.229523,87.938004 32.525490,87.939102 
	C41.850269,87.973793 51.175140,87.983818 61.500000,87.997604 
z"/>
<path fill="#0D0D0F" opacity="1.000000" stroke="none" 
	d="
M39.006813,97.981064 
	C40.919537,98.880508 43.088036,99.420586 43.793633,100.741882 
	C46.586349,105.971474 48.920952,111.445709 51.927124,117.907738 
	C53.901463,113.311958 55.513195,109.635338 57.064663,105.933456 
	C60.519451,97.690155 60.507175,97.685013 70.091454,98.180405 
	C66.939552,105.576523 63.875969,112.787300 60.793541,119.990005 
	C59.031956,124.106308 57.344650,128.260330 55.393929,132.285934 
	C54.845856,133.416962 53.416832,134.952286 52.510479,134.876877 
	C51.260887,134.772903 49.623775,133.572174 49.021500,132.396271 
	C45.646572,125.806923 42.533009,119.083717 38.907082,111.524055 
	C35.386791,118.879913 32.380264,125.410507 29.105667,131.803802 
	C28.416883,133.148590 26.711042,134.862183 25.532990,134.818298 
	C24.337065,134.773743 22.751904,132.971786 22.132816,131.584442 
	C17.277569,120.704086 12.613552,109.738403 7.873703,98.759933 
	C16.520721,96.694450 16.864584,96.870270 20.102009,104.526810 
	C21.652485,108.193703 23.246107,111.842354 24.819601,115.499519 
	C25.015823,115.955589 25.208456,116.413208 25.821234,117.854187 
	C28.692154,111.814857 31.074652,106.310211 33.949371,101.075897 
	C34.743191,99.630516 37.003113,98.990326 39.006813,97.981064 
z"/>
<path fill="#101012" opacity="1.000000" stroke="none" 
	d="
M91.515350,127.094681 
	C96.297157,125.920364 98.169144,122.938660 98.182472,118.612907 
	C98.202934,111.976547 98.187851,105.340080 98.187851,98.334869 
	C101.367325,98.334869 104.227394,98.334869 107.117485,98.334869 
	C107.117485,106.529610 107.125099,114.641953 107.103149,122.754211 
	C107.101379,123.409790 106.962875,124.084343 106.776260,124.717148 
	C104.531998,132.327347 96.255211,136.258087 85.300674,134.934906 
	C76.831825,133.911957 71.482758,128.712753 70.962730,120.942932 
	C70.862900,119.451401 70.926918,117.948479 70.926239,116.450813 
	C70.923523,110.483231 70.925110,104.515648 70.925110,98.260361 
	C73.898575,98.260361 76.643219,98.260361 80.044350,98.260361 
	C80.044350,104.399643 80.019669,110.656342 80.050545,116.912766 
	C80.089912,124.891151 82.866425,127.446419 91.515350,127.094681 
z"/>
<path fill="#237FBE" opacity="1.000000" stroke="none" 
	d="
M105.971268,46.934757 
	C115.410614,46.934757 124.849945,46.934757 134.591675,46.934757 
	C134.591675,56.154053 134.591675,65.227867 134.591675,75.073189 
	C125.397774,75.073189 116.158623,75.073189 106.450218,74.527679 
	C105.977737,64.966362 105.974503,55.950558 105.971268,46.934757 
M119.537003,65.942383 
	C118.521042,60.474380 120.097809,56.283077 126.634933,54.534336 
	C126.242485,54.205601 125.850044,53.876869 125.457603,53.548134 
	C122.473946,53.548134 119.490288,53.548134 115.878899,53.548134 
	C115.878899,57.919853 115.813988,62.180294 115.938499,66.435188 
	C115.961021,67.204544 116.761078,67.951134 117.202164,68.708237 
	C117.967514,68.066444 118.732857,67.424652 119.537003,65.942383 
z"/>
<path fill="#D6282F" opacity="1.000000" stroke="none" 
	d="
M76.842041,74.923431 
	C67.234650,74.923431 57.627254,74.923431 47.722446,74.923431 
	C47.722446,65.581116 47.722446,56.380054 47.722446,46.474110 
	C58.492718,46.474110 69.066811,46.474110 79.611282,46.701950 
	C76.423431,46.628616 76.795784,48.857121 76.799042,50.817093 
	C76.812393,58.852539 76.827553,66.887985 76.842041,74.923431 
M67.384911,68.762154 
	C67.542915,64.426491 69.049042,59.533340 67.541031,55.886620 
	C65.312996,50.498703 59.748039,54.784180 55.295456,53.567139 
	C55.295456,58.221268 55.194611,62.353077 55.383450,66.471603 
	C55.419731,67.262871 56.593796,68.001961 57.242973,68.765114 
	C57.858162,67.992661 58.874588,67.282143 59.005375,66.434906 
	C59.281342,64.647224 58.738373,62.691807 59.199913,60.986099 
	C59.631531,59.390987 60.926788,58.029572 61.841942,56.565300 
	C62.897091,58.080372 64.326195,59.463490 64.918449,61.141903 
	C65.775124,63.569672 66.025803,66.211281 67.384911,68.762154 
z"/>
<path fill="#09090B" opacity="1.000000" stroke="none" 
	d="
M77.318665,75.007584 
	C76.827553,66.887985 76.812393,58.852539 76.799042,50.817093 
	C76.795784,48.857121 76.423431,46.628616 79.928200,46.823326 
	C88.539017,46.710312 96.803307,46.703751 105.519424,46.815975 
	C105.974503,55.950558 105.977737,64.966362 105.987617,74.444107 
	C96.594612,74.967949 87.194946,75.029839 77.318665,75.007584 
M88.146362,69.509476 
	C89.387520,69.339294 90.625626,69.141548 91.870377,69.003830 
	C96.677986,68.471901 99.102852,65.084518 98.457344,59.774193 
	C97.876999,54.999928 95.029167,52.739151 90.284470,53.294029 
	C88.391701,53.515381 86.500618,53.751068 84.350121,54.011562 
	C84.350121,59.536308 84.277122,64.828484 84.421852,70.114700 
	C84.446014,70.997375 85.416199,71.854149 85.949242,72.722885 
	C86.665054,71.934540 87.380875,71.146194 88.146362,69.509476 
z"/>
<path fill="#0E0E0F" opacity="1.000000" stroke="none" 
	d="
M127.076172,112.932190 
	C130.206802,112.932320 132.853546,112.932320 135.828491,112.932320 
	C135.828491,115.167862 135.828491,117.202843 135.828491,119.735329 
	C130.691376,119.735329 125.616127,119.735329 120.224258,119.735329 
	C120.224258,124.830803 120.224258,129.447601 120.224258,134.410736 
	C117.174759,134.410736 114.447166,134.410736 111.350204,134.410736 
	C111.350204,122.444420 111.350204,110.422249 111.350204,98.179443 
	C119.507324,98.179443 127.585152,98.179443 135.911850,98.179443 
	C135.911850,100.369415 135.911850,102.417007 135.911850,104.770325 
	C130.736313,104.770325 125.784111,104.770325 120.477051,104.770325 
	C120.477051,107.454414 120.477051,109.847153 120.477051,112.932060 
	C122.403694,112.932060 124.497978,112.932060 127.076172,112.932190 
z"/>
<path fill="#0D0D0F" opacity="1.000000" stroke="none" 
	d="
M167.893463,104.892044 
	C165.474350,104.891747 163.519226,104.891747 161.226776,104.891747 
	C161.226776,114.920784 161.226776,124.511284 161.226776,134.426346 
	C158.151581,134.426346 155.422974,134.426346 152.148575,134.426346 
	C152.148575,124.750237 152.148575,115.048828 152.148575,104.942444 
	C147.551315,104.942444 143.466736,104.942444 139.124725,104.942444 
	C139.124725,102.481766 139.124725,100.435959 139.124725,98.181778 
	C150.808304,98.181778 162.365570,98.181778 174.140579,98.181778 
	C174.140579,100.327354 174.140579,102.263992 174.140579,104.892349 
	C172.170166,104.892349 170.263809,104.892349 167.893463,104.892044 
z"/>
<path fill="#878787" opacity="1.000000" stroke="none" 
	d="
M61.000000,87.997604 
	C51.175140,87.983818 41.850269,87.973793 32.525490,87.939102 
	C32.229523,87.938004 31.934500,87.683327 30.986664,87.245560 
	C71.459999,87.245560 111.278343,87.245560 151.096695,87.245560 
	C151.098007,87.496239 151.099335,87.746925 151.100647,87.997604 
	C121.233765,87.997604 91.366882,87.997604 61.000000,87.997604 
z"/>
<path fill="#EAF4F9" opacity="1.000000" stroke="none" 
	d="
M119.517609,66.362625 
	C118.732857,67.424652 117.967514,68.066444 117.202164,68.708237 
	C116.761078,67.951134 115.961021,67.204544 115.938499,66.435188 
	C115.813988,62.180294 115.878899,57.919853 115.878899,53.548134 
	C119.490288,53.548134 122.473946,53.548134 125.457603,53.548134 
	C125.850044,53.876869 126.242485,54.205601 126.634933,54.534336 
	C120.097809,56.283077 118.521042,60.474380 119.517609,66.362625 
z"/>
<path fill="#F8E0E0" opacity="1.000000" stroke="none" 
	d="
M66.959961,68.761902 
	C66.025803,66.211281 65.775124,63.569672 64.918449,61.141903 
	C64.326195,59.463490 62.897091,58.080372 61.841942,56.565300 
	C60.926788,58.029572 59.631531,59.390987 59.199913,60.986099 
	C58.738373,62.691807 59.281342,64.647224 59.005375,66.434906 
	C58.874588,67.282143 57.858162,67.992661 57.242973,68.765114 
	C56.593796,68.001961 55.419731,67.262871 55.383450,66.471603 
	C55.194611,62.353077 55.295456,58.221268 55.295456,53.567139 
	C59.748039,54.784180 65.312996,50.498703 67.541031,55.886620 
	C69.049042,59.533340 67.542915,64.426491 66.959961,68.761902 
z"/>
<path fill="#E3E3E3" opacity="1.000000" stroke="none" 
	d="
M88.121529,69.933670 
	C87.380875,71.146194 86.665054,71.934540 85.949242,72.722885 
	C85.416199,71.854149 84.446014,70.997375 84.421852,70.114700 
	C84.277122,64.828484 84.350121,59.536308 84.350121,54.011562 
	C86.500618,53.751068 88.391701,53.515381 90.284470,53.294029 
	C95.029167,52.739151 97.876999,54.999928 98.457344,59.774193 
	C99.102852,65.084518 96.677986,68.471901 91.870377,69.003830 
	C90.625626,69.141548 89.387520,69.339294 88.121529,69.933670 
M89.485283,65.827225 
	C90.742401,65.557014 92.840973,65.615219 93.098686,64.954941 
	C93.868469,62.982658 94.364677,60.658176 94.042610,58.617226 
	C93.899284,57.708893 91.539322,57.150341 90.185448,56.433025 
	C89.475609,58.013424 88.459106,59.537025 88.152565,61.192123 
	C87.905518,62.525986 88.516159,64.018700 89.485283,65.827225 
z"/>
<path fill="#1A1A1C" opacity="1.000000" stroke="none" 
	d="
M89.115784,65.634079 
	C88.516159,64.018700 87.905518,62.525986 88.152565,61.192123 
	C88.459106,59.537025 89.475609,58.013424 90.185455,56.433029 
	C91.539322,57.150341 93.899284,57.708893 94.042610,58.617226 
	C94.364677,60.658176 93.868469,62.982658 93.098686,64.954941 
	C92.840973,65.615219 90.742401,65.557014 89.115784,65.634079 
z"/>
</svg>